  0
SECTION
  2
HEADER
  9
$ACADVER
  1
AC1015
  9
$ACADMAINTVER
 70
           6
  9
$DWGCODEPAGE
  3
ANSI_1252
  9
$INSBASE
 10
0.0
 20
0.0
 30
0.0
  9
$EXTMIN
 10
-7.874951764628
 20
-43.312010620907
 30
0.0
  9
$EXTMAX
 10
13.745840515572
 20
4.839481686448
 30
0.0
  9
$LIMMIN
 10
-4.0
 20
-24.0
  9
$LIMMAX
 10
4.5
 20
-13.0
  9
$ORTHOMODE
 70
           0
  9
$REGENMODE
 70
           1
  9
$FILLMODE
 70
           1
  9
$QTEXTMODE
 70
           0
  9
$MIRRTEXT
 70
           1
  9
$LTSCALE
 40
1.0
  9
$ATTMODE
 70
           1
  9
$TEXTSIZE
 40
0.5
  9
$TRACEWID
 40
1.0
  9
$TEXTSTYLE
  7
STANDARD
  9
$CLAYER
  8
0
  9
$CELTYPE
  6
Continuous
  9
$CECOLOR
 62
           7
  9
$CELTSCALE
 40
1.0
  9
$DISPSILH
 70
           0
  9
$DIMSCALE
 40
1.0
  9
$DIMASZ
 40
0.25
  9
$DIMEXO
 40
0.0625
  9
$DIMDLI
 40
0.375
  9
$DIMRND
 40
0.01
  9
$DIMDLE
 40
0.0
  9
$DIMEXE
 40
0.125
  9
$DIMTP
 40
0.0
  9
$DIMTM
 40
0.0
  9
$DIMTXT
 40
0.15
  9
$DIMCEN
 40
0.09
  9
$DIMTSZ
 40
0.0
  9
$DIMTOL
 70
           0
  9
$DIMLIM
 70
           0
  9
$DIMTIH
 70
           1
  9
$DIMTOH
 70
           1
  9
$DIMSE1
 70
           0
  9
$DIMSE2
 70
           0
  9
$DIMTAD
 70
           1
  9
$DIMZIN
 70
           0
  9
$DIMBLK
  1

  9
$DIMASO
 70
           0
  9
$DIMSHO
 70
           1
  9
$DIMPOST
  1
<>in
  9
$DIMAPOST
  1

  9
$DIMALT
 70
           0
  9
$DIMALTD
 70
           2
  9
$DIMALTF
 40
1.0
  9
$DIMLFAC
 40
1.0
  9
$DIMTOFL
 70
           1
  9
$DIMTVP
 40
0.0
  9
$DIMTIX
 70
           0
  9
$DIMSOXD
 70
           0
  9
$DIMSAH
 70
           0
  9
$DIMBLK1
  1

  9
$DIMBLK2
  1

  9
$DIMSTYLE
  2
STANDARD
  9
$DIMCLRD
 70
           7
  9
$DIMCLRE
 70
           7
  9
$DIMCLRT
 70
           7
  9
$DIMTFAC
 40
1.0
  9
$DIMGAP
 40
0.0625
  9
$DIMJUST
 70
           0
  9
$DIMSD1
 70
           0
  9
$DIMSD2
 70
           0
  9
$DIMTOLJ
 70
           1
  9
$DIMTZIN
 70
           0
  9
$DIMALTZ
 70
           0
  9
$DIMALTTZ
 70
           0
  9
$DIMUPT
 70
           0
  9
$DIMDEC
 70
           2
  9
$DIMTDEC
 70
           2
  9
$DIMALTU
 70
           2
  9
$DIMALTTD
 70
           2
  9
$DIMTXSTY
  7
STANDARD
  9
$DIMAUNIT
 70
           0
  9
$DIMADEC
 70
           2
  9
$DIMALTRND
 40
0.0
  9
$DIMAZIN
 70
           0
  9
$DIMDSEP
 70
           0
  9
$DIMATFIT
 70
           0
  9
$DIMFRAC
 70
           0
  9
$DIMLDRBLK
  1

  9
$DIMLUNIT
 70
           2
  9
$DIMLWD
 70
           0
  9
$DIMLWE
 70
           0
  9
$DIMTMOVE
 70
           0
  9
$LUNITS
 70
           2
  9
$LUPREC
 70
           4
  9
$SKETCHINC
 40
1.0
  9
$FILLETRAD
 40
1.0
  9
$AUNITS
 70
           0
  9
$AUPREC
 70
           2
  9
$MENU
  1
acad
  9
$ELEVATION
 40
0.0
  9
$PELEVATION
 40
0.0
  9
$THICKNESS
 40
0.0
  9
$LIMCHECK
 70
           0
  9
$CHAMFERA
 40
0.0
  9
$CHAMFERB
 40
0.0
  9
$CHAMFERC
 40
0.0
  9
$CHAMFERD
 40
0.0
  9
$SKPOLY
 70
           0
  9
$TDCREATE
 40
0.000000000
  9
$TDUCREATE
 40
0.000000000
  9
$TDUPDATE
 40
2449702.667959363
  9
$TDUUPDATE
 40
0.000000000
  9
$TDINDWG
 40
0.0000000000
  9
$TDUSRTIMER
 40
0.0000000000
  9
$USRTIMER
 70
           1
  9
$ANGBASE
 50
0.0
  9
$ANGDIR
 70
           0
  9
$PDMODE
 70
           0
  9
$PDSIZE
 40
0.0
  9
$PLINEWID
 40
0.0
  9
$SPLFRAME
 70
           0
  9
$SPLINETYPE
 70
           5
  9
$SPLINESEGS
 70
          20
  9
$HANDSEED
  5
24F
  9
$SURFTAB1
 70
           6
  9
$SURFTAB2
 70
           6
  9
$SURFTYPE
 70
           6
  9
$SURFU
 70
           6
  9
$SURFV
 70
           6
  9
$UCSBASE
  2

  9
$UCSNAME
  2

  9
$UCSORG
 10
0.0
 20
0.0
 30
0.0
  9
$UCSXDIR
 10
1.0
 20
0.0
 30
0.0
  9
$UCSYDIR
 10
0.0
 20
1.0
 30
0.0
  9
$UCSORTHOREF
  2

  9
$UCSORTHOVIEW
 70
           0
  9
$UCSORGTOP
 10
0.0
 20
0.0
 30
0.0
  9
$UCSORGBOTTOM
 10
0.0
 20
0.0
 30
0.0
  9
$UCSORGLEFT
 10
0.0
 20
0.0
 30
0.0
  9
$UCSORGRIGHT
 10
0.0
 20
0.0
 30
0.0
  9
$UCSORGFRONT
 10
0.0
 20
0.0
 30
0.0
  9
$UCSORGBACK
 10
0.0
 20
0.0
 30
0.0
  9
$PUCSBASE
  2

  9
$PUCSNAME
  2

  9
$PUCSORG
 10
0.0
 20
0.0
 30
0.0
  9
$PUCSXDIR
 10
1.0
 20
0.0
 30
0.0
  9
$PUCSYDIR
 10
0.0
 20
1.0
 30
0.0
  9
$PUCSORTHOREF
  2

  9
$PUCSORTHOVIEW
 70
           0
  9
$PUCSORGTOP
 10
0.0
 20
0.0
 30
0.0
  9
$PUCSORGBOTTOM
 10
0.0
 20
0.0
 30
0.0
  9
$PUCSORGLEFT
 10
0.0
 20
0.0
 30
0.0
  9
$PUCSORGRIGHT
 10
0.0
 20
0.0
 30
0.0
  9
$PUCSORGFRONT
 10
0.0
 20
0.0
 30
0.0
  9
$PUCSORGBACK
 10
0.0
 20
0.0
 30
0.0
  9
$USERI1
 70
           0
  9
$USERI2
 70
           0
  9
$USERI3
 70
           0
  9
$USERI4
 70
           0
  9
$USERI5
 70
           0
  9
$USERR1
 40
0.0
  9
$USERR2
 40
0.0
  9
$USERR3
 40
0.0
  9
$USERR4
 40
0.0
  9
$USERR5
 40
0.0
  9
$WORLDVIEW
 70
           1
  9
$SHADEDGE
 70
           3
  9
$SHADEDIF
 70
          70
  9
$TILEMODE
 70
           1
  9
$MAXACTVP
 70
          16
  9
$PINSBASE
 10
0.0
 20
0.0
 30
0.0
  9
$PLIMCHECK
 70
           0
  9
$PEXTMIN
 10
0.0
 20
0.0
 30
0.0
  9
$PEXTMAX
 10
11.0
 20
8.5
 30
0.0
  9
$PLIMMIN
 10
0.0
 20
0.0
  9
$PLIMMAX
 10
11.0
 20
8.5
  9
$UNITMODE
 70
           0
  9
$VISRETAIN
 70
           0
  9
$PLINEGEN
 70
           1
  9
$PSLTSCALE
 70
           1
  9
$TREEDEPTH
 70
        3020
  9
$CMLSTYLE
  2
STANDARD
  9
$CMLJUST
 70
           0
  9
$CMLSCALE
 40
1.0
  9
$PROXYGRAPHICS
 70
           0
  9
$MEASUREMENT
 70
           0
  9
$CELWEIGHT
370
           0
  9
$ENDCAPS
280
           0
  9
$JOINSTYLE
280
           0
  9
$LWDISPLAY
290
           0
  9
$INSUNITS
 70
           0
  9
$HYPERLINKBASE
  1

  9
$STYLESHEET
  1

  9
$XEDIT
290
           1
  9
$CEPSNTYPE
380
           0
  9
$PSTYLEMODE
290
           1
  9
$FINGERPRINTGUID
  2

  9
$VERSIONGUID
  2

  9
$EXTNAMES
290
           1
  9
$PSVPSCALE
 40
0.0
  0
ENDSEC
  0
SECTION
  2
CLASSES
  0
CLASS
  1
LWPOLYLINE
  2
AcDbPolyline
  3
AutoCAD 2000
 90
    32768
280
           0
281
           1
  0
CLASS
  1
IMAGE
  2
AcDbRasterImage
  3
ISM
 90
    32895
280
           0
281
           1
  0
CLASS
  1
OLE2FRAME
  2
AcDbOle2Frame
  3
AutoCAD 2000
 90
    32768
280
           0
281
           1
  0
CLASS
  1
HATCH
  2
AcDbHatch
  3
AutoCAD 2000
 90
    32768
280
           0
281
           1
  0
CLASS
  1
DICTIONARYVAR
  2
AcDbDictionaryVar
  3
AutoCAD 2000
 90
    32768
280
           0
281
           0
  0
CLASS
  1
RASTERVARIABLES
  2
AcDbRasterVariables
  3
ISM
 90
    32768
280
           0
281
           0
  0
CLASS
  1
IMAGEDEF
  2
AcDbRasterImageDef
  3
ISM
 90
    32768
280
           0
281
           0
  0
CLASS
  1
IMAGEDEF_REACTOR
  2
AcDbRasterImageDefReactor
  3
ISM
 90
    32769
280
           0
281
           0
  0
CLASS
  1
IDBUFFER
  2
AcDbIdBuffer
  3
AutoCAD 2000
 90
    32768
280
           0
281
           0
  0
CLASS
  1
SPATIAL_FILTER
  2
AcDbSpatialFilter
  3
AutoCAD 2000
 90
    32768
280
           0
281
           0
  0
CLASS
  1
XRECORD
  2
AcDbXrecord
  3
AutoCAD 2000
 90
    32768
280
           0
281
           0
  0
CLASS
  1
SORTENTSTABLE
  2
AcDbSortentsTable
  3
AutoCAD 2000
 90
    32768
280
           0
281
           0
  0
CLASS
  1
LAYER_INDEX
  2
AcDbLayerIndex
  3
AutoCAD 2000
 90
    32768
280
           0
281
           0
  0
CLASS
  1
SPATIAL_INDEX
  2
AcDbSpatialIndex
  3
AutoCAD 2000
 90
    32768
280
           0
281
           0
  0
CLASS
  1
OBJECT_PTR
  2
CAseDLPNTableRecord
  3
"ASE-LPNTableRecord"
 90
    32769
280
           0
281
           0
  0
CLASS
  1
LAYOUT
  2
AcDbLayout
  3
AutoCAD 2000
 90
        0
280
           0
281
           0
  0
CLASS
  1
PLOTSETTINGS
  2
AcDbPlotSettings
  3
AutoCAD 2000
 90
    32768
280
           0
281
           0
  0
CLASS
  1
ACDBDICTIONARYWDFLT
  2
AcDbDictionaryWithDefault
  3
AutoCAD 2000
 90
        0
280
           0
281
           0
  0
CLASS
  1
ACDBPLACEHOLDER
  2
AcDbPlaceHolder
  3
AutoCAD 2000
 90
        0
280
           0
281
           0
  0
ENDSEC
  0
SECTION
  2
TABLES
  0
TABLE
  2
VPORT
  5
7
100
AcDbSymbolTable
 70
           1
  0
VPORT
  5
15
100
AcDbSymbolTableRecord
100
AcDbViewportTableRecord
  2
*ACTIVE
 70
           0
 10
0.0
 20
0.0
 11
1.0
 21
1.0
 12
0.0
 22
0.0
 13
0.0
 23
0.0
 14
0.5
 24
0.5
 15
0.5
 25
0.5
 16
0.0
 26
0.0
 36
1.0
 17
2.935444375472
 27
-19.236264467229
 37
0.0
 40
49.114522153502
 41
2.005059021922
 42
50.0
 43
0.0
 44
0.0
 50
0.0
 51
0.0
 71
           0
 72
         100
 73
           1
 74
           1
 75
           0
 76
           0
 77
           0
 78
           0
281
           0
 65
           0
110
0.0
120
0.0
130
0.0
111
1.0
121
0.0
131
0.0
112
0.0
122
1.0
132
0.0
345
0
346
0
 79
           0
146
0.0
  0
ENDTAB
  0
TABLE
  2
LTYPE
  5
4
100
AcDbSymbolTable
 70
          15
  0
LTYPE
  5
11
100
AcDbSymbolTableRecord
100
AcDbLinetypeTableRecord
  2
ByBlock
 70
          64
  3

 72
          65
 73
           0
 40
0.0
  0
LTYPE
  5
12
100
AcDbSymbolTableRecord
100
AcDbLinetypeTableRecord
  2
ByLayer
 70
          64
  3

 72
          65
 73
           0
 40
0.0
  0
LTYPE
  5
13
100
AcDbSymbolTableRecord
100
AcDbLinetypeTableRecord
  2
Continuous
 70
          64
  3
Solid line
 72
          65
 73
           0
 40
0.0
  0
LTYPE
  5
24
100
AcDbSymbolTableRecord
100
AcDbLinetypeTableRecord
  2
BORDER
 70
           0
  3
BORDER
 72
          65
 73
           6
 40
1.75
 49
0.5
 74
           0
 49
-0.25
 74
           0
 49
0.5
 74
           0
 49
-0.25
 74
           0
 49
0.0
 74
           0
 49
-0.25
 74
           0
  0
LTYPE
  5
25
100
AcDbSymbolTableRecord
100
AcDbLinetypeTableRecord
  2
CENTER
 70
           0
  3
CENTER
 72
          65
 73
           4
 40
2.0
 49
1.25
 74
           0
 49
-0.25
 74
           0
 49
0.25
 74
           0
 49
-0.25
 74
           0
  0
LTYPE
  5
26
100
AcDbSymbolTableRecord
100
AcDbLinetypeTableRecord
  2
DASHDOT
 70
           0
  3
DASHDOT
 72
          65
 73
           4
 40
1.0
 49
0.5
 74
           0
 49
-0.25
 74
           0
 49
0.0
 74
           0
 49
-0.25
 74
           0
  0
LTYPE
  5
27
100
AcDbSymbolTableRecord
100
AcDbLinetypeTableRecord
  2
DASHED
 70
           0
  3
DASHED
 72
          65
 73
           2
 40
0.75
 49
0.5
 74
           0
 49
-0.25
 74
           0
  0
LTYPE
  5
28
100
AcDbSymbolTableRecord
100
AcDbLinetypeTableRecord
  2
DIVIDE
 70
           0
  3
DIVIDE
 72
          65
 73
           6
 40
1.25
 49
0.5
 74
           0
 49
-0.25
 74
           0
 49
0.0
 74
           0
 49
-0.25
 74
           0
 49
0.0
 74
           0
 49
-0.25
 74
           0
  0
LTYPE
  5
29
100
AcDbSymbolTableRecord
100
AcDbLinetypeTableRecord
  2
DOT
 70
           0
  3
DOT
 72
          65
 73
           2
 40
0.25
 49
0.0
 74
           0
 49
-0.25
 74
           0
  0
LTYPE
  5
2A
100
AcDbSymbolTableRecord
100
AcDbLinetypeTableRecord
  2
HIDDEN
 70
           0
  3
HIDDEN
 72
          65
 73
           2
 40
0.375
 49
0.25
 74
           0
 49
-0.125
 74
           0
  0
LTYPE
  5
2B
100
AcDbSymbolTableRecord
100
AcDbLinetypeTableRecord
  2
PHANTOM
 70
           0
  3
PHANTOM
 72
          65
 73
           6
 40
2.5
 49
1.25
 74
           0
 49
-0.25
 74
           0
 49
0.25
 74
           0
 49
-0.25
 74
           0
 49
0.25
 74
           0
 49
-0.25
 74
           0
  0
LTYPE
  5
2C
100
AcDbSymbolTableRecord
100
AcDbLinetypeTableRecord
  2
$INVISIBLE
 70
           0
  3
$INVISIBLE
 72
          65
 73
           2
 40
200.0
 49
-100.0
 74
           0
 49
-100.0
 74
           0
  0
LTYPE
  5
2D
100
AcDbSymbolTableRecord
100
AcDbLinetypeTableRecord
  2
$SNAPEXT
 70
           0
  3
$SNAPEXT
 72
          65
 73
           2
 40
0.04
 49
0.02
 74
           0
 49
-0.02
 74
           0
  0
LTYPE
  5
2E
100
AcDbSymbolTableRecord
100
AcDbLinetypeTableRecord
  2
$AUXILIARY
 70
           0
  3
$AUXILIARY
 72
          65
 73
           2
 40
0.1
 49
0.05
 74
           0
 49
-0.05
 74
           0
  0
LTYPE
  5
2F
100
AcDbSymbolTableRecord
100
AcDbLinetypeTableRecord
  2
$CONSTRUCTION
 70
           0
  3
$CONSTRUCTION
 72
          65
 73
           4
 40
0.3
 49
0.2
 74
           0
 49
-0.05
 74
           0
 49
0.0
 74
           0
 49
-0.05
 74
           0
  0
ENDTAB
  0
TABLE
  2
LAYER
  5
2
100
AcDbSymbolTable
 70
           6
  0
LAYER
  5
14
100
AcDbSymbolTableRecord
100
AcDbLayerTableRecord
  2
0
 70
           0
 62
           7
  6
Continuous
290
           1
370
           0
390
0
1001
TCAD
1000
TCW_LAYER_ORDER
1002
{
1071
        0
1002
}
  0
LAYER
  5
30
100
AcDbSymbolTableRecord
100
AcDbLayerTableRecord
  2
Exterior View
 70
           0
 62
           7
  6
Continuous
290
           1
370
           0
390
0
1001
TCAD
1000
TCW_LAYER_ORDER
1002
{
1071
        0
1002
}
  0
LAYER
  5
31
100
AcDbSymbolTableRecord
100
AcDbLayerTableRecord
  2
Hidden
 70
           0
 62
           7
  6
Continuous
290
           1
370
           0
390
0
1001
TCAD
1000
TCW_LAYER_ORDER
1002
{
1071
        0
1002
}
  0
LAYER
  5
32
100
AcDbSymbolTableRecord
100
AcDbLayerTableRecord
  2
$CONSTRUCTION
 70
           0
 62
          -9
  6
$CONSTRUCTION
290
           1
370
           0
390
0
1001
TCAD
1000
TCW_LAYER_ORDER
1002
{
1071
        0
1002
}
  0
LAYER
  5
33
100
AcDbSymbolTableRecord
100
AcDbLayerTableRecord
  2
Strings
 70
           0
 62
           7
  6
Continuous
290
           1
370
           0
390
0
1001
TCAD
1000
TCW_LAYER_ORDER
1002
{
1071
        0
1002
}
  0
LAYER
  5
34
100
AcDbSymbolTableRecord
100
AcDbLayerTableRecord
  2
Aux Views
 70
           0
 62
           7
  6
Continuous
290
           1
370
           0
390
0
1001
TCAD
1000
TCW_LAYER_ORDER
1002
{
1071
        0
1002
}
  0
ENDTAB
  0
TABLE
  2
STYLE
  5
3
100
AcDbSymbolTable
 70
           1
  0
STYLE
  5
17
100
AcDbSymbolTableRecord
100
AcDbTextStyleTableRecord
  2
STANDARD
 70
           0
 40
0.0
 41
1.0
 50
0.0
 71
           0
 42
0.300000011921
  3
TIMES.TTF
  4

1001
ACAD
1000
Times New Roman
1071
      290
  0
ENDTAB
  0
TABLE
  2
VIEW
  5
5
100
AcDbSymbolTable
 70
           1
  0
VIEW
  5
35
100
AcDbSymbolTableRecord
100
AcDbViewTableRecord
  2
View_0
 70
           0
 40
8.267716535433
 10
5.846456692913
 20
4.133858267717
 41
11.692913385827
 11
0.0
 21
0.0
 31
1.0
 12
0.0
 22
0.0
 32
0.0
 42
92.090489446729
 43
0.0
 44
0.0
 50
0.0
 71
           0
281
           0
 72
           0
110
0.0
120
0.0
130
0.0
111
1.0
121
0.0
131
0.0
112
0.0
122
1.0
132
0.0
  0
ENDTAB
  0
TABLE
  2
UCS
  5
6
100
AcDbSymbolTable
 70
           0
  0
ENDTAB
  0
TABLE
  2
APPID
  5
8
100
AcDbSymbolTable
 70
           2
  0
APPID
  5
16
100
AcDbSymbolTableRecord
100
AcDbRegAppTableRecord
  2
ACAD
 70
           0
  0
APPID
  5
23
100
AcDbSymbolTableRecord
100
AcDbRegAppTableRecord
  2
TCAD
 70
           0
  0
ENDTAB
  0
TABLE
  2
DIMSTYLE
  5
9
100
AcDbSymbolTable
 70
           1
100
AcDbDimStyleTable
 71
           0
  0
DIMSTYLE
105
18
100
AcDbSymbolTableRecord
100
AcDbDimStyleTableRecord
  2
STANDARD
 70
           0
  3
<>in
  4

 40
1.0
 41
0.25
 42
0.0625
 43
0.375
 44
0.125
 45
0.01
 46
0.0
 47
0.0
 48
0.0
 71
           0
 72
           0
 73
           1
 74
           1
 75
           0
 76
           0
 77
           1
 78
           0
 79
           0
140
0.15
141
0.09
142
0.0
143
1.0
144
1.0
145
0.0
146
1.0
147
0.0625
148
0.01
170
           0
171
           2
172
           1
173
           0
174
           0
175
           0
176
           7
177
           7
178
           7
179
           2
271
           2
272
           2
273
           2
274
           2
275
           0
276
           0
277
           2
278
          46
279
           0
280
           0
281
           0
282
           0
283
           1
284
           0
285
           0
286
           0
288
           0
340
17
341
0
342
0
343
0
344
0
371
          -2
372
          -2
  0
ENDTAB
  0
TABLE
  2
BLOCK_RECORD
  5
1
100
AcDbSymbolTable
 70
           0
  0
BLOCK_RECORD
  5
A
100
AcDbSymbolTableRecord
100
AcDbBlockTableRecord
  2
*MODEL_SPACE
340
24D
  0
BLOCK_RECORD
  5
B
100
AcDbSymbolTableRecord
100
AcDbBlockTableRecord
  2
*PAPER_SPACE
340
24E
  0
ENDTAB
  0
ENDSEC
  0
SECTION
  2
BLOCKS
  0
BLOCK
  5
D
100
AcDbEntity
  8
0
100
AcDbBlockBegin
  2
*MODEL_SPACE
 70
           0
 10
0.0
 20
0.0
 30
0.0
  3
*MODEL_SPACE
  1

  0
ENDBLK
  5
E
100
AcDbEntity
  8
0
100
AcDbBlockEnd
  0
BLOCK
  5
F
100
AcDbEntity
 67
           1
  8
0
100
AcDbBlockBegin
  2
*PAPER_SPACE
 70
           0
 10
0.0
 20
0.0
 30
0.0
  3
*PAPER_SPACE
  1

  0
ENDBLK
  5
10
100
AcDbEntity
 67
           1
  8
0
100
AcDbBlockEnd
  0
ENDSEC
  0
SECTION
  2
ENTITIES
  0
LINE
  5
36
100
AcDbEntity
  8
Exterior View
370
           0
  6
Continuous
 62
           7
100
AcDbLine
 10
0.031298235508
 20
-0.00655970561
 30
0.0
 11
1.156498869252
 21
-0.00655970561
 31
0.0
1001
TCAD
1000
TCW_CUSTOM_DATA
1002
{
1000
#$AUX@_ToolInfo Properties
1070
           8
1000
Insert^JLine^JSingle@Line Single
1002
}
  0
LINE
  5
37
100
AcDbEntity
  8
Exterior View
370
           0
  6
Continuous
 62
           7
100
AcDbLine
 10
-0.139554651936
 20
-6.94355970561
 30
0.0
 11
1.327151122953
 21
-6.94355970561
 31
0.0
1001
TCAD
1000
TCW_CUSTOM_DATA
1002
{
1000
#$AUX@_ToolInfo Properties
1070
           8
1000
Insert^JLine^JPerpendicular@Line Perpendicular
1002
}
  0
LINE
  5
38
100
AcDbEntity
  8
Exterior View
370
           0
  6
Continuous
 62
           7
100
AcDbLine
 10
-0.208836643047
 20
-9.75655970561
 30
0.0
 11
1.396433114064
 21
-9.75655970561
 31
0.0
1001
TCAD
1000
TCW_CUSTOM_DATA
1002
{
1000
#$AUX@_ToolInfo Properties
1070
           8
1000
Insert^JLine^JPerpendicular@Line Perpendicular
1002
}
  0
LINE
  5
39
100
AcDbEntity
  8
Exterior View
370
           0
  6
Continuous
 62
           7
100
AcDbLine
 10
0.012112074442
 20
-0.78555970561
 30
0.0
 11
1.175484396575
 21
-0.78555970561
 31
0.0
1001
TCAD
1000
TCW_CUSTOM_DATA
1002
{
1000
#$AUX@_ToolInfo Properties
1070
           8
1000
Insert^JLine^JPerpendicular@Line Perpendicular
1002
}
  0
LINE
  5
3A
100
AcDbEntity
  8
Exterior View
370
           0
  6
Continuous
 62
           7
100
AcDbLine
 10
-0.005990401018
 20
-1.52055970561
 30
0.0
 11
1.193586872035
 21
-1.52055970561
 31
0.0
1001
TCAD
1000
TCW_CUSTOM_DATA
1002
{
1000
#$AUX@_ToolInfo Properties
1070
           8
1000
Insert^JLine^JPerpendicular@Line Perpendicular
1002
}
  0
LINE
  5
3B
100
AcDbEntity
  8
Exterior View
370
           0
  6
Continuous
 62
           7
100
AcDbLine
 10
-0.023083078528
 20
-2.21455970561
 30
0.0
 11
1.210679549544
 21
-2.21455970561
 31
0.0
1001
TCAD
1000
TCW_CUSTOM_DATA
1002
{
1000
#$AUX@_ToolInfo Properties
1070
           8
1000
Insert^JLine^JPerpendicular@Line Perpendicular
1002
}
  0
CIRCLE
  5
3C
100
AcDbEntity
  8
Exterior View
370
           0
  6
Continuous
 62
           7
100
AcDbCircle
 10
0.958492027154
 20
-6.73755970561
 30
0.0
 40
0.09375
1001
TCAD
1000
TCW_CUSTOM_DATA
1002
{
1000
#$AUX@_ToolInfo Properties
1070
           8
1000
Insert^JCircle^JCenterAndPoint@Circle CenterAndPoint
1002
}
  0
CIRCLE
  5
3D
100
AcDbEntity
  8
Exterior View
370
           0
  6
Continuous
 62
           7
100
AcDbCircle
 10
0.229104443863
 20
-6.73755970561
 30
0.0
 40
0.09375
1001
TCAD
1000
TCW_CUSTOM_DATA
1002
{
1000
#$AUX@_ToolInfo Properties
1070
           8
1000
Insert^JCircle^JCenterAndPoint@Circle CenterAndPoint
1002
}
  0
LINE
  5
3E
100
AcDbEntity
  8
Exterior View
370
           0
  6
Continuous
 62
           7
100
AcDbLine
 10
-0.129407413986
 20
-6.53155970561
 30
0.0
 11
1.317003885003
 21
-6.53155970561
 31
0.0
1001
TCAD
1000
TCW_CUSTOM_DATA
1002
{
1000
#$AUX@_ToolInfo Properties
1070
           8
1000
Insert^JLine^JPerpendicular@Line Perpendicular
1002
}
  0
LINE
  5
3F
100
AcDbEntity
  8
Exterior View
370
           0
  6
Continuous
 62
           7
100
AcDbLine
 10
-0.118644445583
 20
-6.09455970561
 30
0.0
 11
1.3062409166
 21
-6.09455970561
 31
0.0
1001
TCAD
1000
TCW_CUSTOM_DATA
1002
{
1000
#$AUX@_ToolInfo Properties
1070
           8
1000
Insert^JLine^JPerpendicular@Line Perpendicular
1002
}
  0
LINE
  5
40
100
AcDbEntity
  8
Exterior View
370
           0
  6
Continuous
 62
           7
100
AcDbLine
 10
-0.107241117504
 20
-5.63155970561
 30
0.0
 11
1.294837588521
 21
-5.63155970561
 31
0.0
1001
TCAD
1000
TCW_CUSTOM_DATA
1002
{
1000
#$AUX@_ToolInfo Properties
1070
           8
1000
Insert^JLine^JPerpendicular@Line Perpendicular
1002
}
  0
LINE
  5
41
100
AcDbEntity
  8
Exterior View
370
           0
  6
Continuous
 62
           7
100
AcDbLine
 10
-0.095148171313
 20
-5.14055970561
 30
0.0
 11
1.282744642329
 21
-5.14055970561
 31
0.0
1001
TCAD
1000
TCW_CUSTOM_DATA
1002
{
1000
#$AUX@_ToolInfo Properties
1070
           8
1000
Insert^JLine^JPerpendicular@Line Perpendicular
1002
}
  0
LINE
  5
42
100
AcDbEntity
  8
Exterior View
370
           0
  6
Continuous
 62
           7
100
AcDbLine
 10
-0.082365607008
 20
-4.62155970561
 30
0.0
 11
1.269962078025
 21
-4.62155970561
 31
0.0
1001
TCAD
1000
TCW_CUSTOM_DATA
1002
{
1000
#$AUX@_ToolInfo Properties
1070
           8
1000
Insert^JLine^JPerpendicular@Line Perpendicular
1002
}
  0
LINE
  5
43
100
AcDbEntity
  8
Exterior View
370
           0
  6
Continuous
 62
           7
100
AcDbLine
 10
-0.068794907717
 20
-4.07055970561
 30
0.0
 11
1.256391378734
 21
-4.07055970561
 31
0.0
1001
TCAD
1000
TCW_CUSTOM_DATA
1002
{
1000
#$AUX@_ToolInfo Properties
1070
           8
1000
Insert^JLine^JPerpendicular@Line Perpendicular
1002
}
  0
LINE
  5
44
100
AcDbEntity
  8
Exterior View
370
           0
  6
Continuous
 62
           7
100
AcDbLine
 10
-0.039190587304
 20
-2.86855970561
 30
0.0
 11
1.226787058321
 21
-2.86855970561
 31
0.0
1001
TCAD
1000
TCW_CUSTOM_DATA
1002
{
1000
#$AUX@_ToolInfo Properties
1070
           8
1000
Insert^JLine^JPerpendicular@Line Perpendicular
1002
}
  0
LINE
  5
45
100
AcDbEntity
  8
Exterior View
370
           0
  6
Continuous
 62
           7
100
AcDbLine
 10
-0.054411444222
 20
-3.48655970561
 30
0.0
 11
1.242007915239
 21
-3.48655970561
 31
0.0
1001
TCAD
1000
TCW_CUSTOM_DATA
1002
{
1000
#$AUX@_ToolInfo Properties
1070
           8
1000
Insert^JLine^JPerpendicular@Line Perpendicular
1002
}
  0
LINE
  5
46
100
AcDbEntity
  8
Exterior View
370
           0
  6
Continuous
 62
           7
100
AcDbLine
 10
-0.16674530895
 20
-8.04755970561
 30
0.0
 11
1.354341779966
 21
-8.04755970561
 31
0.0
1001
TCAD
1000
TCW_CUSTOM_DATA
1002
{
1000
#$AUX@_ToolInfo Properties
1070
           8
1000
Insert^JLine^JPerpendicular@Line Perpendicular
1002
}
  0
LINE
  5
47
100
AcDbEntity
  8
Exterior View
370
           0
  6
Continuous
 62
           7
100
AcDbLine
 10
-0.158198970195
 20
-7.70055970561
 30
0.0
 11
1.345795441212
 21
-7.70055970561
 31
0.0
1001
TCAD
1000
TCW_CUSTOM_DATA
1002
{
1000
#$AUX@_ToolInfo Properties
1070
           8
1000
Insert^JLine^JPerpendicular@Line Perpendicular
1002
}
  0
LINE
  5
48
100
AcDbEntity
  8
Exterior View
370
           0
  6
Continuous
 62
           7
100
AcDbLine
 10
-0.149160047074
 20
-7.33355970561
 30
0.0
 11
1.336756518091
 21
-7.33355970561
 31
0.0
1001
TCAD
1000
TCW_CUSTOM_DATA
1002
{
1000
#$AUX@_ToolInfo Properties
1070
           8
1000
Insert^JLine^JPerpendicular@Line Perpendicular
1002
}
  0
LINE
  5
49
100
AcDbEntity
  8
Exterior View
370
           0
  6
Continuous
 62
           7
100
AcDbLine
 10
-0.174823692556
 20
-8.37555970561
 30
0.0
 11
1.362420163573
 21
-8.37555970561
 31
0.0
1001
TCAD
1000
TCW_CUSTOM_DATA
1002
{
1000
#$AUX@_ToolInfo Properties
1070
           8
1000
Insert^JLine^JPerpendicular@Line Perpendicular
1002
}
  0
LINE
  5
4A
100
AcDbEntity
  8
Exterior View
370
           0
  6
Continuous
 62
           7
100
AcDbLine
 10
-0.182434121015
 20
-8.68455970561
 30
0.0
 11
1.370030592032
 21
-8.68455970561
 31
0.0
1001
TCAD
1000
TCW_CUSTOM_DATA
1002
{
1000
#$AUX@_ToolInfo Properties
1070
           8
1000
Insert^JLine^JPerpendicular@Line Perpendicular
1002
}
  0
LINE
  5
4B
100
AcDbEntity
  8
Exterior View
370
           0
  6
Continuous
 62
           7
100
AcDbLine
 10
-0.189601223544
 20
-8.97555970561
 30
0.0
 11
1.377197694561
 21
-8.97555970561
 31
0.0
1001
TCAD
1000
TCW_CUSTOM_DATA
1002
{
1000
#$AUX@_ToolInfo Properties
1070
           8
1000
Insert^JLine^JPerpendicular@Line Perpendicular
1002
}
  0
LINE
  5
4C
100
AcDbEntity
  8
Exterior View
370
           0
  6
Continuous
 62
           7
100
AcDbLine
 10
-0.196398887799
 20
-9.25155970561
 30
0.0
 11
1.383995358816
 21
-9.25155970561
 31
0.0
1001
TCAD
1000
TCW_CUSTOM_DATA
1002
{
1000
#$AUX@_ToolInfo Properties
1070
           8
1000
Insert^JLine^JPerpendicular@Line Perpendicular
1002
}
  0
LINE
  5
4D
100
AcDbEntity
  8
Exterior View
370
           0
  6
Continuous
 62
           7
100
AcDbLine
 10
-0.20280248456
 20
-9.51155970561
 30
0.0
 11
1.390398955577
 21
-9.51155970561
 31
0.0
1001
TCAD
1000
TCW_CUSTOM_DATA
1002
{
1000
#$AUX@_ToolInfo Properties
1070
           8
1000
Insert^JLine^JPerpendicular@Line Perpendicular
1002
}
  0
LINE
  5
4E
100
AcDbEntity
  8
Exterior View
370
           0
  6
Continuous
 62
           7
100
AcDbLine
 10
-0.214525992478
 20
-9.98755970561
 30
0.0
 11
1.402122463494
 21
-9.98755970561
 31
0.0
1001
TCAD
1000
TCW_CUSTOM_DATA
1002
{
1000
#$AUX@_ToolInfo Properties
1070
           8
1000
Insert^JLine^JPerpendicular@Line Perpendicular
1002
}
  0
LINE
  5
4F
100
AcDbEntity
  8
Exterior View
370
           0
  6
Continuous
 62
           7
100
AcDbLine
 10
0.031298235508
 20
-0.00655970561
 30
0.0
 11
0.031298235508
 21
0.118449281154
 31
0.0
1001
TCAD
1000
TCW_CUSTOM_DATA
1002
{
1000
#$AUX@_ToolInfo Properties
1070
           8
1000
Insert^JLine^JPerpendicular@Line Perpendicular
1002
}
  0
LINE
  5
50
100
AcDbEntity
  8
Exterior View
370
           0
  6
Continuous
 62
           7
100
AcDbLine
 10
1.156298235508
 20
-0.00655970561
 30
0.0
 11
1.156298235508
 21
0.118449281154
 31
0.0
1001
TCAD
1000
TCW_CUSTOM_DATA
1002
{
1000
#$AUX@_ToolInfo Properties
1070
           8
1000
Insert^JLine^JPerpendicular@Line Perpendicular
1002
}
  0
LINE
  5
51
100
AcDbEntity
  8
Exterior View
370
           0
  6
Continuous
 62
           7
100
AcDbLine
 10
1.156298235508
 20
0.118449281154
 30
0.0
 11
0.031298235508
 21
0.118449281154
 31
0.0
1001
TCAD
1000
TCW_CUSTOM_DATA
1002
{
1000
#$AUX@_ToolInfo Properties
1070
           8
1000
Insert^JLine^JPerpendicular@Line Perpendicular
1002
}
  0
LINE
  5
52
100
AcDbEntity
  8
Exterior View
370
           0
  6
Continuous
 62
           7
100
AcDbLine
 10
-0.21808423236
 20
-10.132032008286
 30
0.0
 11
0.031298235508
 21
-0.00655970561
 31
0.0
1001
TCAD
1000
TCW_CUSTOM_DATA
1002
{
1000
#$AUX@_ToolInfo Properties
1070
           8
1000
Insert^JLine^JSingle@Line Single
1002
}
  0
LINE
  5
53
100
AcDbEntity
  8
Exterior View
370
           0
  6
Continuous
 62
           7
100
AcDbLine
 10
1.405680703377
 20
-10.132032008286
 30
0.0
 11
1.156298235508
 21
-0.00655970561
 31
0.0
1001
TCAD
1000
TCW_CUSTOM_DATA
1002
{
1000
#$AUX@_ToolInfo Properties
1070
           8
1000
Insert^JLine^JSingle@Line Single
1002
}
  0
LINE
  5
54
100
AcDbEntity
  8
Exterior View
370
           0
  6
Continuous
 62
           7
100
AcDbLine
 10
0.203173235508
 20
0.118449281154
 30
0.0
 11
0.203173235508
 21
-0.00655970561
 31
0.0
1001
TCAD
1000
TCW_CUSTOM_DATA
1002
{
1000
#$AUX@_ToolInfo Properties
1070
           8
1000
Insert^JLine^JPerpendicular@Line Perpendicular
1002
}
  0
LINE
  5
55
100
AcDbEntity
  8
Exterior View
370
           0
  6
Continuous
 62
           7
100
AcDbLine
 10
0.458448235508
 20
0.118449281154
 30
0.0
 11
0.458448235508
 21
-0.00655970561
 31
0.0
1001
TCAD
1000
TCW_CUSTOM_DATA
1002
{
1000
#$AUX@_ToolInfo Properties
1070
           8
1000
Insert^JLine^JPerpendicular@Line Perpendicular
1002
}
  0
LINE
  5
56
100
AcDbEntity
  8
Exterior View
370
           0
  6
Continuous
 62
           7
100
AcDbLine
 10
0.729248235508
 20
0.118449281154
 30
0.0
 11
0.729248235508
 21
-0.00655970561
 31
0.0
1001
TCAD
1000
TCW_CUSTOM_DATA
1002
{
1000
#$AUX@_ToolInfo Properties
1070
           8
1000
Insert^JLine^JPerpendicular@Line Perpendicular
1002
}
  0
LINE
  5
57
100
AcDbEntity
  8
Exterior View
370
           0
  6
Continuous
 62
           7
100
AcDbLine
 10
1.000048235508
 20
0.118449281154
 30
0.0
 11
1.000048235508
 21
-0.00655970561
 31
0.0
1001
TCAD
1000
TCW_CUSTOM_DATA
1002
{
1000
#$AUX@_ToolInfo Properties
1070
           8
1000
Insert^JLine^JPerpendicular@Line Perpendicular
1002
}
  0
CIRCLE
  5
58
100
AcDbEntity
  8
Exterior View
370
           0
  6
Continuous
 62
           7
100
AcDbCircle
 10
0.593805841731
 20
-3.17755970561
 30
0.0
 40
0.09375
1001
TCAD
1000
TCW_CUSTOM_DATA
1002
{
1000
#$AUX@_ToolInfo Properties
1070
           8
1000
Insert^JCircle^JCenterAndPoint@Circle CenterAndPoint
1002
}
  0
CIRCLE
  5
59
100
AcDbEntity
  8
Exterior View
370
           0
  6
Continuous
 62
           7
100
AcDbCircle
 10
0.59380203862
 20
-4.34605970561
 30
0.0
 40
0.09375
1001
TCAD
1000
TCW_CUSTOM_DATA
1002
{
1000
#$AUX@_ToolInfo Properties
1070
           8
1000
Insert^JCircle^JCenterAndPoint@Circle CenterAndPoint
1002
}
  0
CIRCLE
  5
5A
100
AcDbEntity
  8
Exterior View
370
           0
  6
Continuous
 62
           7
100
AcDbCircle
 10
0.59380203862
 20
-5.86305970561
 30
0.0
 40
0.09375
1001
TCAD
1000
TCW_CUSTOM_DATA
1002
{
1000
#$AUX@_ToolInfo Properties
1070
           8
1000
Insert^JCircle^JCenterAndPoint@Circle CenterAndPoint
1002
}
  0
ARC
  5
5B
100
AcDbEntity
  8
Exterior View
370
           0
  6
Continuous
 62
           7
100
AcDbCircle
 10
0.593798235508
 20
-4.849668365431
 30
0.0
 40
5.34439134018
100
AcDbArc
 50
-98.737803430299
 51
-81.262196569701
  0
POINT
  5
5C
100
AcDbEntity
  8
Exterior View
  6
Continuous
 62
           7
100
AcDbPoint
 10
-0.111043745286
 20
1.79311390045
 30
0.0
1001
TCAD
1000
TCW_CUSTOM_DATA
1002
{
1000
#$AUX@_ToolInfo Properties
1070
           8
1000
Insert^JPoint^JCross@Point Cross
1002
}
1000
TC25ExternalObject
1002
{
1000
TCW30POINT
1000

1070
           0
1071
        0
1040
1.0
1040
0.0
1000
Continuous
1000
Exterior View
1070
          21
1071
        1
1071
      242
1010
-0.111043745286
1020
1.79311390045
1030
0.0
1070
           3
1071
-2147483645
1070
           1
1000
#$AUX@_ToolInfo Properties
1070
           8
1000
Insert^JPoint^JCross@Point Cross
1000
$POINTSIZE
1070
           5
1040
0.25
1000
$POINTTYPE
1070
          18
1070
           3
1000
ExplodeScale
1070
           5
1040
1.0
1002
}
  0
ELLIPSE
  5
5D
100
AcDbEntity
  8
Exterior View
370
           0
  6
Continuous
 62
           7
 48
0.20000000298
100
AcDbEllipse
 10
-0.111043745286
 20
1.79311390045
 30
0.0
 11
0.1250000000000981
 21
0.0
 31
0.0
210
0.0
220
0.0
230
1.0
 40
0.965925826289
 41
-0.1673902011416726
 42
6.1157951060379139
1001
TCAD
1000
TCW_CUSTOM_DATA
1002
{
1000
#$AUX@_ToolInfo Properties
1070
           8
1000
Insert^JCircle^JCenterAndPoint@Circle CenterAndPoint
1002
}
  0
LINE
  5
5E
100
AcDbEntity
  8
Hidden
370
           0
  6
HIDDEN
 62
           7
 48
0.20000000298
100
AcDbLine
 10
-0.313388378665
 20
2.266967431053
 30
0.0
 11
0.241249526142
 21
2.176442892234
 31
0.0
1001
TCAD
1000
TCW_CUSTOM_DATA
1002
{
1000
#$AUX@_ToolInfo Properties
1070
           8
1000
Insert^JLine^JSingle@Line Single
1002
}
  0
LINE
  5
5F
100
AcDbEntity
  8
Hidden
370
           0
  6
HIDDEN
 62
           7
 48
0.20000000298
100
AcDbLine
 10
-0.38836269769
 20
1.838376169859
 30
0.0
 11
-0.313388378665
 21
2.266967431053
 31
0.0
1001
TCAD
1000
TCW_CUSTOM_DATA
1002
{
1000
#$AUX@_ToolInfo Properties
1070
           8
1000
Insert^JLine^JSingle@Line Single
1002
}
  0
ELLIPSE
  5
60
100
AcDbEntity
  8
Hidden
370
           0
  6
HIDDEN
 62
           7
 48
0.20000000298
100
AcDbEllipse
 10
0.225913593345
 20
1.545255531132
 30
0.0
 11
0.050000000000025
 21
0.0
 31
0.0
210
0.0
220
0.0
230
1.0
 40
0.965925826289
 41
-1.912719453136025
 42
4.3704658540435615
1001
TCAD
1000
TCW_CUSTOM_DATA
1002
{
1000
#$AUX@_ToolInfo Properties
1070
           8
1000
Insert^JCircle^JCenterAndPoint@Circle CenterAndPoint
1002
}
  0
ELLIPSE
  5
61
100
AcDbEntity
  8
Hidden
370
           0
  6
HIDDEN
 62
           7
 48
0.20000000298
100
AcDbEllipse
 10
0.225913593345
 20
1.545255531132
 30
0.0
 11
0.0843750000000664
 21
0.0
 31
0.0
210
0.0
220
0.0
230
1.0
 40
0.965925826289
 41
-1.7381865279364492
 42
0.6743403080429138
1001
TCAD
1000
TCW_CUSTOM_DATA
1002
{
1000
#$AUX@_ToolInfo Properties
1070
           8
1000
Insert^JArc^JCenterAndPoint@Arc CenterAndPoint
1002
}
  0
LINE
  5
62
100
AcDbEntity
  8
Hidden
370
           0
  6
HIDDEN
 62
           7
 48
0.20000000298
100
AcDbLine
 10
0.211855908527
 20
1.464894669659
 30
0.0
 11
-0.157902694677
 21
1.525244362204
 31
0.0
1001
TCAD
1000
TCW_CUSTOM_DATA
1002
{
1000
#$AUX@_ToolInfo Properties
1070
           8
1000
Insert^JLine^JSingle@Line Single
1002
}
  0
ELLIPSE
  5
63
100
AcDbEntity
  8
Hidden
370
           0
  6
HIDDEN
 62
           7
 48
0.20000000298
100
AcDbEllipse
 10
-0.111043745286
 20
1.79311390045
 30
0.0
 11
0.2812500000001963
 21
0.0
 31
0.0
210
0.0
220
0.0
230
1.0
 40
0.965925826289
 41
2.9742024524480426
 42
6.1157949702817778
  0
LINE
  5
64
100
AcDbEntity
  8
Hidden
370
           0
  6
HIDDEN
 62
           7
 48
0.20000000298
100
AcDbLine
 10
0.241249526142
 20
2.176442892234
 30
0.0
 11
0.166275200756
 21
1.747851594676
 31
0.0
1001
TCAD
1000
TCW_CUSTOM_DATA
1002
{
1000
#$AUX@_ToolInfo Properties
1070
           8
1000
Insert^JLine^JPerpendicular@Line Perpendicular
1002
}
  0
LINE
  5
65
100
AcDbEntity
  8
Hidden
370
           0
  6
HIDDEN
 62
           7
 48
0.20000000298
100
AcDbLine
 10
0.291820518018
 20
1.596142662694
 30
0.0
 11
0.166275200756
 21
1.747851594676
 31
0.0
1001
TCAD
1000
TCW_CUSTOM_DATA
1002
{
1000
#$AUX@_ToolInfo Properties
1070
           8
1000
Insert^JLine^JTanFromArc@Line TanFromArc
1002
}
  0
ELLIPSE
  5
66
100
AcDbEntity
  8
Exterior View
370
           0
  6
Continuous
 62
           7
100
AcDbEllipse
 10
-0.862379107161
 20
2.208600967458
 30
0.0
 11
0.3437500000002463
 21
0.0
 31
0.0
210
0.0
220
0.0
230
1.0
 40
0.965925826289
 41
1.4034060325954489
 42
4.5449987792429525
  0
ELLIPSE
  5
67
100
AcDbEntity
  8
Exterior View
370
           0
  6
Continuous
 62
           7
100
AcDbEllipse
 10
-0.868011739753
 20
1.995228852221
 30
0.0
 11
0.1250000000000893
 21
0.0
 31
0.0
210
0.0
220
0.0
230
1.0
 40
0.965925826289
 41
-1.7381865279366215
 42
-0.167390201141747
1001
TCAD
1000
TCW_CUSTOM_DATA
1002
{
1000
#$AUX@_ToolInfo Properties
1070
           8
1000
Insert^JArc^JTanToTwoEntities@Arc TanToTwoEntities
1002
}
  0
ELLIPSE
  5
68
100
AcDbEntity
  8
Exterior View
370
           0
  6
Continuous
 62
           7
100
AcDbEllipse
 10
-0.795120040701
 20
2.411914800604
 30
0.0
 11
0.1250000000000776
 21
0.0
 31
0.0
210
0.0
220
0.0
230
1.0
 40
0.965925826289
 41
-0.1673902011418048
 42
1.4034061256530428
1001
TCAD
1000
TCW_CUSTOM_DATA
1002
{
1000
#$AUX@_ToolInfo Properties
1070
           8
1000
Insert^JArc^JTanToTwoEntities@Arc TanToTwoEntities
1002
}
  0
LINE
  5
69
100
AcDbEntity
  8
Exterior View
370
           0
  6
Continuous
 62
           7
100
AcDbLine
 10
-0.888837923898
 20
1.876175721568
 30
0.0
 11
-0.919651156416
 21
1.881204865157
 31
0.0
  0
LINE
  5
6A
100
AcDbEntity
  8
Exterior View
370
           0
  6
Continuous
 62
           7
100
AcDbLine
 10
-0.671867172656
 20
2.391798238196
 30
0.0
 11
-0.744758872639
 21
1.975112284491
 31
0.0
1001
TCAD
1000
TCW_CUSTOM_DATA
1002
{
1000
#$AUX@_ToolInfo Properties
1070
           8
1000
Insert^JLine^JSingle@Line Single
1002
}
  0
LINE
  5
6B
100
AcDbEntity
  8
Hidden
370
           0
  6
HIDDEN
 62
           7
 48
0.20000000298
100
AcDbLine
 10
-0.359380619017
 20
2.004052441576
 30
0.0
 11
-0.406259625951
 21
2.011703740642
 31
0.0
  0
LINE
  5
6C
100
AcDbEntity
  8
Exterior View
370
           0
  6
Continuous
 62
           7
100
AcDbLine
 10
-0.406259625951
 20
2.011703740642
 30
0.0
 11
-0.729139222221
 21
2.064402134121
 31
0.0
  0
LINE
  5
6D
100
AcDbEntity
  8
Hidden
370
           0
  6
HIDDEN
 62
           7
 48
0.20000000298
100
AcDbLine
 10
-0.317728219558
 20
2.242158697794
 30
0.0
 11
-0.364550727119
 21
2.249800775385
 31
0.0
  0
LINE
  5
6E
100
AcDbEntity
  8
Exterior View
370
           0
  6
Continuous
 62
           7
100
AcDbLine
 10
-0.364550727119
 20
2.249800775385
 30
0.0
 11
-0.687486822763
 21
2.30250839034
 31
0.0
  0
POINT
  5
6F
100
AcDbEntity
  8
Exterior View
  6
Continuous
 62
           7
100
AcDbPoint
 10
0.064133535359
 20
2.979241832446
 30
0.0
1001
TCAD
1000
TCW_CUSTOM_DATA
1002
{
1000
#$AUX@_ToolInfo Properties
1070
           8
1000
Insert^JPoint^JCross@Point Cross
1002
}
1000
TC25ExternalObject
1002
{
1000
TCW30POINT
1000

1070
           0
1071
        0
1040
1.0
1040
0.0
1000
Continuous
1000
Exterior View
1070
          21
1071
        1
1071
      242
1010
0.064133535359
1020
2.979241832446
1030
0.0
1070
           3
1071
-2147483645
1070
           1
1000
#$AUX@_ToolInfo Properties
1070
           8
1000
Insert^JPoint^JCross@Point Cross
1000
$POINTSIZE
1070
           5
1040
0.25
1000
$POINTTYPE
1070
          18
1070
           3
1000
ExplodeScale
1070
           5
1040
1.0
1002
}
  0
ELLIPSE
  5
70
100
AcDbEntity
  8
Exterior View
370
           0
  6
Continuous
 62
           7
 48
0.20000000298
100
AcDbEllipse
 10
0.064133535359
 20
2.979241832446
 30
0.0
 11
0.1250000000005221
 21
0.0
 31
0.0
210
0.0
220
0.0
230
1.0
 40
0.965925826289
 41
-0.1160710430554789
 42
6.1671142641241072
1001
TCAD
1000
TCW_CUSTOM_DATA
1002
{
1000
#$AUX@_ToolInfo Properties
1070
           8
1000
Insert^JCircle^JCenterAndPoint@Circle CenterAndPoint
1002
}
  0
LINE
  5
71
100
AcDbEntity
  8
Hidden
370
           0
  6
HIDDEN
 62
           7
 48
0.20000000298
100
AcDbLine
 10
-0.163109256311
 20
3.442445593864
 30
0.0
 11
0.395605858894
 21
3.379521845932
 31
0.0
1001
TCAD
1000
TCW_CUSTOM_DATA
1002
{
1000
#$AUX@_ToolInfo Properties
1070
           8
1000
Insert^JLine^JSingle@Line Single
1002
}
  0
LINE
  5
72
100
AcDbEntity
  8
Hidden
370
           0
  6
HIDDEN
 62
           7
 48
0.20000000298
100
AcDbLine
 10
-0.215224022244
 20
3.010703706412
 30
0.0
 11
-0.163109256311
 21
3.442445593864
 31
0.0
1001
TCAD
1000
TCW_CUSTOM_DATA
1002
{
1000
#$AUX@_ToolInfo Properties
1070
           8
1000
Insert^JLine^JSingle@Line Single
1002
}
  0
ELLIPSE
  5
73
100
AcDbEntity
  8
Hidden
370
           0
  6
HIDDEN
 62
           7
 48
0.20000000298
100
AcDbEllipse
 10
0.413810068733
 20
2.748405591399
 30
0.0
 11
0.0500000000002345
 21
0.0
 31
0.0
210
0.0
220
0.0
230
1.0
 40
0.965925826288
 41
-1.8614002950499873
 42
4.4217850121295985
1001
TCAD
1000
TCW_CUSTOM_DATA
1002
{
1000
#$AUX@_ToolInfo Properties
1070
           8
1000
Insert^JCircle^JCenterAndPoint@Circle CenterAndPoint
1002
}
  0
ELLIPSE
  5
74
100
AcDbEntity
  8
Hidden
370
           0
  6
HIDDEN
 62
           7
 48
0.20000000298
100
AcDbEllipse
 10
0.413810068733
 20
2.748405591399
 30
0.0
 11
0.0843750000003332
 21
0.0
 31
0.0
210
0.0
220
0.0
230
1.0
 40
0.965925826289
 41
-1.686867369850513
 42
0.7256594661291635
1001
TCAD
1000
TCW_CUSTOM_DATA
1002
{
1000
#$AUX@_ToolInfo Properties
1070
           8
1000
Insert^JArc^JCenterAndPoint@Arc CenterAndPoint
1002
}
  0
LINE
  5
75
100
AcDbEntity
  8
Hidden
370
           0
  6
HIDDEN
 62
           7
 48
0.20000000298
100
AcDbLine
 10
0.404038550121
 20
2.667453987501
 30
0.0
 11
0.031561806651
 21
2.709403152789
 31
0.0
1001
TCAD
1000
TCW_CUSTOM_DATA
1002
{
1000
#$AUX@_ToolInfo Properties
1070
           8
1000
Insert^JLine^JSingle@Line Single
1002
}
  0
ELLIPSE
  5
76
100
AcDbEntity
  8
Hidden
370
           0
  6
HIDDEN
 62
           7
 48
0.20000000298
100
AcDbEllipse
 10
0.064133535359
 20
2.979241832446
 30
0.0
 11
0.2812500000011341
 21
0.0
 31
0.0
210
0.0
220
0.0
230
1.0
 40
0.965925826289
 41
3.0255216105343119
 42
6.1671141283680324
  0
LINE
  5
77
100
AcDbEntity
  8
Hidden
370
           0
  6
HIDDEN
 62
           7
 48
0.20000000298
100
AcDbLine
 10
0.395605858894
 20
3.379521845932
 30
0.0
 11
0.343491088539
 21
2.947779921848
 31
0.0
1001
TCAD
1000
TCW_CUSTOM_DATA
1002
{
1000
#$AUX@_ToolInfo Properties
1070
           8
1000
Insert^JLine^JPerpendicular@Line Perpendicular
1002
}
  0
LINE
  5
78
100
AcDbEntity
  8
Hidden
370
           0
  6
HIDDEN
 62
           7
 48
0.20000000298
100
AcDbLine
 10
0.476927802986
 20
2.802491333433
 30
0.0
 11
0.343491088539
 21
2.947779921848
 31
0.0
1001
TCAD
1000
TCW_CUSTOM_DATA
1002
{
1000
#$AUX@_ToolInfo Properties
1070
           8
1000
Insert^JLine^JTanFromArc@Line TanFromArc
1002
}
  0
ELLIPSE
  5
79
100
AcDbEntity
  8
Exterior View
370
           0
  6
Continuous
 62
           7
100
AcDbEllipse
 10
-0.708277596929
 20
3.356954170691
 30
0.0
 11
0.3437500000013891
 21
0.0
 31
0.0
210
0.0
220
0.0
230
1.0
 40
0.965925826289
 41
1.4547251906817078
 42
4.5963179373291512
  0
ELLIPSE
  5
7A
100
AcDbEntity
  8
Exterior View
370
           0
  6
Continuous
 62
           7
100
AcDbEllipse
 10
-0.702571435079
 20
3.143583878294
 30
0.0
 11
0.125000000000504
 21
0.0
 31
0.0
210
0.0
220
0.0
230
1.0
 40
0.965925826289
 41
-1.686867369850414
 42
-0.1160710430555578
1001
TCAD
1000
TCW_CUSTOM_DATA
1002
{
1000
#$AUX@_ToolInfo Properties
1070
           8
1000
Insert^JArc^JTanToTwoEntities@Arc TanToTwoEntities
1002
}
  0
ELLIPSE
  5
7B
100
AcDbEntity
  8
Exterior View
370
           0
  6
Continuous
 62
           7
100
AcDbEllipse
 10
-0.651904301533
 20
3.563332935539
 30
0.0
 11
0.1250000000005269
 21
0.0
 31
0.0
210
0.0
220
0.0
230
1.0
 40
0.965925826289
 41
-0.1160710430554959
 42
1.4547252837392732
1001
TCAD
1000
TCW_CUSTOM_DATA
1002
{
1000
#$AUX@_ToolInfo Properties
1070
           8
1000
Insert^JArc^JTanToTwoEntities@Arc TanToTwoEntities
1002
}
  0
LINE
  5
7C
100
AcDbEntity
  8
Exterior View
370
           0
  6
Continuous
 62
           7
100
AcDbLine
 10
-0.71704774325
 20
3.023655574456
 30
0.0
 11
-0.748087487571
 21
3.027151339998
 31
0.0
  0
LINE
  5
7D
100
AcDbEntity
  8
Exterior View
370
           0
  6
Continuous
 62
           7
100
AcDbLine
 10
-0.527745386828
 20
3.54934988223
 30
0.0
 11
-0.57841252102
 21
3.129600819624
 31
0.0
1001
TCAD
1000
TCW_CUSTOM_DATA
1002
{
1000
#$AUX@_ToolInfo Properties
1070
           8
1000
Insert^JLine^JSingle@Line Single
1002
}
  0
LINE
  5
7E
100
AcDbEntity
  8
Hidden
370
           0
  6
HIDDEN
 62
           7
 48
0.20000000298
100
AcDbLine
 10
-0.195078534216
 20
3.177597884463
 30
0.0
 11
-0.231848199449
 21
3.181738966535
 31
0.0
  0
LINE
  5
7F
100
AcDbEntity
  8
Exterior View
370
           0
  6
Continuous
 62
           7
100
AcDbLine
 10
-0.231848199449
 20
3.181738966535
 30
0.0
 11
-0.567555277686
 21
3.219547049751
 31
0.0
  0
LINE
  5
80
100
AcDbEntity
  8
Hidden
370
           0
  6
HIDDEN
 62
           7
 48
0.20000000298
100
AcDbLine
 10
-0.166125886476
 20
3.417454488603
 30
0.0
 11
-0.205458701699
 21
3.421884238368
 31
0.0
  0
LINE
  5
81
100
AcDbEntity
  8
Exterior View
370
           0
  6
Continuous
 62
           7
100
AcDbLine
 10
-0.205458701699
 20
3.421884238368
 30
0.0
 11
-0.538602629946
 21
3.459403653891
 31
0.0
  0
POINT
  5
82
100
AcDbEntity
  8
Exterior View
  6
Continuous
 62
           7
100
AcDbPoint
 10
1.298640216303
 20
1.79311390045
 30
0.0
1001
TCAD
1000
TCW_CUSTOM_DATA
1002
{
1000
#$AUX@_ToolInfo Properties
1070
           8
1000
Insert^JPoint^JCross@Point Cross
1002
}
1000
TC25ExternalObject
1002
{
1000
TCW30POINT
1000

1070
           0
1071
        0
1040
1.0
1040
0.0
1000
Continuous
1000
Exterior View
1070
          21
1071
        1
1071
      242
1010
1.298640216303
1020
1.79311390045
1030
0.0
1070
           3
1071
-2147483645
1070
           1
1000
#$AUX@_ToolInfo Properties
1070
           8
1000
Insert^JPoint^JCross@Point Cross
1000
$POINTSIZE
1070
           5
1040
0.25
1000
$POINTTYPE
1070
          18
1070
           3
1000
ExplodeScale
1070
           5
1040
1.0
1002
}
  0
ELLIPSE
  5
83
100
AcDbEntity
  8
Exterior View
370
           0
  6
Continuous
 62
           7
 48
0.20000000298
100
AcDbEllipse
 10
1.298640216303
 20
1.79311390045
 30
0.0
 11
0.1250000000001074
 21
0.0
 31
0.0
210
0.0
220
0.0
230
1.0
 40
0.965925826289
 41
-2.9742024524481101
 42
3.3089828547314761
1001
TCAD
1000
TCW_CUSTOM_DATA
1002
{
1000
#$AUX@_ToolInfo Properties
1070
           8
1000
Insert^JCircle^JCenterAndPoint@Circle CenterAndPoint
1002
}
  0
LINE
  5
84
100
AcDbEntity
  8
Hidden
370
           0
  6
HIDDEN
 62
           7
 48
0.20000000298
100
AcDbLine
 10
1.500984849682
 20
2.266967431053
 30
0.0
 11
0.946346944875
 21
2.176442892234
 31
0.0
1001
TCAD
1000
TCW_CUSTOM_DATA
1002
{
1000
#$AUX@_ToolInfo Properties
1070
           8
1000
Insert^JLine^JSingle@Line Single
1002
}
  0
LINE
  5
85
100
AcDbEntity
  8
Hidden
370
           0
  6
HIDDEN
 62
           7
 48
0.20000000298
100
AcDbLine
 10
1.575959168707
 20
1.838376169859
 30
0.0
 11
1.500984849682
 21
2.266967431053
 31
0.0
1001
TCAD
1000
TCW_CUSTOM_DATA
1002
{
1000
#$AUX@_ToolInfo Properties
1070
           8
1000
Insert^JLine^JSingle@Line Single
1002
}
  0
ELLIPSE
  5
86
100
AcDbEntity
  8
Hidden
370
           0
  6
HIDDEN
 62
           7
 48
0.20000000298
100
AcDbEllipse
 10
0.961682877672
 20
1.545255531132
 30
0.0
 11
0.0500000000000317
 21
0.0
 31
0.0
210
0.0
220
0.0
230
1.0
 40
0.965925826289
 41
-1.2288732004538119
 42
5.0543121067257744
1001
TCAD
1000
TCW_CUSTOM_DATA
1002
{
1000
#$AUX@_ToolInfo Properties
1070
           8
1000
Insert^JCircle^JCenterAndPoint@Circle CenterAndPoint
1002
}
  0
ELLIPSE
  5
87
100
AcDbEntity
  8
Hidden
370
           0
  6
HIDDEN
 62
           7
 48
0.20000000298
100
AcDbEllipse
 10
0.961682877672
 20
1.545255531132
 30
0.0
 11
0.0843750000000675
 21
0.0
 31
0.0
210
0.0
220
0.0
230
1.0
 40
0.965925826289
 41
2.4672523455469348
 42
4.8797791815264135
1001
TCAD
1000
TCW_CUSTOM_DATA
1002
{
1000
#$AUX@_ToolInfo Properties
1070
           8
1000
Insert^JArc^JCenterAndPoint@Arc CenterAndPoint
1002
}
  0
LINE
  5
88
100
AcDbEntity
  8
Hidden
370
           0
  6
HIDDEN
 62
           7
 48
0.20000000298
100
AcDbLine
 10
0.975740562489
 20
1.464894669659
 30
0.0
 11
1.345499165694
 21
1.525244362204
 31
0.0
1001
TCAD
1000
TCW_CUSTOM_DATA
1002
{
1000
#$AUX@_ToolInfo Properties
1070
           8
1000
Insert^JLine^JSingle@Line Single
1002
}
  0
ELLIPSE
  5
89
100
AcDbEntity
  8
Hidden
370
           0
  6
HIDDEN
 62
           7
 48
0.20000000298
100
AcDbEllipse
 10
1.298640216303
 20
1.79311390045
 30
0.0
 11
0.281250000000201
 21
0.0
 31
0.0
210
0.0
220
0.0
230
1.0
 40
0.965925826289
 41
-2.9742023166919611
 42
0.1673902011417872
  0
LINE
  5
8A
100
AcDbEntity
  8
Hidden
370
           0
  6
HIDDEN
 62
           7
 48
0.20000000298
100
AcDbLine
 10
0.946346944875
 20
2.176442892234
 30
0.0
 11
1.021321270261
 21
1.747851594676
 31
0.0
1001
TCAD
1000
TCW_CUSTOM_DATA
1002
{
1000
#$AUX@_ToolInfo Properties
1070
           8
1000
Insert^JLine^JPerpendicular@Line Perpendicular
1002
}
  0
LINE
  5
8B
100
AcDbEntity
  8
Hidden
370
           0
  6
HIDDEN
 62
           7
 48
0.20000000298
100
AcDbLine
 10
0.895775952999
 20
1.596142662694
 30
0.0
 11
1.021321270261
 21
1.747851594676
 31
0.0
1001
TCAD
1000
TCW_CUSTOM_DATA
1002
{
1000
#$AUX@_ToolInfo Properties
1070
           8
1000
Insert^JLine^JTanFromArc@Line TanFromArc
1002
}
  0
ELLIPSE
  5
8C
100
AcDbEntity
  8
Exterior View
370
           0
  6
Continuous
 62
           7
100
AcDbEllipse
 10
2.049975578177
 20
2.208600967458
 30
0.0
 11
0.3437500000002434
 21
0.0
 31
0.0
210
0.0
220
0.0
230
1.0
 40
0.965925826289
 41
-1.4034061256531472
 42
1.7381866209943793
  0
ELLIPSE
  5
8D
100
AcDbEntity
  8
Exterior View
370
           0
  6
Continuous
 62
           7
100
AcDbEllipse
 10
2.05560821077
 20
1.995228852221
 30
0.0
 11
0.1250000000000829
 21
0.0
 31
0.0
210
0.0
220
0.0
230
1.0
 40
0.965925826289
 41
-2.9742024524480266
 42
-1.4034061256531347
1001
TCAD
1000
TCW_CUSTOM_DATA
1002
{
1000
#$AUX@_ToolInfo Properties
1070
           8
1000
Insert^JArc^JTanToTwoEntities@Arc TanToTwoEntities
1002
}
  0
ELLIPSE
  5
8E
100
AcDbEntity
  8
Exterior View
370
           0
  6
Continuous
 62
           7
100
AcDbEllipse
 10
1.982716511718
 20
2.411914800604
 30
0.0
 11
0.1250000000000771
 21
0.0
 31
0.0
210
0.0
220
0.0
230
1.0
 40
0.965925826289
 41
1.7381865279367241
 42
3.3089828547316302
1001
TCAD
1000
TCW_CUSTOM_DATA
1002
{
1000
#$AUX@_ToolInfo Properties
1070
           8
1000
Insert^JArc^JTanToTwoEntities@Arc TanToTwoEntities
1002
}
  0
LINE
  5
8F
100
AcDbEntity
  8
Exterior View
370
           0
  6
Continuous
 62
           7
100
AcDbLine
 10
1.859463643673
 20
2.391798238196
 30
0.0
 11
1.932355343656
 21
1.975112284491
 31
0.0
1001
TCAD
1000
TCW_CUSTOM_DATA
1002
{
1000
#$AUX@_ToolInfo Properties
1070
           8
1000
Insert^JLine^JSingle@Line Single
1002
}
  0
LINE
  5
90
100
AcDbEntity
  8
Hidden
370
           0
  6
HIDDEN
 62
           7
 48
0.20000000298
100
AcDbLine
 10
1.546977090034
 20
2.004052441576
 30
0.0
 11
1.593856096968
 21
2.011703740642
 31
0.0
  0
LINE
  5
91
100
AcDbEntity
  8
Exterior View
370
           0
  6
Continuous
 62
           7
100
AcDbLine
 10
1.593856096968
 20
2.011703740642
 30
0.0
 11
1.916735693238
 21
2.064402134121
 31
0.0
  0
LINE
  5
92
100
AcDbEntity
  8
Hidden
370
           0
  6
HIDDEN
 62
           7
 48
0.20000000298
100
AcDbLine
 10
1.505324690575
 20
2.242158697794
 30
0.0
 11
1.552147198136
 21
2.249800775385
 31
0.0
  0
LINE
  5
93
100
AcDbEntity
  8
Exterior View
370
           0
  6
Continuous
 62
           7
100
AcDbLine
 10
1.552147198136
 20
2.249800775385
 30
0.0
 11
1.87508329378
 21
2.30250839034
 31
0.0
  0
POINT
  5
94
100
AcDbEntity
  8
Exterior View
  6
Continuous
 62
           7
100
AcDbPoint
 10
1.123462935658
 20
2.979241832446
 30
0.0
1001
TCAD
1000
TCW_CUSTOM_DATA
1002
{
1000
#$AUX@_ToolInfo Properties
1070
           8
1000
Insert^JPoint^JCross@Point Cross
1002
}
1000
TC25ExternalObject
1002
{
1000
TCW30POINT
1000

1070
           0
1071
        0
1040
1.0
1040
0.0
1000
Continuous
1000
Exterior View
1070
          21
1071
        1
1071
      242
1010
1.123462935658
1020
2.979241832446
1030
0.0
1070
           3
1071
-2147483645
1070
           1
1000
#$AUX@_ToolInfo Properties
1070
           8
1000
Insert^JPoint^JCross@Point Cross
1000
$POINTSIZE
1070
           5
1040
0.25
1000
$POINTTYPE
1070
          18
1070
           3
1000
ExplodeScale
1070
           5
1040
1.0
1002
}
  0
ELLIPSE
  5
95
100
AcDbEntity
  8
Exterior View
370
           0
  6
Continuous
 62
           7
 48
0.20000000298
100
AcDbEllipse
 10
1.123462935658
 20
2.979241832446
 30
0.0
 11
0.1250000000005221
 21
0.0
 31
0.0
210
0.0
220
0.0
230
1.0
 40
0.965925826289
 41
-3.0255216105343319
 42
3.2576636966452543
1001
TCAD
1000
TCW_CUSTOM_DATA
1002
{
1000
#$AUX@_ToolInfo Properties
1070
           8
1000
Insert^JCircle^JCenterAndPoint@Circle CenterAndPoint
1002
}
  0
LINE
  5
96
100
AcDbEntity
  8
Hidden
370
           0
  6
HIDDEN
 62
           7
 48
0.20000000298
100
AcDbLine
 10
1.350705727328
 20
3.442445593864
 30
0.0
 11
0.791990612123
 21
3.379521845932
 31
0.0
1001
TCAD
1000
TCW_CUSTOM_DATA
1002
{
1000
#$AUX@_ToolInfo Properties
1070
           8
1000
Insert^JLine^JSingle@Line Single
1002
}
  0
LINE
  5
97
100
AcDbEntity
  8
Hidden
370
           0
  6
HIDDEN
 62
           7
 48
0.20000000298
100
AcDbLine
 10
1.402820493261
 20
3.010703706412
 30
0.0
 11
1.350705727328
 21
3.442445593864
 31
0.0
1001
TCAD
1000
TCW_CUSTOM_DATA
1002
{
1000
#$AUX@_ToolInfo Properties
1070
           8
1000
Insert^JLine^JSingle@Line Single
1002
}
  0
ELLIPSE
  5
98
100
AcDbEntity
  8
Hidden
370
           0
  6
HIDDEN
 62
           7
 48
0.20000000298
100
AcDbEllipse
 10
0.773786402284
 20
2.748405591399
 30
0.0
 11
0.0500000000002257
 21
0.0
 31
0.0
210
0.0
220
0.0
230
1.0
 40
0.965925826289
 41
-1.280192358539904
 42
5.0029929486396822
1001
TCAD
1000
TCW_CUSTOM_DATA
1002
{
1000
#$AUX@_ToolInfo Properties
1070
           8
1000
Insert^JCircle^JCenterAndPoint@Circle CenterAndPoint
1002
}
  0
ELLIPSE
  5
99
100
AcDbEntity
  8
Hidden
370
           0
  6
HIDDEN
 62
           7
 48
0.20000000298
100
AcDbEllipse
 10
0.773786402284
 20
2.748405591399
 30
0.0
 11
0.0843750000003533
 21
0.0
 31
0.0
210
0.0
220
0.0
230
1.0
 40
0.965925826289
 41
2.4159331874606118
 42
4.8284600234402841
1001
TCAD
1000
TCW_CUSTOM_DATA
1002
{
1000
#$AUX@_ToolInfo Properties
1070
           8
1000
Insert^JArc^JCenterAndPoint@Arc CenterAndPoint
1002
}
  0
LINE
  5
9A
100
AcDbEntity
  8
Hidden
370
           0
  6
HIDDEN
 62
           7
 48
0.20000000298
100
AcDbLine
 10
0.783557920896
 20
2.667453987501
 30
0.0
 11
1.156034664366
 21
2.709403152789
 31
0.0
1001
TCAD
1000
TCW_CUSTOM_DATA
1002
{
1000
#$AUX@_ToolInfo Properties
1070
           8
1000
Insert^JLine^JSingle@Line Single
1002
}
  0
ELLIPSE
  5
9B
100
AcDbEntity
  8
Hidden
370
           0
  6
HIDDEN
 62
           7
 48
0.20000000298
100
AcDbEllipse
 10
1.123462935658
 20
2.979241832446
 30
0.0
 11
0.2812500000011333
 21
0.0
 31
0.0
210
0.0
220
0.0
230
1.0
 40
0.965925826289
 41
-3.0255214747782002
 42
0.1160710430555128
  0
LINE
  5
9C
100
AcDbEntity
  8
Hidden
370
           0
  6
HIDDEN
 62
           7
 48
0.20000000298
100
AcDbLine
 10
0.791990612123
 20
3.379521845932
 30
0.0
 11
0.844105382477
 21
2.947779921848
 31
0.0
1001
TCAD
1000
TCW_CUSTOM_DATA
1002
{
1000
#$AUX@_ToolInfo Properties
1070
           8
1000
Insert^JLine^JPerpendicular@Line Perpendicular
1002
}
  0
LINE
  5
9D
100
AcDbEntity
  8
Hidden
370
           0
  6
HIDDEN
 62
           7
 48
0.20000000298
100
AcDbLine
 10
0.710668668031
 20
2.802491333433
 30
0.0
 11
0.844105382477
 21
2.947779921848
 31
0.0
1001
TCAD
1000
TCW_CUSTOM_DATA
1002
{
1000
#$AUX@_ToolInfo Properties
1070
           8
1000
Insert^JLine^JTanFromArc@Line TanFromArc
1002
}
  0
ELLIPSE
  5
9E
100
AcDbEntity
  8
Exterior View
370
           0
  6
Continuous
 62
           7
100
AcDbEllipse
 10
1.895874067945
 20
3.356954170691
 30
0.0
 11
0.3437500000014013
 21
0.0
 31
0.0
210
0.0
220
0.0
230
1.0
 40
0.965925826289
 41
-1.454725283739321
 42
1.6868674629080758
  0
ELLIPSE
  5
9F
100
AcDbEntity
  8
Exterior View
370
           0
  6
Continuous
 62
           7
100
AcDbEllipse
 10
1.890167906096
 20
3.143583878294
 30
0.0
 11
0.1250000000004955
 21
0.0
 31
0.0
210
0.0
220
0.0
230
1.0
 40
0.965925826289
 41
-3.0255216105341773
 42
-1.454725283739313
1001
TCAD
1000
TCW_CUSTOM_DATA
1002
{
1000
#$AUX@_ToolInfo Properties
1070
           8
1000
Insert^JArc^JTanToTwoEntities@Arc TanToTwoEntities
1002
}
  0
ELLIPSE
  5
A0
100
AcDbEntity
  8
Exterior View
370
           0
  6
Continuous
 62
           7
100
AcDbEllipse
 10
1.83950077255
 20
3.563332935539
 30
0.0
 11
0.1250000000005167
 21
0.0
 31
0.0
210
0.0
220
0.0
230
1.0
 40
0.965925826289
 41
1.6868673698505576
 42
3.2576636966452872
1001
TCAD
1000
TCW_CUSTOM_DATA
1002
{
1000
#$AUX@_ToolInfo Properties
1070
           8
1000
Insert^JArc^JTanToTwoEntities@Arc TanToTwoEntities
1002
}
  0
LINE
  5
A1
100
AcDbEntity
  8
Exterior View
370
           0
  6
Continuous
 62
           7
100
AcDbLine
 10
1.904644214267
 20
3.023655574456
 30
0.0
 11
1.935683958588
 21
3.027151339998
 31
0.0
  0
LINE
  5
A2
100
AcDbEntity
  8
Exterior View
370
           0
  6
Continuous
 62
           7
100
AcDbLine
 10
1.715341857844
 20
3.54934988223
 30
0.0
 11
1.766008992037
 21
3.129600819624
 31
0.0
1001
TCAD
1000
TCW_CUSTOM_DATA
1002
{
1000
#$AUX@_ToolInfo Properties
1070
           8
1000
Insert^JLine^JSingle@Line Single
1002
}
  0
LINE
  5
A3
100
AcDbEntity
  8
Hidden
370
           0
  6
HIDDEN
 62
           7
 48
0.20000000298
100
AcDbLine
 10
1.382675005233
 20
3.177597884463
 30
0.0
 11
1.419444670466
 21
3.181738966535
 31
0.0
  0
LINE
  5
A4
100
AcDbEntity
  8
Exterior View
370
           0
  6
Continuous
 62
           7
100
AcDbLine
 10
1.419444670466
 20
3.181738966535
 30
0.0
 11
1.755151748703
 21
3.219547049751
 31
0.0
  0
LINE
  5
A5
100
AcDbEntity
  8
Hidden
370
           0
  6
HIDDEN
 62
           7
 48
0.20000000298
100
AcDbLine
 10
1.353722357493
 20
3.417454488603
 30
0.0
 11
1.393055172716
 21
3.421884238368
 31
0.0
  0
LINE
  5
A6
100
AcDbEntity
  8
Exterior View
370
           0
  6
Continuous
 62
           7
100
AcDbLine
 10
1.393055172716
 20
3.421884238368
 30
0.0
 11
1.726199100963
 21
3.459403653891
 31
0.0
  0
LINE
  5
A7
100
AcDbEntity
  8
Exterior View
370
           0
  6
Continuous
 62
           7
100
AcDbLine
 10
-0.668467674512
 20
3.686756997804
 30
0.0
 11
-0.637427977663
 21
3.683261237609
 31
0.0
1001
TCAD
1000
TCW_CUSTOM_DATA
1002
{
1000
#$AUX@_ToolInfo Properties
1070
           8
1000
Insert^JLine^JSingle@Line Single
1002
}
  0
LINE
  5
A8
100
AcDbEntity
  8
Exterior View
370
           0
  6
Continuous
 62
           7
100
AcDbLine
 10
-0.774293840972
 20
2.530967928713
 30
0.0
 11
-0.805107026364
 21
2.53599706461
 31
0.0
1001
TCAD
1000
TCW_CUSTOM_DATA
1002
{
1000
#$AUX@_ToolInfo Properties
1070
           8
1000
Insert^JLine^JSingle@Line Single
1002
}
  0
LINE
  5
A9
100
AcDbEntity
  8
Exterior View
370
           0
  6
Continuous
 62
           7
100
AcDbLine
 10
1.961890311989
 20
2.530967928713
 30
0.0
 11
1.992703497381
 21
2.53599706461
 31
0.0
1001
TCAD
1000
TCW_CUSTOM_DATA
1002
{
1000
#$AUX@_ToolInfo Properties
1070
           8
1000
Insert^JLine^JSingle@Line Single
1002
}
  0
LINE
  5
AA
100
AcDbEntity
  8
Exterior View
370
           0
  6
Continuous
 62
           7
100
AcDbLine
 10
2.076434410499
 20
1.876175724112
 30
0.0
 11
2.107247627433
 21
1.881204865157
 31
0.0
1001
TCAD
1000
TCW_CUSTOM_DATA
1002
{
1000
#$AUX@_ToolInfo Properties
1070
           8
1000
Insert^JLine^JSingle@Line Single
1002
}
  0
LINE
  5
AB
100
AcDbEntity
  8
Exterior View
370
           0
  6
Continuous
 62
           7
100
AcDbLine
 10
1.82502444868
 20
3.683261237609
 30
0.0
 11
1.856064145529
 21
3.686756997804
 31
0.0
1001
TCAD
1000
TCW_CUSTOM_DATA
1002
{
1000
#$AUX@_ToolInfo Properties
1070
           8
1000
Insert^JLine^JSingle@Line Single
1002
}
  0
LINE
  5
AC
100
AcDbEntity
  8
Exterior View
370
           0
  6
Continuous
 62
           7
100
AcDbLine
 10
0.203173235508
 20
0.118449281154
 30
0.0
 11
0.013224078133
 21
1.806163128038
 31
0.0
1001
TCAD
1000
TCW_CUSTOM_DATA
1002
{
1000
#$AUX@_ToolInfo Properties
1070
           8
1000
Insert^JLine^JTanToArc@Line TanToArc
1002
}
  0
LINE
  5
AD
100
AcDbEntity
  8
Exterior View
370
           0
  6
Continuous
 62
           7
100
AcDbLine
 10
0.458448235508
 20
0.118449281154
 30
0.0
 11
0.188621873012
 21
2.990155246491
 31
0.0
1001
TCAD
1000
TCW_CUSTOM_DATA
1002
{
1000
#$AUX@_ToolInfo Properties
1070
           8
1000
Insert^JLine^JTanToArc@Line TanToArc
1002
}
  0
LINE
  5
AE
100
AcDbEntity
  8
Exterior View
370
           0
  6
Continuous
 62
           7
100
AcDbLine
 10
0.729248235508
 20
0.118449281154
 30
0.0
 11
0.998974221145
 21
2.990151234908
 31
0.0
1001
TCAD
1000
TCW_CUSTOM_DATA
1002
{
1000
#$AUX@_ToolInfo Properties
1070
           8
1000
Insert^JLine^JTanToArc@Line TanToArc
1002
}
  0
LINE
  5
AF
100
AcDbEntity
  8
Exterior View
370
           0
  6
Continuous
 62
           7
100
AcDbLine
 10
1.000048235508
 20
0.118449281154
 30
0.0
 11
1.174257710937
 21
1.805100427334
 31
0.0
1001
TCAD
1000
TCW_CUSTOM_DATA
1002
{
1000
#$AUX@_ToolInfo Properties
1070
           8
1000
Insert^JLine^JTanToArc@Line TanToArc
1002
}
  0
ARC
  5
B0
100
AcDbEntity
  8
Exterior View
370
           0
  6
Continuous
 62
           7
100
AcDbCircle
 10
-0.085998788348
 20
-15.271446059986
 30
0.0
 40
2.62809873172
100
AcDbArc
 50
141.580794553137
 51
225.026966152591
1001
TCAD
1000
TCW_CUSTOM_DATA
1002
{
1000
#$AUX@_ToolInfo Properties
1070
           8
1000
Insert^JArc^JTriplePoint132@Arc TriplePoint132
1002
}
  0
ARC
  5
B1
100
AcDbEntity
  8
Exterior View
370
           0
  6
Continuous
 62
           7
100
AcDbCircle
 10
-2.742176036643
 20
-16.602709758207
 30
0.0
 40
1.074194926402
100
AcDbArc
 50
-28.088969660994
 51
35.506301212637
1001
TCAD
1000
TCW_CUSTOM_DATA
1002
{
1000
#$AUX@_ToolInfo Properties
1070
           8
1000
Insert^JArc^JTriplePoint132@Arc TriplePoint132
1002
}
  0
ARC
  5
B2
100
AcDbEntity
  8
Exterior View
370
           0
  6
Continuous
 62
           7
100
AcDbCircle
 10
-2.09610743374
 20
-13.677156222496
 30
0.0
 40
0.0625
100
AcDbArc
 50
20.654409670923
 51
141.580801842171
1001
TCAD
1000
TCW_CUSTOM_DATA
1002
{
1000
#$AUX@_ToolInfo Properties
1070
           8
1000
Insert^JArc^JTanToEntities@Arc TanToEntities
1002
}
  0
ARC
  5
B3
100
AcDbEntity
  8
Exterior View
370
           0
  6
Continuous
 62
           7
100
AcDbCircle
 10
-1.877210340059
 20
-17.064344459502
 30
0.0
 40
0.09375
100
AcDbArc
 50
-134.973033959871
 51
-28.088967562993
1001
TCAD
1000
TCW_CUSTOM_DATA
1002
{
1000
#$AUX@_ToolInfo Properties
1070
           8
1000
Insert^JArc^JTanToEntities@Arc TanToEntities
1002
}
  0
ARC
  5
B4
100
AcDbEntity
  8
Exterior View
370
           0
  6
Continuous
 62
           7
100
AcDbCircle
 10
-2.013460693521
 20
-0.030112804557
 30
0.0
 40
2.050148719278
100
AcDbArc
 50
4.155526641438
 51
43.697218462947
1001
TCAD
1000
TCW_CUSTOM_DATA
1002
{
1000
#$AUX@_ToolInfo Properties
1070
           8
1000
Insert^JArc^JTriplePoint132@Arc TriplePoint132
1002
}
  0
ARC
  5
B5
100
AcDbEntity
  8
Exterior View
370
           0
  6
Continuous
 62
           7
100
AcDbCircle
 10
3.201057164538
 20
-0.030112804557
 30
0.0
 40
2.050148719278
100
AcDbArc
 50
136.302781537053
 51
175.844473358562
1001
TCAD
1000
TCW_CUSTOM_DATA
1002
{
1000
#$AUX@_ToolInfo Properties
1070
           8
1000
Insert^JArc^JTriplePoint132@Arc TriplePoint132
1002
}
  0
ELLIPSE
  5
B6
100
AcDbEntity
  8
Exterior View
370
           0
  6
Continuous
 62
           7
100
AcDbEllipse
 10
-19.89120290713
 20
5.318808760935
 30
0.0
 11
19.783457622677084
 21
0.0
 31
0.0
210
0.0
220
0.0
230
1.0
 40
0.965925826289
 41
-0.2072745620501641
 42
-0.0700049122195691
1001
TCAD
1000
TCW_CUSTOM_DATA
1002
{
1000
#$AUX@_ToolInfo Properties
1070
           8
1000
Insert^JArc^JTriplePoint132@Arc TriplePoint132
1002
}
  0
ELLIPSE
  5
B7
100
AcDbEntity
  8
Exterior View
370
           0
  6
Continuous
 62
           7
100
AcDbEllipse
 10
21.078799378147
 20
5.318808760935
 30
0.0
 11
19.783457622677094
 21
0.0
 31
0.0
210
0.0
220
0.0
230
1.0
 40
0.965925826289
 41
-3.0715877413702262
 42
-2.9343180915396316
1001
TCAD
1000
TCW_CUSTOM_DATA
1002
{
1000
#$AUX@_ToolInfo Properties
1070
           8
1000
Insert^JArc^JTriplePoint132@Arc TriplePoint132
1002
}
  0
ELLIPSE
  5
B8
100
AcDbEntity
  8
Exterior View
370
           0
  6
Continuous
 62
           7
100
AcDbEllipse
 10
0.593798235509
 20
7.544004070757
 30
0.0
 11
3.7629983058791048
 21
0.0
 31
0.0
210
0.0
220
0.0
230
1.0
 40
0.965925826289
 41
-1.7714492041147278
 42
-1.3701434494752291
1001
TCAD
1000
TCW_CUSTOM_DATA
1002
{
1000
#$AUX@_ToolInfo Properties
1070
           8
1000
Insert^JArc^JTriplePoint132@Arc TriplePoint132
1002
}
  0
ARC
  5
B9
100
AcDbEntity
  8
Exterior View
370
           0
  6
Continuous
 62
           7
100
AcDbCircle
 10
-0.671141927851
 20
-14.927029600652
 30
0.0
 40
1.593137660144
100
AcDbArc
 50
151.593140251081
 51
221.315430926548
  0
ARC
  5
BA
100
AcDbEntity
  8
Exterior View
370
           0
  6
Continuous
 62
           7
100
AcDbCircle
 10
-2.618193450412
 20
-13.873961490451
 30
0.0
 40
0.620448135851
100
AcDbArc
 50
-28.406859692522
 51
20.654409670922
  0
ARC
  5
BB
100
AcDbEntity
  8
Exterior View
370
           0
  6
Continuous
 62
           7
100
AcDbCircle
 10
1.273595259365
 20
-15.271446059986
 30
0.0
 40
2.62809873172
100
AcDbArc
 50
-45.026966152587
 51
38.419205446867
1001
TCAD
1000
TCW_CUSTOM_DATA
1002
{
1000
#$AUX@_ToolInfo Properties
1070
           8
1000
Insert^JArc^JTriplePoint132@Arc TriplePoint132
1002
}
  0
ARC
  5
BC
100
AcDbEntity
  8
Exterior View
370
           0
  6
Continuous
 62
           7
100
AcDbCircle
 10
3.92977250766
 20
-16.602709758207
 30
0.0
 40
1.074194926402
100
AcDbArc
 50
144.493698787368
 51
208.088969660998
1001
TCAD
1000
TCW_CUSTOM_DATA
1002
{
1000
#$AUX@_ToolInfo Properties
1070
           8
1000
Insert^JArc^JTriplePoint132@Arc TriplePoint132
1002
}
  0
ARC
  5
BD
100
AcDbEntity
  8
Exterior View
370
           0
  6
Continuous
 62
           7
100
AcDbCircle
 10
3.283703904757
 20
-13.677156222496
 30
0.0
 40
0.0625
100
AcDbArc
 50
38.419198157834
 51
159.345590329082
1001
TCAD
1000
TCW_CUSTOM_DATA
1002
{
1000
#$AUX@_ToolInfo Properties
1070
           8
1000
Insert^JArc^JTanToEntities@Arc TanToEntities
1002
}
  0
ARC
  5
BE
100
AcDbEntity
  8
Exterior View
370
           0
  6
Continuous
 62
           7
100
AcDbCircle
 10
3.064806811076
 20
-17.064344459502
 30
0.0
 40
0.09375
100
AcDbArc
 50
-151.911032437002
 51
-45.026966040126
1001
TCAD
1000
TCW_CUSTOM_DATA
1002
{
1000
#$AUX@_ToolInfo Properties
1070
           8
1000
Insert^JArc^JTanToEntities@Arc TanToEntities
1002
}
  0
ARC
  5
BF
100
AcDbEntity
  8
Exterior View
370
           0
  6
Continuous
 62
           7
100
AcDbCircle
 10
1.858738398868
 20
-14.927029600652
 30
0.0
 40
1.593137660144
100
AcDbArc
 50
-41.315430926543
 51
28.406859748924
  0
ARC
  5
C0
100
AcDbEntity
  8
Exterior View
370
           0
  6
Continuous
 62
           7
100
AcDbCircle
 10
3.805789921429
 20
-13.873961490451
 30
0.0
 40
0.620448135851
100
AcDbArc
 50
159.345590329082
 51
208.406859692527
  0
CIRCLE
  5
C1
100
AcDbEntity
  8
Exterior View
370
           0
  6
Continuous
 62
           7
100
AcDbCircle
 10
0.593797876412
 20
-7.87405970561
 30
0.0
 40
0.09375
1001
TCAD
1000
TCW_CUSTOM_DATA
1002
{
1000
#$AUX@_ToolInfo Properties
1070
           8
1000
Insert^JCircle^JCenterAndPoint@Circle CenterAndPoint
1002
}
  0
LINE
  5
C2
100
AcDbEntity
  8
Exterior View
370
           0
  6
Continuous
 62
           7
100
AcDbLine
 10
8.954147112556
 20
-6.943550718849
 30
0.0
 11
9.312483663987
 21
-6.943550718849
 31
0.0
1001
TCAD
1000
TCW_CUSTOM_DATA
1002
{
1000
#$AUX@_ToolInfo Properties
1070
           8
1000
Insert^JLine^JPerpendicular@Line Perpendicular
1002
}
  0
LINE
  5
C3
100
AcDbEntity
  8
Exterior View
370
           0
  6
Continuous
 62
           7
100
AcDbLine
 10
10.0625
 20
-6.943550718846
 30
0.0
 11
10.421038727092
 21
-6.943550718846
 31
0.0
1001
TCAD
1000
TCW_CUSTOM_DATA
1002
{
1000
#$AUX@_ToolInfo Properties
1070
           8
1000
Insert^JLine^JPerpendicular@Line Perpendicular
1002
}
  0
LINE
  5
C4
100
AcDbEntity
  8
Exterior View
370
           0
  6
Continuous
 62
           7
100
AcDbLine
 10
9.125
 20
-0.006550718846
 30
0.0
 11
9.125
 21
0.118449281154
 31
0.0
1001
TCAD
1000
TCW_CUSTOM_DATA
1002
{
1000
#$AUX@_ToolInfo Properties
1070
           8
1000
Insert^JLine^JPerpendicular@Line Perpendicular
1002
}
  0
LINE
  5
C5
100
AcDbEntity
  8
Exterior View
370
           0
  6
Continuous
 62
           7
100
AcDbLine
 10
10.25
 20
-0.006550718846
 30
0.0
 11
10.25
 21
0.118449281154
 31
0.0
1001
TCAD
1000
TCW_CUSTOM_DATA
1002
{
1000
#$AUX@_ToolInfo Properties
1070
           8
1000
Insert^JLine^JPerpendicular@Line Perpendicular
1002
}
  0
LINE
  5
C6
100
AcDbEntity
  8
Exterior View
370
           0
  6
Continuous
 62
           7
100
AcDbLine
 10
8.954147112556
 20
-6.94355071902
 30
0.0
 11
9.125
 21
-0.006550718846
 31
0.0
1001
TCAD
1000
TCW_CUSTOM_DATA
1002
{
1000
#$AUX@_ToolInfo Properties
1070
           8
1000
Insert^JLine^JSingle@Line Single
1002
}
  0
LINE
  5
C7
100
AcDbEntity
  8
Exterior View
370
           0
  6
Continuous
 62
           7
100
AcDbLine
 10
10.420852887444
 20
-6.94355071902
 30
0.0
 11
10.25
 21
-0.006550718846
 31
0.0
1001
TCAD
1000
TCW_CUSTOM_DATA
1002
{
1000
#$AUX@_ToolInfo Properties
1070
           8
1000
Insert^JLine^JSingle@Line Single
1002
}
  0
ARC
  5
C8
100
AcDbEntity
  8
Exterior View
370
           0
  6
Continuous
 62
           7
100
AcDbCircle
 10
7.08024107097
 20
-0.030112804557
 30
0.0
 40
2.050148719278
100
AcDbArc
 50
4.155526641438
 51
43.697218462947
1001
TCAD
1000
TCW_CUSTOM_DATA
1002
{
1000
#$AUX@_ToolInfo Properties
1070
           8
1000
Insert^JArc^JTriplePoint132@Arc TriplePoint132
1002
}
  0
ARC
  5
C9
100
AcDbEntity
  8
Exterior View
370
           0
  6
Continuous
 62
           7
100
AcDbCircle
 10
0.268933287291
 20
3.909340411021
 30
0.0
 40
8.668872502555
100
AcDbArc
 50
-16.921091941192
 51
0.481248212352
1001
TCAD
1000
TCW_CUSTOM_DATA
1002
{
1000
#$AUX@_ToolInfo Properties
1070
           8
1000
Insert^JArc^JTriplePoint132@Arc TriplePoint132
1002
}
  0
ARC
  5
CA
100
AcDbEntity
  8
Exterior View
370
           0
  6
Continuous
 62
           7
100
AcDbCircle
 10
12.29475892903
 20
-0.030112804557
 30
0.0
 40
2.050148719278
100
AcDbArc
 50
136.302781537053
 51
175.844473358562
1001
TCAD
1000
TCW_CUSTOM_DATA
1002
{
1000
#$AUX@_ToolInfo Properties
1070
           8
1000
Insert^JArc^JTriplePoint132@Arc TriplePoint132
1002
}
  0
ARC
  5
CB
100
AcDbEntity
  8
Exterior View
370
           0
  6
Continuous
 62
           7
100
AcDbCircle
 10
19.106066712709
 20
3.909340411021
 30
0.0
 40
8.668872502555
100
AcDbArc
 50
179.518751787648
 51
196.921091941192
1001
TCAD
1000
TCW_CUSTOM_DATA
1002
{
1000
#$AUX@_ToolInfo Properties
1070
           8
1000
Insert^JArc^JTriplePoint132@Arc TriplePoint132
1002
}
  0
ARC
  5
CC
100
AcDbEntity
  8
Exterior View
370
           0
  6
Continuous
 62
           7
100
AcDbCircle
 10
9.6875
 20
8.759470160435
 30
0.0
 40
4.835831180267
100
AcDbArc
 50
-98.922147226978
 51
-81.077852773027
1001
TCAD
1000
TCW_CUSTOM_DATA
1002
{
1000
#$AUX@_ToolInfo Properties
1070
           8
1000
Insert^JArc^JTriplePoint132@Arc TriplePoint132
1002
}
  0
ARC
  5
CD
100
AcDbEntity
  8
Exterior View
370
           0
  6
Continuous
 62
           7
100
AcDbCircle
 10
7.116606427608
 20
-0.551636113718
 30
0.0
 40
2.417938725857
100
AcDbArc
 50
24.903721571587
 51
53.268753315782
1001
TCAD
1000
TCW_CUSTOM_DATA
1002
{
1000
#$AUX@_ToolInfo Properties
1070
           8
1000
Insert^JArc^JTriplePoint132@Arc TriplePoint132
1002
}
  0
ARC
  5
CE
100
AcDbEntity
  8
Exterior View
370
           0
  6
Continuous
 62
           7
100
AcDbCircle
 10
12.258762479151
 20
-0.551636113718
 30
0.0
 40
2.417938725857
100
AcDbArc
 50
126.731246684216
 51
155.096278428411
1001
TCAD
1000
TCW_CUSTOM_DATA
1002
{
1000
#$AUX@_ToolInfo Properties
1070
           8
1000
Insert^JArc^JTriplePoint132@Arc TriplePoint132
1002
}
  0
LINE
  5
CF
100
AcDbEntity
  8
Exterior View
370
           0
  6
Continuous
 62
           7
100
AcDbLine
 10
8.954147112557
 20
-31.062000000003
 30
0.0
 11
9.499984787556
 21
-31.062000000003
 31
0.0
1001
TCAD
1000
TCW_CUSTOM_DATA
1002
{
1000
#$AUX@_ToolInfo Properties
1070
           8
1000
Insert^JLine^JPerpendicular@Line Perpendicular
1002
}
  0
LINE
  5
D0
100
AcDbEntity
  8
Exterior View
370
           0
  6
Continuous
 62
           7
100
AcDbLine
 10
9.874984787556
 20
-31.062
 30
0.0
 11
10.420852887445
 21
-31.062
 31
0.0
1001
TCAD
1000
TCW_CUSTOM_DATA
1002
{
1000
#$AUX@_ToolInfo Properties
1070
           8
1000
Insert^JLine^JPerpendicular@Line Perpendicular
1002
}
  0
LINE
  5
D1
100
AcDbEntity
  8
Exterior View
370
           0
  6
Continuous
 62
           7
100
AcDbLine
 10
9.125000000001
 20
-24.125
 30
0.0
 11
9.125000000001
 21
-24.0
 31
0.0
1001
TCAD
1000
TCW_CUSTOM_DATA
1002
{
1000
#$AUX@_ToolInfo Properties
1070
           8
1000
Insert^JLine^JPerpendicular@Line Perpendicular
1002
}
  0
LINE
  5
D2
100
AcDbEntity
  8
Exterior View
370
           0
  6
Continuous
 62
           7
100
AcDbLine
 10
10.250000000001
 20
-24.125
 30
0.0
 11
10.250000000001
 21
-24.0
 31
0.0
1001
TCAD
1000
TCW_CUSTOM_DATA
1002
{
1000
#$AUX@_ToolInfo Properties
1070
           8
1000
Insert^JLine^JPerpendicular@Line Perpendicular
1002
}
  0
LINE
  5
D3
100
AcDbEntity
  8
Exterior View
370
           0
  6
Continuous
 62
           7
100
AcDbLine
 10
8.954147112557
 20
-31.062000000174
 30
0.0
 11
9.125000000001
 21
-24.125
 31
0.0
1001
TCAD
1000
TCW_CUSTOM_DATA
1002
{
1000
#$AUX@_ToolInfo Properties
1070
           8
1000
Insert^JLine^JSingle@Line Single
1002
}
  0
LINE
  5
D4
100
AcDbEntity
  8
Exterior View
370
           0
  6
Continuous
 62
           7
100
AcDbLine
 10
10.420852887445
 20
-31.062000000174
 30
0.0
 11
10.250000000001
 21
-24.125
 31
0.0
1001
TCAD
1000
TCW_CUSTOM_DATA
1002
{
1000
#$AUX@_ToolInfo Properties
1070
           8
1000
Insert^JLine^JSingle@Line Single
1002
}
  0
LINE
  5
D5
100
AcDbEntity
  8
Exterior View
370
           0
  6
Continuous
 62
           7
100
AcDbLine
 10
9.499984787556
 20
-31.062008986765
 30
0.0
 11
9.499984787556
 21
-32.562008986765
 31
0.0
1001
TCAD
1000
TCW_CUSTOM_DATA
1002
{
1000
#$AUX@_ToolInfo Properties
1070
           8
1000
Insert^JLine^JPerpendicular@Line Perpendicular
1002
}
  0
LINE
  5
D6
100
AcDbEntity
  8
Exterior View
370
           0
  6
Continuous
 62
           7
100
AcDbLine
 10
9.874984787556
 20
-32.562008986765
 30
0.0
 11
9.874984787556
 21
-31.062008986765
 31
0.0
1001
TCAD
1000
TCW_CUSTOM_DATA
1002
{
1000
#$AUX@_ToolInfo Properties
1070
           8
1000
Insert^JLine^JPerpendicular@Line Perpendicular
1002
}
  0
LINE
  5
D7
100
AcDbEntity
  8
Exterior View
370
           0
  6
Continuous
 62
           7
100
AcDbLine
 10
9.499984787556
 20
-32.562008986765
 30
0.0
 11
9.874984787556
 21
-32.562008986765
 31
0.0
1001
TCAD
1000
TCW_CUSTOM_DATA
1002
{
1000
#$AUX@_ToolInfo Properties
1070
           8
1000
Insert^JLine^JPerpendicular@Line Perpendicular
1002
}
  0
ARC
  5
D8
100
AcDbEntity
  8
Exterior View
370
           0
  6
Continuous
 62
           7
100
AcDbCircle
 10
7.116421974229
 20
-24.670078391348
 30
0.0
 40
2.417938725857
100
AcDbArc
 50
24.903721571587
 51
53.268753315782
1001
TCAD
1000
TCW_CUSTOM_DATA
1002
{
1000
#$AUX@_ToolInfo Properties
1070
           8
1000
Insert^JArc^JTriplePoint132@Arc TriplePoint132
1002
}
  0
ARC
  5
D9
100
AcDbEntity
  8
Exterior View
370
           0
  6
Continuous
 62
           7
100
AcDbCircle
 10
12.258578025773
 20
-24.670078391349
 30
0.0
 40
2.417938725857
100
AcDbArc
 50
126.731246684216
 51
155.096278428411
1001
TCAD
1000
TCW_CUSTOM_DATA
1002
{
1000
#$AUX@_ToolInfo Properties
1070
           8
1000
Insert^JArc^JTriplePoint132@Arc TriplePoint132
1002
}
  0
ARC
  5
DA
100
AcDbEntity
  8
Exterior View
370
           0
  6
Continuous
 62
           7
100
AcDbCircle
 10
9.69140625
 20
-38.144733749327
 30
0.0
 40
5.167276714091
100
AcDbArc
 50
-112.319195955455
 51
-90.0
  0
ARC
  5
DB
100
AcDbEntity
  8
Exterior View
370
           0
  6
Continuous
 62
           7
100
AcDbCircle
 10
0.499843047602
 20
-30.853786086431
 30
0.0
 40
8.456867859856
100
AcDbArc
 50
-36.022774820012
 51
-1.410865033215
  0
ARC
  5
DC
100
AcDbEntity
  8
Exterior View
370
           0
  6
Continuous
 62
           7
100
AcDbCircle
 10
17.813279472441
 20
-43.443251775925
 30
0.0
 40
12.949900396559
100
AcDbArc
 50
143.977225179988
 51
156.777162132943
  0
ARC
  5
DD
100
AcDbEntity
  8
Exterior View
370
           0
  6
Continuous
 62
           7
100
AcDbCircle
 10
9.129026616535
 20
-39.717078156837
 30
0.0
 40
3.5
100
AcDbArc
 50
156.777162084909
 51
246.422233002764
  0
ARC
  5
DE
100
AcDbEntity
  8
Exterior View
370
           0
  6
Continuous
 62
           7
100
AcDbCircle
 10
7.080241070971
 20
-24.148562085711
 30
0.0
 40
2.050148719278
100
AcDbArc
 50
4.155526641438
 51
43.697218462947
1001
TCAD
1000
TCW_CUSTOM_DATA
1002
{
1000
#$AUX@_ToolInfo Properties
1070
           8
1000
Insert^JArc^JTriplePoint132@Arc TriplePoint132
1002
}
  0
ARC
  5
DF
100
AcDbEntity
  8
Exterior View
370
           0
  6
Continuous
 62
           7
100
AcDbCircle
 10
12.294758929031
 20
-24.148562085711
 30
0.0
 40
2.050148719278
100
AcDbArc
 50
136.302781537053
 51
175.844473358562
1001
TCAD
1000
TCW_CUSTOM_DATA
1002
{
1000
#$AUX@_ToolInfo Properties
1070
           8
1000
Insert^JArc^JTriplePoint132@Arc TriplePoint132
1002
}
  0
ELLIPSE
  5
E0
100
AcDbEntity
  8
Exterior View
370
           0
  6
Continuous
 62
           7
100
AcDbEllipse
 10
-10.797501142638
 20
-18.799640520219
 30
0.0
 11
19.783457622677084
 21
0.0
 31
0.0
210
0.0
220
0.0
230
1.0
 40
0.965925826289
 41
-0.2072745620501641
 42
-0.0700049122195691
1001
TCAD
1000
TCW_CUSTOM_DATA
1002
{
1000
#$AUX@_ToolInfo Properties
1070
           8
1000
Insert^JArc^JTriplePoint132@Arc TriplePoint132
1002
}
  0
ELLIPSE
  5
E1
100
AcDbEntity
  8
Exterior View
370
           0
  6
Continuous
 62
           7
100
AcDbEllipse
 10
30.172501142639
 20
-18.799640520219
 30
0.0
 11
19.783457622677094
 21
0.0
 31
0.0
210
0.0
220
0.0
230
1.0
 40
0.965925826289
 41
-3.0715877413702262
 42
-2.9343180915396316
1001
TCAD
1000
TCW_CUSTOM_DATA
1002
{
1000
#$AUX@_ToolInfo Properties
1070
           8
1000
Insert^JArc^JTriplePoint132@Arc TriplePoint132
1002
}
  0
ELLIPSE
  5
E2
100
AcDbEntity
  8
Exterior View
370
           0
  6
Continuous
 62
           7
100
AcDbEllipse
 10
9.687500000001
 20
-16.574445210397
 30
0.0
 11
3.7629983058791048
 21
0.0
 31
0.0
210
0.0
220
0.0
230
1.0
 40
0.965925826289
 41
-1.7714492041147278
 42
-1.3701434494752291
1001
TCAD
1000
TCW_CUSTOM_DATA
1002
{
1000
#$AUX@_ToolInfo Properties
1070
           8
1000
Insert^JArc^JTriplePoint132@Arc TriplePoint132
1002
}
  0
LINE
  5
E3
100
AcDbEntity
  8
Exterior View
370
           0
  6
Continuous
 62
           7
100
AcDbLine
 10
10.941128684279
 20
-42.774510633794
 30
0.0
 11
10.941128684279
 21
-43.05346460676
 31
0.0
1001
TCAD
1000
TCW_CUSTOM_DATA
1002
{
1000
#$AUX@_ToolInfo Properties
1070
           8
1000
Insert^JLine^JPerpendicular@Line Perpendicular
1002
}
  0
ARC
  5
E4
100
AcDbEntity
  8
Exterior View
370
           0
  6
Continuous
 62
           7
100
AcDbCircle
 10
18.875150984109
 20
-30.853917630983
 30
0.0
 40
8.456867859856
100
AcDbArc
 50
-178.589955301078
 51
-143.978045514281
  0
ARC
  5
E5
100
AcDbEntity
  8
Exterior View
370
           0
  6
Continuous
 62
           7
100
AcDbCircle
 10
1.561534310937
 20
-43.443135433465
 30
0.0
 40
12.949900396559
100
AcDbArc
 50
23.222017532764
 51
36.021954485719
  0
ARC
  5
E6
100
AcDbEntity
  8
Exterior View
370
           0
  6
Continuous
 62
           7
100
AcDbCircle
 10
10.245840515572
 20
-39.717086151848
 30
0.0
 40
3.5
100
AcDbArc
 50
-66.423053337056
 51
23.222017580798
  0
ARC
  5
E7
100
AcDbEntity
  8
Exterior View
370
           0
  6
Continuous
 62
           7
100
AcDbCircle
 10
9.683489524992
 20
-38.144733911133
 30
0.0
 40
5.167276714091
100
AcDbArc
 50
-89.997657916764
 51
-67.67846196131
  0
LINE
  5
E8
100
AcDbEntity
  8
Exterior View
370
           0
  6
Continuous
 62
           7
100
AcDbLine
 10
0.031298235508
 20
-24.125008986764
 30
0.0
 11
0.031298235508
 21
-24.0
 31
0.0
1001
TCAD
1000
TCW_CUSTOM_DATA
1002
{
1000
#$AUX@_ToolInfo Properties
1070
           8
1000
Insert^JLine^JPerpendicular@Line Perpendicular
1002
}
  0
LINE
  5
E9
100
AcDbEntity
  8
Exterior View
370
           0
  6
Continuous
 62
           7
100
AcDbLine
 10
1.156298235508
 20
-24.125008986764
 30
0.0
 11
1.156298235508
 21
-24.0
 31
0.0
1001
TCAD
1000
TCW_CUSTOM_DATA
1002
{
1000
#$AUX@_ToolInfo Properties
1070
           8
1000
Insert^JLine^JPerpendicular@Line Perpendicular
1002
}
  0
LINE
  5
EA
100
AcDbEntity
  8
Exterior View
370
           0
  6
Continuous
 62
           7
100
AcDbLine
 10
1.156298235508
 20
-24.0
 30
0.0
 11
0.031298235508
 21
-24.0
 31
0.0
1001
TCAD
1000
TCW_CUSTOM_DATA
1002
{
1000
#$AUX@_ToolInfo Properties
1070
           8
1000
Insert^JLine^JPerpendicular@Line Perpendicular
1002
}
  0
LINE
  5
EB
100
AcDbEntity
  8
Exterior View
370
           0
  6
Continuous
 62
           7
100
AcDbLine
 10
-0.139554651936
 20
-31.062008986938
 30
0.0
 11
0.031298235508
 21
-24.125008986764
 31
0.0
1001
TCAD
1000
TCW_CUSTOM_DATA
1002
{
1000
#$AUX@_ToolInfo Properties
1070
           8
1000
Insert^JLine^JSingle@Line Single
1002
}
  0
LINE
  5
EC
100
AcDbEntity
  8
Exterior View
370
           0
  6
Continuous
 62
           7
100
AcDbLine
 10
1.327151122952
 20
-31.062008986938
 30
0.0
 11
1.156298235508
 21
-24.125008986764
 31
0.0
1001
TCAD
1000
TCW_CUSTOM_DATA
1002
{
1000
#$AUX@_ToolInfo Properties
1070
           8
1000
Insert^JLine^JSingle@Line Single
1002
}
  0
ARC
  5
ED
100
AcDbEntity
  8
Exterior View
370
           0
  6
Continuous
 62
           7
100
AcDbCircle
 10
-8.59385871689
 20
-30.853786086261
 30
0.0
 40
8.456867859856
100
AcDbArc
 50
-36.022774820012
 51
-1.410865033215
  0
ARC
  5
EE
100
AcDbEntity
  8
Exterior View
370
           0
  6
Continuous
 62
           7
100
AcDbCircle
 10
8.719577707948
 20
-43.443251775755
 30
0.0
 40
12.949900396559
100
AcDbArc
 50
143.977225179988
 51
156.777162132943
  0
ARC
  5
EF
100
AcDbEntity
  8
Exterior View
370
           0
  6
Continuous
 62
           7
100
AcDbCircle
 10
0.035324852043
 20
-39.717078156667
 30
0.0
 40
3.5
100
AcDbArc
 50
156.777162084909
 51
246.422233002764
  0
LINE
  5
F0
100
AcDbEntity
  8
Exterior View
370
           0
  6
Continuous
 62
           7
100
AcDbLine
 10
-0.139592116597
 20
-31.062008986938
 30
0.0
 11
1.327151122952
 21
-31.062008986938
 31
0.0
1001
TCAD
1000
TCW_CUSTOM_DATA
1002
{
1000
#$AUX@_ToolInfo Properties
1070
           8
1000
Insert^JLine^JPerpendicular@Line Perpendicular
1002
}
  0
LINE
  5
F1
100
AcDbEntity
  8
Exterior View
370
           0
  6
Continuous
 62
           7
100
AcDbLine
 10
0.406260770848
 20
-31.062008986938
 30
0.0
 11
0.406260770848
 21
-32.562008986938
 31
0.0
1001
TCAD
1000
TCW_CUSTOM_DATA
1002
{
1000
#$AUX@_ToolInfo Properties
1070
           8
1000
Insert^JLine^JPerpendicular@Line Perpendicular
1002
}
  0
LINE
  5
F2
100
AcDbEntity
  8
Exterior View
370
           0
  6
Continuous
 62
           7
100
AcDbLine
 10
0.781260770848
 20
-32.562008986938
 30
0.0
 11
0.781260770848
 21
-31.062008986938
 31
0.0
1001
TCAD
1000
TCW_CUSTOM_DATA
1002
{
1000
#$AUX@_ToolInfo Properties
1070
           8
1000
Insert^JLine^JPerpendicular@Line Perpendicular
1002
}
  0
LINE
  5
F3
100
AcDbEntity
  8
Exterior View
370
           0
  6
Continuous
 62
           7
100
AcDbLine
 10
0.406260770848
 20
-32.562008986938
 30
0.0
 11
0.781260770848
 21
-32.562008986938
 31
0.0
1001
TCAD
1000
TCW_CUSTOM_DATA
1002
{
1000
#$AUX@_ToolInfo Properties
1070
           8
1000
Insert^JLine^JPerpendicular@Line Perpendicular
1002
}
  0
ARC
  5
F4
100
AcDbEntity
  8
Exterior View
370
           0
  6
Continuous
 62
           7
100
AcDbCircle
 10
-2.013460693522
 20
-24.14856208571
 30
0.0
 40
2.050148719278
100
AcDbArc
 50
4.155526641438
 51
43.697218462947
1001
TCAD
1000
TCW_CUSTOM_DATA
1002
{
1000
#$AUX@_ToolInfo Properties
1070
           8
1000
Insert^JArc^JTriplePoint132@Arc TriplePoint132
1002
}
  0
ARC
  5
F5
100
AcDbEntity
  8
Exterior View
370
           0
  6
Continuous
 62
           7
100
AcDbCircle
 10
3.201057164538
 20
-24.14856208571
 30
0.0
 40
2.050148719278
100
AcDbArc
 50
136.302781537053
 51
175.844473358562
1001
TCAD
1000
TCW_CUSTOM_DATA
1002
{
1000
#$AUX@_ToolInfo Properties
1070
           8
1000
Insert^JArc^JTriplePoint132@Arc TriplePoint132
1002
}
  0
ELLIPSE
  5
F6
100
AcDbEntity
  8
Exterior View
370
           0
  6
Continuous
 62
           7
100
AcDbEllipse
 10
-19.891202907131
 20
-18.799640520218
 30
0.0
 11
19.783457622677084
 21
0.0
 31
0.0
210
0.0
220
0.0
230
1.0
 40
0.965925826289
 41
-0.2072745620501641
 42
-0.0700049122195691
1001
TCAD
1000
TCW_CUSTOM_DATA
1002
{
1000
#$AUX@_ToolInfo Properties
1070
           8
1000
Insert^JArc^JTriplePoint132@Arc TriplePoint132
1002
}
  0
ELLIPSE
  5
F7
100
AcDbEntity
  8
Exterior View
370
           0
  6
Continuous
 62
           7
100
AcDbEllipse
 10
21.078799378147
 20
-18.799640520218
 30
0.0
 11
19.783457622677094
 21
0.0
 31
0.0
210
0.0
220
0.0
230
1.0
 40
0.965925826289
 41
-3.0715877413702262
 42
-2.9343180915396316
1001
TCAD
1000
TCW_CUSTOM_DATA
1002
{
1000
#$AUX@_ToolInfo Properties
1070
           8
1000
Insert^JArc^JTriplePoint132@Arc TriplePoint132
1002
}
  0
ELLIPSE
  5
F8
100
AcDbEntity
  8
Exterior View
370
           0
  6
Continuous
 62
           7
100
AcDbEllipse
 10
0.593798235508
 20
-16.574445210396
 30
0.0
 11
3.7629983058791048
 21
0.0
 31
0.0
210
0.0
220
0.0
230
1.0
 40
0.965925826289
 41
-1.7714492041147278
 42
-1.3701434494752291
1001
TCAD
1000
TCW_CUSTOM_DATA
1002
{
1000
#$AUX@_ToolInfo Properties
1070
           8
1000
Insert^JArc^JTriplePoint132@Arc TriplePoint132
1002
}
  0
ARC
  5
F9
100
AcDbEntity
  8
Exterior View
370
           0
  6
Continuous
 62
           7
100
AcDbCircle
 10
-0.085998788348
 20
-39.389895341139
 30
0.0
 40
2.62809873172
100
AcDbArc
 50
141.580794553137
 51
225.026966152591
1001
TCAD
1000
TCW_CUSTOM_DATA
1002
{
1000
#$AUX@_ToolInfo Properties
1070
           8
1000
Insert^JArc^JTriplePoint132@Arc TriplePoint132
1002
}
  0
ARC
  5
FA
100
AcDbEntity
  8
Exterior View
370
           0
  6
Continuous
 62
           7
100
AcDbCircle
 10
-2.742176036643
 20
-40.72115903936
 30
0.0
 40
1.074194926402
100
AcDbArc
 50
-28.088969660994
 51
35.506301212637
1001
TCAD
1000
TCW_CUSTOM_DATA
1002
{
1000
#$AUX@_ToolInfo Properties
1070
           8
1000
Insert^JArc^JTriplePoint132@Arc TriplePoint132
1002
}
  0
ARC
  5
FB
100
AcDbEntity
  8
Exterior View
370
           0
  6
Continuous
 62
           7
100
AcDbCircle
 10
-2.09610743374
 20
-37.795605503649
 30
0.0
 40
0.0625
100
AcDbArc
 50
20.654409670927
 51
141.58080184217
1001
TCAD
1000
TCW_CUSTOM_DATA
1002
{
1000
#$AUX@_ToolInfo Properties
1070
           8
1000
Insert^JArc^JTanToEntities@Arc TanToEntities
1002
}
  0
ARC
  5
FC
100
AcDbEntity
  8
Exterior View
370
           0
  6
Continuous
 62
           7
100
AcDbCircle
 10
-1.877210340059
 20
-41.182793740655
 30
0.0
 40
0.09375
100
AcDbArc
 50
-134.973033959869
 51
-28.088967562996
1001
TCAD
1000
TCW_CUSTOM_DATA
1002
{
1000
#$AUX@_ToolInfo Properties
1070
           8
1000
Insert^JArc^JTanToEntities@Arc TanToEntities
1002
}
  0
ARC
  5
FD
100
AcDbEntity
  8
Exterior View
370
           0
  6
Continuous
 62
           7
100
AcDbCircle
 10
-0.671141927851
 20
-39.045478881805
 30
0.0
 40
1.593137660144
100
AcDbArc
 50
151.593140251081
 51
221.315430926548
  0
ARC
  5
FE
100
AcDbEntity
  8
Exterior View
370
           0
  6
Continuous
 62
           7
100
AcDbCircle
 10
-2.618193450412
 20
-37.992410771604
 30
0.0
 40
0.620448135851
100
AcDbArc
 50
-28.406859692522
 51
20.654409670923
  0
ARC
  5
FF
100
AcDbEntity
  8
Exterior View
370
           0
  6
Continuous
 62
           7
100
AcDbCircle
 10
1.273595259364
 20
-39.389895341139
 30
0.0
 40
2.62809873172
100
AcDbArc
 50
-45.026966152587
 51
38.419205446867
1001
TCAD
1000
TCW_CUSTOM_DATA
1002
{
1000
#$AUX@_ToolInfo Properties
1070
           8
1000
Insert^JArc^JTriplePoint132@Arc TriplePoint132
1002
}
  0
ARC
  5
100
100
AcDbEntity
  8
Exterior View
370
           0
  6
Continuous
 62
           7
100
AcDbCircle
 10
3.929772507659
 20
-40.72115903936
 30
0.0
 40
1.074194926402
100
AcDbArc
 50
144.493698787368
 51
208.088969660998
1001
TCAD
1000
TCW_CUSTOM_DATA
1002
{
1000
#$AUX@_ToolInfo Properties
1070
           8
1000
Insert^JArc^JTriplePoint132@Arc TriplePoint132
1002
}
  0
ARC
  5
101
100
AcDbEntity
  8
Exterior View
370
           0
  6
Continuous
 62
           7
100
AcDbCircle
 10
3.283703904756
 20
-37.795605503649
 30
0.0
 40
0.0625
100
AcDbArc
 50
38.419198157834
 51
159.345590329085
1001
TCAD
1000
TCW_CUSTOM_DATA
1002
{
1000
#$AUX@_ToolInfo Properties
1070
           8
1000
Insert^JArc^JTanToEntities@Arc TanToEntities
1002
}
  0
ARC
  5
102
100
AcDbEntity
  8
Exterior View
370
           0
  6
Continuous
 62
           7
100
AcDbCircle
 10
3.064806811075
 20
-41.182793740655
 30
0.0
 40
0.09375
100
AcDbArc
 50
-151.911032437001
 51
-45.026966040126
1001
TCAD
1000
TCW_CUSTOM_DATA
1002
{
1000
#$AUX@_ToolInfo Properties
1070
           8
1000
Insert^JArc^JTanToEntities@Arc TanToEntities
1002
}
  0
ARC
  5
103
100
AcDbEntity
  8
Exterior View
370
           0
  6
Continuous
 62
           7
100
AcDbCircle
 10
1.858738398867
 20
-39.045478881805
 30
0.0
 40
1.593137660144
100
AcDbArc
 50
-41.315430926543
 51
28.406859748924
  0
ARC
  5
104
100
AcDbEntity
  8
Exterior View
370
           0
  6
Continuous
 62
           7
100
AcDbCircle
 10
3.805789921428
 20
-37.992410771604
 30
0.0
 40
0.620448135851
100
AcDbArc
 50
159.345590329082
 51
208.406859692527
  0
LINE
  5
105
100
AcDbEntity
  8
Exterior View
370
           0
  6
Continuous
 62
           7
100
AcDbLine
 10
-5.999951764492
 20
-19.193561182093
 30
0.0
 11
-5.999951764492
 21
0.118440294389
 31
0.0
1001
TCAD
1000
TCW_CUSTOM_DATA
1002
{
1000
#$AUX@_ToolInfo Properties
1070
           8
1000
Insert^JLine^JPerpendicular@Line Perpendicular
1002
}
  0
LINE
  5
106
100
AcDbEntity
  8
Exterior View
370
           0
  6
Continuous
 62
           7
100
AcDbLine
 10
-7.874951764492
 20
-19.193561182093
 30
0.0
 11
-7.874951764492
 21
-6.414974796971
 31
0.0
  0
LINE
  5
107
100
AcDbEntity
  8
Exterior View
370
           0
  6
Continuous
 62
           7
100
AcDbLine
 10
-7.749951764492
 20
-6.943559705611
 30
0.0
 11
-5.999951764492
 21
-6.943559705611
 31
0.0
1001
TCAD
1000
TCW_CUSTOM_DATA
1002
{
1000
#$AUX@_ToolInfo Properties
1070
           8
1000
Insert^JLine^JPerpendicular@Line Perpendicular
1002
}
  0
LINE
  5
108
100
AcDbEntity
  8
Exterior View
370
           0
  6
Continuous
 62
           7
100
AcDbLine
 10
-7.03524106693
 20
3.982140083509
 30
0.0
 11
-5.999965828639
 21
0.118440294389
 31
0.0
1001
TCAD
1000
TCW_CUSTOM_DATA
1002
{
1000
#$AUX@_ToolInfo Properties
1070
           8
1000
Insert^JLine^JPerpendicular@Line Perpendicular
1002
}
  0
LINE
  5
109
100
AcDbEntity
  8
Exterior View
370
           0
  6
Continuous
 62
           7
100
AcDbLine
 10
-5.999951764492
 20
-0.006559705611
 30
0.0
 11
-5.796826764492
 21
-0.006559705611
 31
0.0
1001
TCAD
1000
TCW_CUSTOM_DATA
1002
{
1000
#$AUX@_ToolInfo Properties
1070
           8
1000
Insert^JLine^JPerpendicular@Line Perpendicular
1002
}
  0
LINE
  5
10A
100
AcDbEntity
  8
Exterior View
370
           0
  6
Continuous
 62
           7
100
AcDbLine
 10
-5.796826764492
 20
-0.006559705611
 30
0.0
 11
-5.796826764492
 21
-10.319059705611
 31
0.0
1001
TCAD
1000
TCW_CUSTOM_DATA
1002
{
1000
#$AUX@_ToolInfo Properties
1070
           8
1000
Insert^JLine^JPerpendicular@Line Perpendicular
1002
}
  0
LINE
  5
10B
100
AcDbEntity
  8
Exterior View
370
           0
  6
Continuous
 62
           7
100
AcDbLine
 10
-5.999951764492
 20
0.118440294389
 30
0.0
 11
-5.796826764492
 21
0.118440294389
 31
0.0
1001
TCAD
1000
TCW_CUSTOM_DATA
1002
{
1000
#$AUX@_ToolInfo Properties
1070
           8
1000
Insert^JLine^JSingle@Line Single
1002
}
  0
LINE
  5
10C
100
AcDbEntity
  8
Exterior View
370
           0
  6
Continuous
 62
           7
100
AcDbLine
 10
-5.734326764492
 20
-0.006559705611
 30
0.0
 11
-5.734326764492
 21
0.055940294389
 31
0.0
1001
TCAD
1000
TCW_CUSTOM_DATA
1002
{
1000
#$AUX@_ToolInfo Properties
1070
           8
1000
Insert^JLine^JSingle@Line Single
1002
}
  0
LINE
  5
10D
100
AcDbEntity
  8
Exterior View
370
           0
  6
Continuous
 62
           7
100
AcDbLine
 10
-5.796826764492
 20
-0.006559705611
 30
0.0
 11
-5.734326764492
 21
-0.006559705611
 31
0.0
1001
TCAD
1000
TCW_CUSTOM_DATA
1002
{
1000
#$AUX@_ToolInfo Properties
1070
           8
1000
Insert^JLine^JSingle@Line Single
1002
}
  0
LINE
  5
10E
100
AcDbEntity
  8
Exterior View
370
           0
  6
Continuous
 62
           7
100
AcDbLine
 10
-5.796826764492
 20
-0.759059705611
 30
0.0
 11
-5.787576764492
 21
-0.759059705611
 31
0.0
1001
TCAD
1000
TCW_CUSTOM_DATA
1002
{
1000
#$AUX@_ToolInfo Properties
1070
           8
1000
Insert^JLine^JPerpendicular@Line Perpendicular
1002
}
  0
LINE
  5
10F
100
AcDbEntity
  8
Exterior View
370
           0
  6
Continuous
 62
           7
100
AcDbLine
 10
-5.796826764492
 20
-0.812059705611
 30
0.0
 11
-5.787576764492
 21
-0.812059705611
 31
0.0
1001
TCAD
1000
TCW_CUSTOM_DATA
1002
{
1000
#$AUX@_ToolInfo Properties
1070
           8
1000
Insert^JLine^JPerpendicular@Line Perpendicular
1002
}
  0
ARC
  5
110
100
AcDbEntity
  8
Exterior View
370
           0
  6
Continuous
 62
           7
100
AcDbCircle
 10
-5.786354917645
 20
-0.785559705611
 30
0.0
 40
0.026528153153
100
AcDbArc
 50
-92.639891387827
 51
92.639891387827
1001
TCAD
1000
TCW_CUSTOM_DATA
1002
{
1000
#$AUX@_ToolInfo Properties
1070
           8
1000
Insert^JArc^JTriplePoint132@Arc TriplePoint132
1002
}
  0
LINE
  5
111
100
AcDbEntity
  8
Exterior View
370
           0
  6
Continuous
 62
           7
100
AcDbLine
 10
-5.796826764492
 20
-1.494059705611
 30
0.0
 11
-5.787576764492
 21
-1.494059705611
 31
0.0
1001
TCAD
1000
TCW_CUSTOM_DATA
1002
{
1000
#$AUX@_ToolInfo Properties
1070
           8
1000
Insert^JLine^JPerpendicular@Line Perpendicular
1002
}
  0
LINE
  5
112
100
AcDbEntity
  8
Exterior View
370
           0
  6
Continuous
 62
           7
100
AcDbLine
 10
-5.796826764492
 20
-1.547059705611
 30
0.0
 11
-5.787576764492
 21
-1.547059705611
 31
0.0
1001
TCAD
1000
TCW_CUSTOM_DATA
1002
{
1000
#$AUX@_ToolInfo Properties
1070
           8
1000
Insert^JLine^JPerpendicular@Line Perpendicular
1002
}
  0
ARC
  5
113
100
AcDbEntity
  8
Exterior View
370
           0
  6
Continuous
 62
           7
100
AcDbCircle
 10
-5.786354917645
 20
-1.520559705611
 30
0.0
 40
0.026528153153
100
AcDbArc
 50
-92.639891387827
 51
92.639891387827
1001
TCAD
1000
TCW_CUSTOM_DATA
1002
{
1000
#$AUX@_ToolInfo Properties
1070
           8
1000
Insert^JArc^JTriplePoint132@Arc TriplePoint132
1002
}
  0
LINE
  5
114
100
AcDbEntity
  8
Exterior View
370
           0
  6
Continuous
 62
           7
100
AcDbLine
 10
-5.796826764492
 20
-2.188059705611
 30
0.0
 11
-5.787576764492
 21
-2.188059705611
 31
0.0
1001
TCAD
1000
TCW_CUSTOM_DATA
1002
{
1000
#$AUX@_ToolInfo Properties
1070
           8
1000
Insert^JLine^JPerpendicular@Line Perpendicular
1002
}
  0
LINE
  5
115
100
AcDbEntity
  8
Exterior View
370
           0
  6
Continuous
 62
           7
100
AcDbLine
 10
-5.796826764492
 20
-2.241059705611
 30
0.0
 11
-5.787576764492
 21
-2.241059705611
 31
0.0
1001
TCAD
1000
TCW_CUSTOM_DATA
1002
{
1000
#$AUX@_ToolInfo Properties
1070
           8
1000
Insert^JLine^JPerpendicular@Line Perpendicular
1002
}
  0
ARC
  5
116
100
AcDbEntity
  8
Exterior View
370
           0
  6
Continuous
 62
           7
100
AcDbCircle
 10
-5.786354917645
 20
-2.214559705611
 30
0.0
 40
0.026528153153
100
AcDbArc
 50
-92.639891387827
 51
92.639891387827
1001
TCAD
1000
TCW_CUSTOM_DATA
1002
{
1000
#$AUX@_ToolInfo Properties
1070
           8
1000
Insert^JArc^JTriplePoint132@Arc TriplePoint132
1002
}
  0
LINE
  5
117
100
AcDbEntity
  8
Exterior View
370
           0
  6
Continuous
 62
           7
100
AcDbLine
 10
-5.796826764492
 20
-2.842059705611
 30
0.0
 11
-5.787576764492
 21
-2.842059705611
 31
0.0
1001
TCAD
1000
TCW_CUSTOM_DATA
1002
{
1000
#$AUX@_ToolInfo Properties
1070
           8
1000
Insert^JLine^JPerpendicular@Line Perpendicular
1002
}
  0
LINE
  5
118
100
AcDbEntity
  8
Exterior View
370
           0
  6
Continuous
 62
           7
100
AcDbLine
 10
-5.796826764492
 20
-2.895059705611
 30
0.0
 11
-5.787576764492
 21
-2.895059705611
 31
0.0
1001
TCAD
1000
TCW_CUSTOM_DATA
1002
{
1000
#$AUX@_ToolInfo Properties
1070
           8
1000
Insert^JLine^JPerpendicular@Line Perpendicular
1002
}
  0
ARC
  5
119
100
AcDbEntity
  8
Exterior View
370
           0
  6
Continuous
 62
           7
100
AcDbCircle
 10
-5.786354917645
 20
-2.868559705611
 30
0.0
 40
0.026528153153
100
AcDbArc
 50
-92.639891387827
 51
92.639891387827
1001
TCAD
1000
TCW_CUSTOM_DATA
1002
{
1000
#$AUX@_ToolInfo Properties
1070
           8
1000
Insert^JArc^JTriplePoint132@Arc TriplePoint132
1002
}
  0
LINE
  5
11A
100
AcDbEntity
  8
Exterior View
370
           0
  6
Continuous
 62
           7
100
AcDbLine
 10
-5.796826764492
 20
-3.460059705611
 30
0.0
 11
-5.787576764492
 21
-3.460059705611
 31
0.0
1001
TCAD
1000
TCW_CUSTOM_DATA
1002
{
1000
#$AUX@_ToolInfo Properties
1070
           8
1000
Insert^JLine^JPerpendicular@Line Perpendicular
1002
}
  0
LINE
  5
11B
100
AcDbEntity
  8
Exterior View
370
           0
  6
Continuous
 62
           7
100
AcDbLine
 10
-5.796826764492
 20
-3.513059705611
 30
0.0
 11
-5.787576764492
 21
-3.513059705611
 31
0.0
1001
TCAD
1000
TCW_CUSTOM_DATA
1002
{
1000
#$AUX@_ToolInfo Properties
1070
           8
1000
Insert^JLine^JPerpendicular@Line Perpendicular
1002
}
  0
ARC
  5
11C
100
AcDbEntity
  8
Exterior View
370
           0
  6
Continuous
 62
           7
100
AcDbCircle
 10
-5.786354917645
 20
-3.486559705611
 30
0.0
 40
0.026528153153
100
AcDbArc
 50
-92.639891387827
 51
92.639891387826
1001
TCAD
1000
TCW_CUSTOM_DATA
1002
{
1000
#$AUX@_ToolInfo Properties
1070
           8
1000
Insert^JArc^JTriplePoint132@Arc TriplePoint132
1002
}
  0
LINE
  5
11D
100
AcDbEntity
  8
Exterior View
370
           0
  6
Continuous
 62
           7
100
AcDbLine
 10
-5.796826764492
 20
-4.044059705611
 30
0.0
 11
-5.787576764492
 21
-4.044059705611
 31
0.0
1001
TCAD
1000
TCW_CUSTOM_DATA
1002
{
1000
#$AUX@_ToolInfo Properties
1070
           8
1000
Insert^JLine^JPerpendicular@Line Perpendicular
1002
}
  0
LINE
  5
11E
100
AcDbEntity
  8
Exterior View
370
           0
  6
Continuous
 62
           7
100
AcDbLine
 10
-5.796826764492
 20
-4.097059705611
 30
0.0
 11
-5.787576764492
 21
-4.097059705611
 31
0.0
1001
TCAD
1000
TCW_CUSTOM_DATA
1002
{
1000
#$AUX@_ToolInfo Properties
1070
           8
1000
Insert^JLine^JPerpendicular@Line Perpendicular
1002
}
  0
ARC
  5
11F
100
AcDbEntity
  8
Exterior View
370
           0
  6
Continuous
 62
           7
100
AcDbCircle
 10
-5.786354917645
 20
-4.070559705611
 30
0.0
 40
0.026528153153
100
AcDbArc
 50
-92.639891387827
 51
92.639891387827
1001
TCAD
1000
TCW_CUSTOM_DATA
1002
{
1000
#$AUX@_ToolInfo Properties
1070
           8
1000
Insert^JArc^JTriplePoint132@Arc TriplePoint132
1002
}
  0
LINE
  5
120
100
AcDbEntity
  8
Exterior View
370
           0
  6
Continuous
 62
           7
100
AcDbLine
 10
-5.796826764492
 20
-4.595059705611
 30
0.0
 11
-5.787576764492
 21
-4.595059705611
 31
0.0
1001
TCAD
1000
TCW_CUSTOM_DATA
1002
{
1000
#$AUX@_ToolInfo Properties
1070
           8
1000
Insert^JLine^JPerpendicular@Line Perpendicular
1002
}
  0
LINE
  5
121
100
AcDbEntity
  8
Exterior View
370
           0
  6
Continuous
 62
           7
100
AcDbLine
 10
-5.796826764492
 20
-4.648059705611
 30
0.0
 11
-5.787576764492
 21
-4.648059705611
 31
0.0
1001
TCAD
1000
TCW_CUSTOM_DATA
1002
{
1000
#$AUX@_ToolInfo Properties
1070
           8
1000
Insert^JLine^JPerpendicular@Line Perpendicular
1002
}
  0
ARC
  5
122
100
AcDbEntity
  8
Exterior View
370
           0
  6
Continuous
 62
           7
100
AcDbCircle
 10
-5.786354917645
 20
-4.621559705611
 30
0.0
 40
0.026528153153
100
AcDbArc
 50
-92.639891387827
 51
92.639891387826
1001
TCAD
1000
TCW_CUSTOM_DATA
1002
{
1000
#$AUX@_ToolInfo Properties
1070
           8
1000
Insert^JArc^JTriplePoint132@Arc TriplePoint132
1002
}
  0
LINE
  5
123
100
AcDbEntity
  8
Exterior View
370
           0
  6
Continuous
 62
           7
100
AcDbLine
 10
-5.796826764492
 20
-5.114059705611
 30
0.0
 11
-5.787576764492
 21
-5.114059705611
 31
0.0
1001
TCAD
1000
TCW_CUSTOM_DATA
1002
{
1000
#$AUX@_ToolInfo Properties
1070
           8
1000
Insert^JLine^JPerpendicular@Line Perpendicular
1002
}
  0
LINE
  5
124
100
AcDbEntity
  8
Exterior View
370
           0
  6
Continuous
 62
           7
100
AcDbLine
 10
-5.796826764492
 20
-5.167059705611
 30
0.0
 11
-5.787576764492
 21
-5.167059705611
 31
0.0
1001
TCAD
1000
TCW_CUSTOM_DATA
1002
{
1000
#$AUX@_ToolInfo Properties
1070
           8
1000
Insert^JLine^JPerpendicular@Line Perpendicular
1002
}
  0
ARC
  5
125
100
AcDbEntity
  8
Exterior View
370
           0
  6
Continuous
 62
           7
100
AcDbCircle
 10
-5.786354917645
 20
-5.140559705611
 30
0.0
 40
0.026528153153
100
AcDbArc
 50
-92.639891387827
 51
92.639891387827
1001
TCAD
1000
TCW_CUSTOM_DATA
1002
{
1000
#$AUX@_ToolInfo Properties
1070
           8
1000
Insert^JArc^JTriplePoint132@Arc TriplePoint132
1002
}
  0
LINE
  5
126
100
AcDbEntity
  8
Exterior View
370
           0
  6
Continuous
 62
           7
100
AcDbLine
 10
-5.796826764492
 20
-5.605059705611
 30
0.0
 11
-5.787576764492
 21
-5.605059705611
 31
0.0
1001
TCAD
1000
TCW_CUSTOM_DATA
1002
{
1000
#$AUX@_ToolInfo Properties
1070
           8
1000
Insert^JLine^JPerpendicular@Line Perpendicular
1002
}
  0
LINE
  5
127
100
AcDbEntity
  8
Exterior View
370
           0
  6
Continuous
 62
           7
100
AcDbLine
 10
-5.796826764492
 20
-5.658059705611
 30
0.0
 11
-5.787576764492
 21
-5.658059705611
 31
0.0
1001
TCAD
1000
TCW_CUSTOM_DATA
1002
{
1000
#$AUX@_ToolInfo Properties
1070
           8
1000
Insert^JLine^JPerpendicular@Line Perpendicular
1002
}
  0
ARC
  5
128
100
AcDbEntity
  8
Exterior View
370
           0
  6
Continuous
 62
           7
100
AcDbCircle
 10
-5.786354917645
 20
-5.631559705611
 30
0.0
 40
0.026528153153
100
AcDbArc
 50
-92.639891387827
 51
92.639891387827
1001
TCAD
1000
TCW_CUSTOM_DATA
1002
{
1000
#$AUX@_ToolInfo Properties
1070
           8
1000
Insert^JArc^JTriplePoint132@Arc TriplePoint132
1002
}
  0
LINE
  5
129
100
AcDbEntity
  8
Exterior View
370
           0
  6
Continuous
 62
           7
100
AcDbLine
 10
-5.796826764492
 20
-6.068059705611
 30
0.0
 11
-5.787576764492
 21
-6.068059705611
 31
0.0
1001
TCAD
1000
TCW_CUSTOM_DATA
1002
{
1000
#$AUX@_ToolInfo Properties
1070
           8
1000
Insert^JLine^JPerpendicular@Line Perpendicular
1002
}
  0
LINE
  5
12A
100
AcDbEntity
  8
Exterior View
370
           0
  6
Continuous
 62
           7
100
AcDbLine
 10
-5.796826764492
 20
-6.121059705611
 30
0.0
 11
-5.787576764492
 21
-6.121059705611
 31
0.0
1001
TCAD
1000
TCW_CUSTOM_DATA
1002
{
1000
#$AUX@_ToolInfo Properties
1070
           8
1000
Insert^JLine^JPerpendicular@Line Perpendicular
1002
}
  0
ARC
  5
12B
100
AcDbEntity
  8
Exterior View
370
           0
  6
Continuous
 62
           7
100
AcDbCircle
 10
-5.786354917645
 20
-6.094559705611
 30
0.0
 40
0.026528153153
100
AcDbArc
 50
-92.639891387842
 51
92.639891387842
1001
TCAD
1000
TCW_CUSTOM_DATA
1002
{
1000
#$AUX@_ToolInfo Properties
1070
           8
1000
Insert^JArc^JTriplePoint132@Arc TriplePoint132
1002
}
  0
LINE
  5
12C
100
AcDbEntity
  8
Exterior View
370
           0
  6
Continuous
 62
           7
100
AcDbLine
 10
-5.796826764492
 20
-6.505059705611
 30
0.0
 11
-5.787576764492
 21
-6.505059705611
 31
0.0
1001
TCAD
1000
TCW_CUSTOM_DATA
1002
{
1000
#$AUX@_ToolInfo Properties
1070
           8
1000
Insert^JLine^JPerpendicular@Line Perpendicular
1002
}
  0
LINE
  5
12D
100
AcDbEntity
  8
Exterior View
370
           0
  6
Continuous
 62
           7
100
AcDbLine
 10
-5.796826764492
 20
-6.558059705611
 30
0.0
 11
-5.787576764492
 21
-6.558059705611
 31
0.0
1001
TCAD
1000
TCW_CUSTOM_DATA
1002
{
1000
#$AUX@_ToolInfo Properties
1070
           8
1000
Insert^JLine^JPerpendicular@Line Perpendicular
1002
}
  0
ARC
  5
12E
100
AcDbEntity
  8
Exterior View
370
           0
  6
Continuous
 62
           7
100
AcDbCircle
 10
-5.786354917645
 20
-6.531559705611
 30
0.0
 40
0.026528153153
100
AcDbArc
 50
-92.639891387842
 51
92.639891387843
1001
TCAD
1000
TCW_CUSTOM_DATA
1002
{
1000
#$AUX@_ToolInfo Properties
1070
           8
1000
Insert^JArc^JTriplePoint132@Arc TriplePoint132
1002
}
  0
LINE
  5
12F
100
AcDbEntity
  8
Exterior View
370
           0
  6
Continuous
 62
           7
100
AcDbLine
 10
-5.796826764492
 20
-6.917059705611
 30
0.0
 11
-5.787576764492
 21
-6.917059705611
 31
0.0
1001
TCAD
1000
TCW_CUSTOM_DATA
1002
{
1000
#$AUX@_ToolInfo Properties
1070
           8
1000
Insert^JLine^JPerpendicular@Line Perpendicular
1002
}
  0
LINE
  5
130
100
AcDbEntity
  8
Exterior View
370
           0
  6
Continuous
 62
           7
100
AcDbLine
 10
-5.796826764492
 20
-6.970059705611
 30
0.0
 11
-5.787576764492
 21
-6.970059705611
 31
0.0
1001
TCAD
1000
TCW_CUSTOM_DATA
1002
{
1000
#$AUX@_ToolInfo Properties
1070
           8
1000
Insert^JLine^JPerpendicular@Line Perpendicular
1002
}
  0
ARC
  5
131
100
AcDbEntity
  8
Exterior View
370
           0
  6
Continuous
 62
           7
100
AcDbCircle
 10
-5.786354917645
 20
-6.943559705611
 30
0.0
 40
0.026528153153
100
AcDbArc
 50
-92.639891387842
 51
92.639891387843
1001
TCAD
1000
TCW_CUSTOM_DATA
1002
{
1000
#$AUX@_ToolInfo Properties
1070
           8
1000
Insert^JArc^JTriplePoint132@Arc TriplePoint132
1002
}
  0
LINE
  5
132
100
AcDbEntity
  8
Exterior View
370
           0
  6
Continuous
 62
           7
100
AcDbLine
 10
-5.796826764492
 20
-7.307059705611
 30
0.0
 11
-5.787576764492
 21
-7.307059705611
 31
0.0
1001
TCAD
1000
TCW_CUSTOM_DATA
1002
{
1000
#$AUX@_ToolInfo Properties
1070
           8
1000
Insert^JLine^JPerpendicular@Line Perpendicular
1002
}
  0
LINE
  5
133
100
AcDbEntity
  8
Exterior View
370
           0
  6
Continuous
 62
           7
100
AcDbLine
 10
-5.796826764492
 20
-7.360059705611
 30
0.0
 11
-5.787576764492
 21
-7.360059705611
 31
0.0
1001
TCAD
1000
TCW_CUSTOM_DATA
1002
{
1000
#$AUX@_ToolInfo Properties
1070
           8
1000
Insert^JLine^JPerpendicular@Line Perpendicular
1002
}
  0
ARC
  5
134
100
AcDbEntity
  8
Exterior View
370
           0
  6
Continuous
 62
           7
100
AcDbCircle
 10
-5.786354917645
 20
-7.333559705611
 30
0.0
 40
0.026528153153
100
AcDbArc
 50
-92.639891387842
 51
92.639891387842
1001
TCAD
1000
TCW_CUSTOM_DATA
1002
{
1000
#$AUX@_ToolInfo Properties
1070
           8
1000
Insert^JArc^JTriplePoint132@Arc TriplePoint132
1002
}
  0
LINE
  5
135
100
AcDbEntity
  8
Exterior View
370
           0
  6
Continuous
 62
           7
100
AcDbLine
 10
-5.796826764492
 20
-7.674059705611
 30
0.0
 11
-5.787576764492
 21
-7.674059705611
 31
0.0
1001
TCAD
1000
TCW_CUSTOM_DATA
1002
{
1000
#$AUX@_ToolInfo Properties
1070
           8
1000
Insert^JLine^JPerpendicular@Line Perpendicular
1002
}
  0
LINE
  5
136
100
AcDbEntity
  8
Exterior View
370
           0
  6
Continuous
 62
           7
100
AcDbLine
 10
-5.796826764492
 20
-7.727059705611
 30
0.0
 11
-5.787576764492
 21
-7.727059705611
 31
0.0
1001
TCAD
1000
TCW_CUSTOM_DATA
1002
{
1000
#$AUX@_ToolInfo Properties
1070
           8
1000
Insert^JLine^JPerpendicular@Line Perpendicular
1002
}
  0
ARC
  5
137
100
AcDbEntity
  8
Exterior View
370
           0
  6
Continuous
 62
           7
100
AcDbCircle
 10
-5.786354917645
 20
-7.700559705611
 30
0.0
 40
0.026528153153
100
AcDbArc
 50
-92.639891387842
 51
92.639891387842
1001
TCAD
1000
TCW_CUSTOM_DATA
1002
{
1000
#$AUX@_ToolInfo Properties
1070
           8
1000
Insert^JArc^JTriplePoint132@Arc TriplePoint132
1002
}
  0
LINE
  5
138
100
AcDbEntity
  8
Exterior View
370
           0
  6
Continuous
 62
           7
100
AcDbLine
 10
-5.796826764492
 20
-8.021059705611
 30
0.0
 11
-5.787576764492
 21
-8.021059705611
 31
0.0
1001
TCAD
1000
TCW_CUSTOM_DATA
1002
{
1000
#$AUX@_ToolInfo Properties
1070
           8
1000
Insert^JLine^JPerpendicular@Line Perpendicular
1002
}
  0
LINE
  5
139
100
AcDbEntity
  8
Exterior View
370
           0
  6
Continuous
 62
           7
100
AcDbLine
 10
-5.796826764492
 20
-8.074059705611
 30
0.0
 11
-5.787576764492
 21
-8.074059705611
 31
0.0
1001
TCAD
1000
TCW_CUSTOM_DATA
1002
{
1000
#$AUX@_ToolInfo Properties
1070
           8
1000
Insert^JLine^JPerpendicular@Line Perpendicular
1002
}
  0
ARC
  5
13A
100
AcDbEntity
  8
Exterior View
370
           0
  6
Continuous
 62
           7
100
AcDbCircle
 10
-5.786354917645
 20
-8.047559705611
 30
0.0
 40
0.026528153153
100
AcDbArc
 50
-92.639891387842
 51
92.639891387841
1001
TCAD
1000
TCW_CUSTOM_DATA
1002
{
1000
#$AUX@_ToolInfo Properties
1070
           8
1000
Insert^JArc^JTriplePoint132@Arc TriplePoint132
1002
}
  0
LINE
  5
13B
100
AcDbEntity
  8
Exterior View
370
           0
  6
Continuous
 62
           7
100
AcDbLine
 10
-5.796826764492
 20
-8.349059705611
 30
0.0
 11
-5.787576764492
 21
-8.349059705611
 31
0.0
1001
TCAD
1000
TCW_CUSTOM_DATA
1002
{
1000
#$AUX@_ToolInfo Properties
1070
           8
1000
Insert^JLine^JPerpendicular@Line Perpendicular
1002
}
  0
LINE
  5
13C
100
AcDbEntity
  8
Exterior View
370
           0
  6
Continuous
 62
           7
100
AcDbLine
 10
-5.796826764492
 20
-8.402059705611
 30
0.0
 11
-5.787576764492
 21
-8.402059705611
 31
0.0
1001
TCAD
1000
TCW_CUSTOM_DATA
1002
{
1000
#$AUX@_ToolInfo Properties
1070
           8
1000
Insert^JLine^JPerpendicular@Line Perpendicular
1002
}
  0
ARC
  5
13D
100
AcDbEntity
  8
Exterior View
370
           0
  6
Continuous
 62
           7
100
AcDbCircle
 10
-5.786354917645
 20
-8.375559705611
 30
0.0
 40
0.026528153153
100
AcDbArc
 50
-92.639891387842
 51
92.639891387842
1001
TCAD
1000
TCW_CUSTOM_DATA
1002
{
1000
#$AUX@_ToolInfo Properties
1070
           8
1000
Insert^JArc^JTriplePoint132@Arc TriplePoint132
1002
}
  0
LINE
  5
13E
100
AcDbEntity
  8
Exterior View
370
           0
  6
Continuous
 62
           7
100
AcDbLine
 10
-5.796826764492
 20
-8.658059705611
 30
0.0
 11
-5.787576764492
 21
-8.658059705611
 31
0.0
1001
TCAD
1000
TCW_CUSTOM_DATA
1002
{
1000
#$AUX@_ToolInfo Properties
1070
           8
1000
Insert^JLine^JPerpendicular@Line Perpendicular
1002
}
  0
LINE
  5
13F
100
AcDbEntity
  8
Exterior View
370
           0
  6
Continuous
 62
           7
100
AcDbLine
 10
-5.796826764492
 20
-8.711059705611
 30
0.0
 11
-5.787576764492
 21
-8.711059705611
 31
0.0
1001
TCAD
1000
TCW_CUSTOM_DATA
1002
{
1000
#$AUX@_ToolInfo Properties
1070
           8
1000
Insert^JLine^JPerpendicular@Line Perpendicular
1002
}
  0
ARC
  5
140
100
AcDbEntity
  8
Exterior View
370
           0
  6
Continuous
 62
           7
100
AcDbCircle
 10
-5.786354917645
 20
-8.684559705611
 30
0.0
 40
0.026528153153
100
AcDbArc
 50
-92.639891387842
 51
92.639891387841
1001
TCAD
1000
TCW_CUSTOM_DATA
1002
{
1000
#$AUX@_ToolInfo Properties
1070
           8
1000
Insert^JArc^JTriplePoint132@Arc TriplePoint132
1002
}
  0
LINE
  5
141
100
AcDbEntity
  8
Exterior View
370
           0
  6
Continuous
 62
           7
100
AcDbLine
 10
-5.796826764492
 20
-8.949059705611
 30
0.0
 11
-5.787576764492
 21
-8.949059705611
 31
0.0
1001
TCAD
1000
TCW_CUSTOM_DATA
1002
{
1000
#$AUX@_ToolInfo Properties
1070
           8
1000
Insert^JLine^JPerpendicular@Line Perpendicular
1002
}
  0
LINE
  5
142
100
AcDbEntity
  8
Exterior View
370
           0
  6
Continuous
 62
           7
100
AcDbLine
 10
-5.796826764492
 20
-9.002059705611
 30
0.0
 11
-5.787576764492
 21
-9.002059705611
 31
0.0
1001
TCAD
1000
TCW_CUSTOM_DATA
1002
{
1000
#$AUX@_ToolInfo Properties
1070
           8
1000
Insert^JLine^JPerpendicular@Line Perpendicular
1002
}
  0
ARC
  5
143
100
AcDbEntity
  8
Exterior View
370
           0
  6
Continuous
 62
           7
100
AcDbCircle
 10
-5.786354917645
 20
-8.975559705611
 30
0.0
 40
0.026528153153
100
AcDbArc
 50
-92.639891387842
 51
92.639891387841
1001
TCAD
1000
TCW_CUSTOM_DATA
1002
{
1000
#$AUX@_ToolInfo Properties
1070
           8
1000
Insert^JArc^JTriplePoint132@Arc TriplePoint132
1002
}
  0
LINE
  5
144
100
AcDbEntity
  8
Exterior View
370
           0
  6
Continuous
 62
           7
100
AcDbLine
 10
-5.796826764492
 20
-9.485059705611
 30
0.0
 11
-5.787576764492
 21
-9.485059705611
 31
0.0
1001
TCAD
1000
TCW_CUSTOM_DATA
1002
{
1000
#$AUX@_ToolInfo Properties
1070
           8
1000
Insert^JLine^JPerpendicular@Line Perpendicular
1002
}
  0
LINE
  5
145
100
AcDbEntity
  8
Exterior View
370
           0
  6
Continuous
 62
           7
100
AcDbLine
 10
-5.796826764492
 20
-9.538059705611
 30
0.0
 11
-5.787576764492
 21
-9.538059705611
 31
0.0
1001
TCAD
1000
TCW_CUSTOM_DATA
1002
{
1000
#$AUX@_ToolInfo Properties
1070
           8
1000
Insert^JLine^JPerpendicular@Line Perpendicular
1002
}
  0
ARC
  5
146
100
AcDbEntity
  8
Exterior View
370
           0
  6
Continuous
 62
           7
100
AcDbCircle
 10
-5.786354917645
 20
-9.511559705611
 30
0.0
 40
0.026528153153
100
AcDbArc
 50
-92.639891387842
 51
92.639891387841
1001
TCAD
1000
TCW_CUSTOM_DATA
1002
{
1000
#$AUX@_ToolInfo Properties
1070
           8
1000
Insert^JArc^JTriplePoint132@Arc TriplePoint132
1002
}
  0
LINE
  5
147
100
AcDbEntity
  8
Exterior View
370
           0
  6
Continuous
 62
           7
100
AcDbLine
 10
-5.796826764492
 20
-9.225059705611
 30
0.0
 11
-5.787576764492
 21
-9.225059705611
 31
0.0
1001
TCAD
1000
TCW_CUSTOM_DATA
1002
{
1000
#$AUX@_ToolInfo Properties
1070
           8
1000
Insert^JLine^JPerpendicular@Line Perpendicular
1002
}
  0
LINE
  5
148
100
AcDbEntity
  8
Exterior View
370
           0
  6
Continuous
 62
           7
100
AcDbLine
 10
-5.796826764492
 20
-9.278059705611
 30
0.0
 11
-5.787576764492
 21
-9.278059705611
 31
0.0
1001
TCAD
1000
TCW_CUSTOM_DATA
1002
{
1000
#$AUX@_ToolInfo Properties
1070
           8
1000
Insert^JLine^JPerpendicular@Line Perpendicular
1002
}
  0
ARC
  5
149
100
AcDbEntity
  8
Exterior View
370
           0
  6
Continuous
 62
           7
100
AcDbCircle
 10
-5.786354917645
 20
-9.251559705611
 30
0.0
 40
0.026528153153
100
AcDbArc
 50
-92.639891387842
 51
92.639891387842
1001
TCAD
1000
TCW_CUSTOM_DATA
1002
{
1000
#$AUX@_ToolInfo Properties
1070
           8
1000
Insert^JArc^JTriplePoint132@Arc TriplePoint132
1002
}
  0
LINE
  5
14A
100
AcDbEntity
  8
Exterior View
370
           0
  6
Continuous
 62
           7
100
AcDbLine
 10
-5.796826764492
 20
-9.730059705611
 30
0.0
 11
-5.787576764492
 21
-9.730059705611
 31
0.0
1001
TCAD
1000
TCW_CUSTOM_DATA
1002
{
1000
#$AUX@_ToolInfo Properties
1070
           8
1000
Insert^JLine^JPerpendicular@Line Perpendicular
1002
}
  0
LINE
  5
14B
100
AcDbEntity
  8
Exterior View
370
           0
  6
Continuous
 62
           7
100
AcDbLine
 10
-5.796826764492
 20
-9.783059705611
 30
0.0
 11
-5.787576764492
 21
-9.783059705611
 31
0.0
1001
TCAD
1000
TCW_CUSTOM_DATA
1002
{
1000
#$AUX@_ToolInfo Properties
1070
           8
1000
Insert^JLine^JPerpendicular@Line Perpendicular
1002
}
  0
ARC
  5
14C
100
AcDbEntity
  8
Exterior View
370
           0
  6
Continuous
 62
           7
100
AcDbCircle
 10
-5.786354917645
 20
-9.756559705611
 30
0.0
 40
0.026528153153
100
AcDbArc
 50
-92.639891387842
 51
92.639891387842
1001
TCAD
1000
TCW_CUSTOM_DATA
1002
{
1000
#$AUX@_ToolInfo Properties
1070
           8
1000
Insert^JArc^JTriplePoint132@Arc TriplePoint132
1002
}
  0
LINE
  5
14D
100
AcDbEntity
  8
Exterior View
370
           0
  6
Continuous
 62
           7
100
AcDbLine
 10
-5.796826764492
 20
-9.961059705611
 30
0.0
 11
-5.787576764492
 21
-9.961059705611
 31
0.0
1001
TCAD
1000
TCW_CUSTOM_DATA
1002
{
1000
#$AUX@_ToolInfo Properties
1070
           8
1000
Insert^JLine^JPerpendicular@Line Perpendicular
1002
}
  0
LINE
  5
14E
100
AcDbEntity
  8
Exterior View
370
           0
  6
Continuous
 62
           7
100
AcDbLine
 10
-5.796826764492
 20
-10.014059705611
 30
0.0
 11
-5.787576764492
 21
-10.014059705611
 31
0.0
1001
TCAD
1000
TCW_CUSTOM_DATA
1002
{
1000
#$AUX@_ToolInfo Properties
1070
           8
1000
Insert^JLine^JPerpendicular@Line Perpendicular
1002
}
  0
ARC
  5
14F
100
AcDbEntity
  8
Exterior View
370
           0
  6
Continuous
 62
           7
100
AcDbCircle
 10
-5.786354917645
 20
-9.987559705611
 30
0.0
 40
0.026528153153
100
AcDbArc
 50
-92.639891387842
 51
92.639891387843
1001
TCAD
1000
TCW_CUSTOM_DATA
1002
{
1000
#$AUX@_ToolInfo Properties
1070
           8
1000
Insert^JArc^JTriplePoint132@Arc TriplePoint132
1002
}
  0
ARC
  5
150
100
AcDbEntity
  8
Exterior View
370
           0
  6
Continuous
 62
           7
100
AcDbCircle
 10
-5.796826764492
 20
0.055940294389
 30
0.0
 40
0.0625
100
AcDbArc
 50
0.0
 51
90.0
1001
TCAD
1000
TCW_CUSTOM_DATA
1002
{
1000
#$AUX@_ToolInfo Properties
1070
           8
1000
Insert^JArc^JCenterAndPoint@Arc CenterAndPoint
1002
}
  0
LINE
  5
151
100
AcDbEntity
  8
Exterior View
370
           0
  6
Continuous
 62
           7
100
AcDbLine
 10
-6.624951764492
 20
-5.160566007742
 30
0.0
 11
-6.624951764492
 21
-0.380676036079
 31
0.0
1001
TCAD
1000
TCW_CUSTOM_DATA
1002
{
1000
#$AUX@_ToolInfo Properties
1070
           8
1000
Insert^JLine^JPerpendicular@Line Perpendicular
1002
}
  0
LINE
  5
152
100
AcDbEntity
  8
Exterior View
370
           0
  6
Continuous
 62
           7
100
AcDbLine
 10
-6.339651761189
 20
1.386217941394
 30
0.0
 11
-6.922008676817
 21
1.386217941394
 31
0.0
1001
TCAD
1000
TCW_CUSTOM_DATA
1002
{
1000
#$AUX@_ToolInfo Properties
1070
           8
1000
Insert^JLine^JSingle@Line Single
1002
}
  0
LINE
  5
153
100
AcDbEntity
  8
Exterior View
370
           0
  6
Continuous
 62
           7
100
AcDbLine
 10
-5.671826764492
 20
0.118440421635
 30
0.0
 11
-0.093701764488
 21
0.118446099988
 31
0.0
1001
TCAD
1000
TCW_CUSTOM_DATA
1002
{
1000
#$AUX@_ToolInfo Properties
1070
           8
1000
Insert^JLine^JSingle@Line Single
1002
}
  0
LINE
  5
154
100
AcDbEntity
  8
Exterior View
370
           0
  6
Continuous
 62
           7
100
AcDbLine
 10
-6.795322633046
 20
0.913419189434
 30
0.0
 11
-7.61758391841
 21
3.982140083509
 31
0.0
1001
TCAD
1000
TCW_CUSTOM_DATA
1002
{
1000
#$AUX@_ToolInfo Properties
1070
           8
1000
Insert^JLine^JPerpendicular@Line Perpendicular
1002
}
  0
ARC
  5
155
100
AcDbEntity
  8
Exterior View
370
           0
  6
Continuous
 62
           7
100
AcDbCircle
 10
-11.624951764492
 20
-0.380676036079
 30
0.0
 40
5.0
100
AcDbArc
 50
0.0
 51
15.000000000001
  0
LINE
  5
156
100
AcDbEntity
  8
Exterior View
370
           0
  6
Continuous
 62
           7
100
AcDbLine
 10
-5.879211036206
 20
0.150792675027
 30
0.0
 11
-4.1888408402
 21
0.603726003957
 31
0.0
1001
TCAD
1000
TCW_CUSTOM_DATA
1002
{
1000
#$AUX@_ToolInfo Properties
1070
           8
1000
Insert^JLine^JPerpendicular@Line Perpendicular
1002
}
  0
LINE
  5
157
100
AcDbEntity
  8
Exterior View
370
           0
  6
Continuous
 62
           7
100
AcDbLine
 10
-0.656201764488
 20
1.386223866006
 30
0.0
 11
-6.214665825336
 21
1.386218071698
 31
0.0
1001
TCAD
1000
TCW_CUSTOM_DATA
1002
{
1000
#$AUX@_ToolInfo Properties
1070
           8
1000
Insert^JLine^JSingle@Line Single
1002
}
  0
LINE
  5
158
100
AcDbEntity
  8
Exterior View
370
           0
  6
Continuous
 62
           7
100
AcDbLine
 10
-6.218911032903
 20
1.418570322032
 30
0.0
 11
-5.071874114187
 21
1.725917938091
 31
0.0
1001
TCAD
1000
TCW_CUSTOM_DATA
1002
{
1000
#$AUX@_ToolInfo Properties
1070
           8
1000
Insert^JLine^JPerpendicular@Line Perpendicular
1002
}
  0
LINE
  5
159
100
AcDbEntity
  8
Exterior View
370
           0
  6
Continuous
 62
           7
100
AcDbLine
 10
-6.914487216616
 20
4.014495980184
 30
0.0
 11
-5.40522811304
 21
4.418900738156
 31
0.0
1001
TCAD
1000
TCW_CUSTOM_DATA
1002
{
1000
#$AUX@_ToolInfo Properties
1070
           8
1000
Insert^JLine^JPerpendicular@Line Perpendicular
1002
}
  0
ARC
  5
15A
100
AcDbEntity
  8
Exterior View
370
           0
  6
Continuous
 62
           7
100
AcDbCircle
 10
-7.753133356662
 20
-5.157384414536
 30
0.0
 40
1.128186078378
100
AcDbArc
 50
-89.838420231745
 51
-0.161579820787
  0
ARC
  5
15B
100
AcDbEntity
  8
Exterior View
370
           0
  6
Continuous
 62
           7
100
AcDbCircle
 10
-7.748381248861
 20
-6.412126778444
 30
0.0
 40
0.126570515766
100
AcDbArc
 50
90.710957255298
 51
181.289346209534
  0
LINE
  5
15C
100
AcDbEntity
  8
Exterior View
370
           0
  6
Continuous
 62
           7
100
AcDbLine
 10
-7.03524106693
 20
3.982140083509
 30
0.0
 11
-7.61758391841
 21
3.982140083509
 31
0.0
1001
TCAD
1000
TCW_CUSTOM_DATA
1002
{
1000
#$AUX@_ToolInfo Properties
1070
           8
1000
Insert^JLine^JPerpendicular@Line Perpendicular
1002
}
  0
LINE
  5
15D
100
AcDbEntity
  8
Exterior View
370
           0
  6
Continuous
 62
           7
100
AcDbLine
 10
-7.749951764492
 20
-19.193561182093
 30
0.0
 11
-7.749951764492
 21
-6.285566006709
 31
0.0
1001
TCAD
1000
TCW_CUSTOM_DATA
1002
{
1000
#$AUX@_ToolInfo Properties
1070
           8
1000
Insert^JLine^JPerpendicular@Line Perpendicular
1002
}
  0
LINE
  5
15E
100
AcDbEntity
  8
Exterior View
370
           0
  6
Continuous
 62
           7
100
AcDbLine
 10
-6.124951764492
 20
-19.193561182093
 30
0.0
 11
-6.124951764492
 21
-6.943559705611
 31
0.0
1001
TCAD
1000
TCW_CUSTOM_DATA
1002
{
1000
#$AUX@_ToolInfo Properties
1070
           8
1000
Insert^JLine^JPerpendicular@Line Perpendicular
1002
}
  0
LINE
  5
15F
100
AcDbEntity
  8
Exterior View
370
           0
  6
Continuous
 62
           7
100
AcDbLine
 10
-5.999951764492
 20
-10.319059705611
 30
0.0
 11
-5.796826764492
 21
-10.319059705611
 31
0.0
1001
TCAD
1000
TCW_CUSTOM_DATA
1002
{
1000
#$AUX@_ToolInfo Properties
1070
           8
1000
Insert^JLine^JPerpendicular@Line Perpendicular
1002
}
  0
LINE
  5
160
100
AcDbEntity
  8
Exterior View
370
           0
  6
Continuous
 62
           7
100
AcDbLine
 10
-5.649223105955
 20
-13.806922086807
 30
0.0
 11
-5.649223105955
 21
-14.056922086807
 31
0.0
1001
TCAD
1000
TCW_CUSTOM_DATA
1002
{
1000
#$AUX@_ToolInfo Properties
1070
           8
1000
Insert^JLine^JPerpendicular@Line Perpendicular
1002
}
  0
LINE
  5
161
100
AcDbEntity
  8
Exterior View
370
           0
  6
Continuous
 62
           7
100
AcDbLine
 10
-6.91024106693
 20
3.982140241708
 30
0.0
 11
-0.281201764487
 21
3.982148631345
 31
0.0
1001
TCAD
1000
TCW_CUSTOM_DATA
1002
{
1000
#$AUX@_ToolInfo Properties
1070
           8
1000
Insert^JLine^JSingle@Line Single
1002
}
  0
LINE
  5
162
100
AcDbEntity
  8
Exterior View
370
           0
  6
Continuous
 62
           7
100
AcDbLine
 10
-5.8125
 20
-14.056922086807
 30
0.0
 11
-5.8125
 21
-13.806922086807
 31
0.0
1001
TCAD
1000
TCW_CUSTOM_DATA
1002
{
1000
#$AUX@_ToolInfo Properties
1070
           8
1000
Insert^JLine^JSingle@Line Single
1002
}
  0
LINE
  5
163
100
AcDbEntity
  8
Exterior View
370
           0
  6
Continuous
 62
           7
100
AcDbLine
 10
-5.999951764492
 20
-19.193561182093
 30
0.0
 11
-7.874951764492
 21
-19.193561182093
 31
0.0
1001
TCAD
1000
TCW_CUSTOM_DATA
1002
{
1000
#$AUX@_ToolInfo Properties
1070
           8
1000
Insert^JLine^JPerpendicular@Line Perpendicular
1002
}
  0
LINE
  5
164
100
AcDbEntity
  8
Exterior View
370
           0
  6
Continuous
 62
           7
100
AcDbLine
 10
-4.068100111914
 20
0.636078384595
 30
0.0
 11
-2.981433557338
 21
0.927249810335
 31
0.0
1001
TCAD
1000
TCW_CUSTOM_DATA
1002
{
1000
#$AUX@_ToolInfo Properties
1070
           8
1000
Insert^JLine^JSingle@Line Single
1002
}
  0
LINE
  5
165
100
AcDbEntity
  8
Exterior View
370
           0
  6
Continuous
 62
           7
100
AcDbLine
 10
-4.068100111914
 20
0.636078384595
 30
0.0
 11
-2.981433557338
 21
0.927249810335
 31
0.0
1001
TCAD
1000
TCW_CUSTOM_DATA
1002
{
1000
#$AUX@_ToolInfo Properties
1070
           8
1000
Insert^JLine^JSingle@Line Single
1002
}
  0
POINT
  5
166
100
AcDbEntity
  8
Exterior View
  6
Continuous
 62
           7
100
AcDbPoint
 10
-4.654316939662
 20
2.273902188343
 30
0.0
1001
TCAD
1000
TCW_CUSTOM_DATA
1002
{
1000
#$AUX@_ToolInfo Properties
1070
           8
1000
Insert^JPoint^JCross@Point Cross
1002
}
1000
TC25ExternalObject
1002
{
1000
TCW30POINT
1000

1070
           0
1071
        0
1040
1.0
1040
0.0
1000
Continuous
1000
Exterior View
1070
          21
1071
        1
1071
      242
1010
-4.654316939662
1020
2.273902188343
1030
0.0
1070
           3
1071
-2147483645
1070
           1
1000
#$AUX@_ToolInfo Properties
1070
           8
1000
Insert^JPoint^JCross@Point Cross
1000
$POINTSIZE
1070
           5
1040
0.25
1000
$POINTTYPE
1070
          18
1070
           3
1000
ExplodeScale
1070
           5
1040
1.0
1002
}
  0
CIRCLE
  5
167
100
AcDbEntity
  8
Exterior View
370
           0
  6
Continuous
 62
           7
100
AcDbCircle
 10
-4.654316939662
 20
2.273902188343
 30
0.0
 40
0.125
1001
TCAD
1000
TCW_CUSTOM_DATA
1002
{
1000
#$AUX@_ToolInfo Properties
1070
           8
1000
Insert^JCircle^JCenterAndPoint@Circle CenterAndPoint
1002
}
  0
LINE
  5
168
100
AcDbEntity
  8
Exterior View
370
           0
  6
Continuous
 62
           7
100
AcDbLine
 10
-4.976735517709
 20
2.695385074153
 30
0.0
 11
-4.416740464146
 21
2.748411388235
 31
0.0
1001
TCAD
1000
TCW_CUSTOM_DATA
1002
{
1000
#$AUX@_ToolInfo Properties
1070
           8
1000
Insert^JLine^JSingle@Line Single
1002
}
  0
LINE
  5
169
100
AcDbEntity
  8
Exterior View
370
           0
  6
Continuous
 62
           7
100
AcDbLine
 10
-4.934314466444
 20
2.247389031303
 30
0.0
 11
-4.976735517709
 21
2.695385074153
 31
0.0
1001
TCAD
1000
TCW_CUSTOM_DATA
1002
{
1000
#$AUX@_ToolInfo Properties
1070
           8
1000
Insert^JLine^JSingle@Line Single
1002
}
  0
CIRCLE
  5
16A
100
AcDbEntity
  8
Exterior View
370
           0
  6
Continuous
 62
           7
100
AcDbCircle
 10
-4.262427694025
 20
2.113254795651
 30
0.0
 40
0.05
1001
TCAD
1000
TCW_CUSTOM_DATA
1002
{
1000
#$AUX@_ToolInfo Properties
1070
           8
1000
Insert^JCircle^JCenterAndPoint@Circle CenterAndPoint
1002
}
  0
ARC
  5
16B
100
AcDbEntity
  8
Exterior View
370
           0
  6
Continuous
 62
           7
100
AcDbCircle
 10
-4.262427694025
 20
2.113254795651
 30
0.0
 40
0.084375
100
AcDbArc
 50
-84.590752057265
 51
53.636853606412
1001
TCAD
1000
TCW_CUSTOM_DATA
1002
{
1000
#$AUX@_ToolInfo Properties
1070
           8
1000
Insert^JArc^JCenterAndPoint@Arc CenterAndPoint
1002
}
  0
LINE
  5
16C
100
AcDbEntity
  8
Exterior View
370
           0
  6
Continuous
 62
           7
100
AcDbLine
 10
-4.254473746912
 20
2.029255537616
 30
0.0
 11
-4.627803782621
 21
1.993904661562
 31
0.0
1001
TCAD
1000
TCW_CUSTOM_DATA
1002
{
1000
#$AUX@_ToolInfo Properties
1070
           8
1000
Insert^JLine^JSingle@Line Single
1002
}
  0
ARC
  5
16D
100
AcDbEntity
  8
Exterior View
370
           0
  6
Continuous
 62
           7
100
AcDbCircle
 10
-4.654316939662
 20
2.273902188343
 30
0.0
 40
0.28125
100
AcDbArc
 50
-174.590752057268
 51
5.409240164483
  0
LINE
  5
16E
100
AcDbEntity
  8
Exterior View
370
           0
  6
Continuous
 62
           7
100
AcDbLine
 10
-4.416740464146
 20
2.748411388235
 30
0.0
 11
-4.374319409281
 21
2.300415307373
 31
0.0
1001
TCAD
1000
TCW_CUSTOM_DATA
1002
{
1000
#$AUX@_ToolInfo Properties
1070
           8
1000
Insert^JLine^JPerpendicular@Line Perpendicular
1002
}
  0
LINE
  5
16F
100
AcDbEntity
  8
Exterior View
370
           0
  6
Continuous
 62
           7
100
AcDbLine
 10
-4.212401659158
 20
2.181199894521
 30
0.0
 11
-4.374319409281
 21
2.300415307373
 31
0.0
1001
TCAD
1000
TCW_CUSTOM_DATA
1002
{
1000
#$AUX@_ToolInfo Properties
1070
           8
1000
Insert^JLine^JTanFromArc@Line TanFromArc
1002
}
  0
ARC
  5
170
100
AcDbEntity
  8
Exterior View
370
           0
  6
Continuous
 62
           7
100
AcDbCircle
 10
-5.491380593971
 20
2.494929354439
 30
0.0
 40
0.34375
100
AcDbArc
 50
95.409242610917
 51
275.409247942733
  0
ARC
  5
171
100
AcDbEntity
  8
Exterior View
370
           0
  6
Continuous
 62
           7
100
AcDbCircle
 10
-5.439648413297
 20
2.280099406613
 30
0.0
 40
0.125
100
AcDbArc
 50
-84.590752057268
 51
5.409247942732
1001
TCAD
1000
TCW_CUSTOM_DATA
1002
{
1000
#$AUX@_ToolInfo Properties
1070
           8
1000
Insert^JArc^JTanToTwoEntities@Arc TanToTwoEntities
1002
}
  0
ARC
  5
172
100
AcDbEntity
  8
Exterior View
370
           0
  6
Continuous
 62
           7
100
AcDbCircle
 10
-5.480891102027
 20
2.71565111494
 30
0.0
 40
0.125
100
AcDbArc
 50
5.409247942728
 51
95.409247942726
1001
TCAD
1000
TCW_CUSTOM_DATA
1002
{
1000
#$AUX@_ToolInfo Properties
1070
           8
1000
Insert^JArc^JTanToTwoEntities@Arc TanToTwoEntities
1002
}
  0
LINE
  5
173
100
AcDbEntity
  8
Exterior View
370
           0
  6
Continuous
 62
           7
100
AcDbLine
 10
-5.427864772211
 20
2.155656062867
 30
0.0
 11
-5.458975624254
 21
2.152710155039
 31
0.0
  0
LINE
  5
174
100
AcDbEntity
  8
Exterior View
370
           0
  6
Continuous
 62
           7
100
AcDbLine
 10
-5.356447756966
 20
2.727434742146
 30
0.0
 11
-5.315205067709
 21
2.291883028256
 31
0.0
1001
TCAD
1000
TCW_CUSTOM_DATA
1002
{
1000
#$AUX@_ToolInfo Properties
1070
           8
1000
Insert^JLine^JSingle@Line Single
1002
}
  0
LINE
  5
175
100
AcDbEntity
  8
Exterior View
370
           0
  6
Continuous
 62
           7
100
AcDbLine
 10
-4.950712751365
 20
2.420566416946
 30
0.0
 11
-5.324042787074
 21
2.385215540892
 31
0.0
1001
TCAD
1000
TCW_CUSTOM_DATA
1002
{
1000
#$AUX@_ToolInfo Properties
1070
           8
1000
Insert^JLine^JPerpendicular@Line Perpendicular
1002
}
  0
LINE
  5
176
100
AcDbEntity
  8
Exterior View
370
           0
  6
Continuous
 62
           7
100
AcDbLine
 10
-4.974280002068
 20
2.669453107419
 30
0.0
 11
-5.347610037777
 21
2.634102231365
 31
0.0
1001
TCAD
1000
TCW_CUSTOM_DATA
1002
{
1000
#$AUX@_ToolInfo Properties
1070
           8
1000
Insert^JLine^JPerpendicular@Line Perpendicular
1002
}
  0
POINT
  5
177
100
AcDbEntity
  8
Exterior View
  6
Continuous
 62
           7
100
AcDbPoint
 10
-4.802930701606
 20
3.50536933684
 30
0.0
1001
TCAD
1000
TCW_CUSTOM_DATA
1002
{
1000
#$AUX@_ToolInfo Properties
1070
           8
1000
Insert^JPoint^JCross@Point Cross
1002
}
1000
TC25ExternalObject
1002
{
1000
TCW30POINT
1000

1070
           0
1071
        0
1040
1.0
1040
0.0
1000
Continuous
1000
Exterior View
1070
          21
1071
        1
1071
      242
1010
-4.802930701606
1020
3.50536933684
1030
0.0
1070
           3
1071
-2147483645
1070
           1
1000
#$AUX@_ToolInfo Properties
1070
           8
1000
Insert^JPoint^JCross@Point Cross
1000
$POINTSIZE
1070
           5
1040
0.25
1000
$POINTTYPE
1070
          18
1070
           3
1000
ExplodeScale
1070
           5
1040
1.0
1002
}
  0
CIRCLE
  5
178
100
AcDbEntity
  8
Exterior View
370
           0
  6
Continuous
 62
           7
100
AcDbCircle
 10
-4.802930701606
 20
3.50536933684
 30
0.0
 40
0.125000000001
1001
TCAD
1000
TCW_CUSTOM_DATA
1002
{
1000
#$AUX@_ToolInfo Properties
1070
           8
1000
Insert^JCircle^JCenterAndPoint@Circle CenterAndPoint
1002
}
  0
LINE
  5
179
100
AcDbEntity
  8
Exterior View
370
           0
  6
Continuous
 62
           7
100
AcDbLine
 10
-5.146545456721
 20
3.909758335911
 30
0.0
 11
-4.590007729964
 21
3.991440700581
 31
0.0
1001
TCAD
1000
TCW_CUSTOM_DATA
1002
{
1000
#$AUX@_ToolInfo Properties
1070
           8
1000
Insert^JLine^JSingle@Line Single
1002
}
  0
LINE
  5
17A
100
AcDbEntity
  8
Exterior View
370
           0
  6
Continuous
 62
           7
100
AcDbLine
 10
-5.081199564985
 20
3.464528154505
 30
0.0
 11
-5.146545456721
 21
3.909758335911
 31
0.0
1001
TCAD
1000
TCW_CUSTOM_DATA
1002
{
1000
#$AUX@_ToolInfo Properties
1070
           8
1000
Insert^JLine^JSingle@Line Single
1002
}
  0
CIRCLE
  5
17B
100
AcDbEntity
  8
Exterior View
370
           0
  6
Continuous
 62
           7
100
AcDbCircle
 10
-4.4033167228
 20
3.365036042255
 30
0.0
 40
0.05
1001
TCAD
1000
TCW_CUSTOM_DATA
1002
{
1000
#$AUX@_ToolInfo Properties
1070
           8
1000
Insert^JCircle^JCenterAndPoint@Circle CenterAndPoint
1002
}
  0
ARC
  5
17C
100
AcDbEntity
  8
Exterior View
370
           0
  6
Continuous
 62
           7
100
AcDbCircle
 10
-4.4033167228
 20
3.365036042255
 30
0.0
 40
0.084375
100
AcDbArc
 50
-81.650380890764
 51
56.577224772919
1001
TCAD
1000
TCW_CUSTOM_DATA
1002
{
1000
#$AUX@_ToolInfo Properties
1070
           8
1000
Insert^JArc^JCenterAndPoint@Arc CenterAndPoint
1002
}
  0
LINE
  5
17D
100
AcDbEntity
  8
Exterior View
370
           0
  6
Continuous
 62
           7
100
AcDbLine
 10
-4.391064368099
 20
3.281555383241
 30
0.0
 11
-4.762089519271
 21
3.227100473461
 31
0.0
1001
TCAD
1000
TCW_CUSTOM_DATA
1002
{
1000
#$AUX@_ToolInfo Properties
1070
           8
1000
Insert^JLine^JSingle@Line Single
1002
}
  0
ARC
  5
17E
100
AcDbEntity
  8
Exterior View
370
           0
  6
Continuous
 62
           7
100
AcDbCircle
 10
-4.802930701606
 20
3.50536933684
 30
0.0
 40
0.281250000001
100
AcDbArc
 50
-171.65038089076
 51
8.34961133099
  0
LINE
  5
17F
100
AcDbEntity
  8
Exterior View
370
           0
  6
Continuous
 62
           7
100
AcDbLine
 10
-4.590007729964
 20
3.991440700581
 30
0.0
 11
-4.524661832683
 21
3.546210481398
 31
0.0
1001
TCAD
1000
TCW_CUSTOM_DATA
1002
{
1000
#$AUX@_ToolInfo Properties
1070
           8
1000
Insert^JLine^JPerpendicular@Line Perpendicular
1002
}
  0
LINE
  5
180
100
AcDbEntity
  8
Exterior View
370
           0
  6
Continuous
 62
           7
100
AcDbLine
 10
-4.356841904089
 20
3.435457855998
 30
0.0
 11
-4.524661832683
 21
3.546210481398
 31
0.0
1001
TCAD
1000
TCW_CUSTOM_DATA
1002
{
1000
#$AUX@_ToolInfo Properties
1070
           8
1000
Insert^JLine^JTanFromArc@Line TanFromArc
1002
}
  0
ARC
  5
181
100
AcDbEntity
  8
Exterior View
370
           0
  6
Continuous
 62
           7
100
AcDbCircle
 10
-5.650230278799
 20
3.683166963399
 30
0.0
 40
0.343750000001
100
AcDbArc
 50
98.349613777426
 51
278.349619109235
  0
ARC
  5
182
100
AcDbEntity
  8
Exterior View
370
           0
  6
Continuous
 62
           7
100
AcDbCircle
 10
-5.587546152163
 20
3.471273534364
 30
0.0
 40
0.125000000001
100
AcDbArc
 50
-81.650380890763
 51
8.349619109234
1001
TCAD
1000
TCW_CUSTOM_DATA
1002
{
1000
#$AUX@_ToolInfo Properties
1070
           8
1000
Insert^JArc^JTanToTwoEntities@Arc TanToTwoEntities
1002
}
  0
ARC
  5
183
100
AcDbEntity
  8
Exterior View
370
           0
  6
Continuous
 62
           7
100
AcDbCircle
 10
-5.65107688024
 20
3.904136210731
 30
0.0
 40
0.125000000001
100
AcDbArc
 50
8.349619109243
 51
98.349619109229
1001
TCAD
1000
TCW_CUSTOM_DATA
1002
{
1000
#$AUX@_ToolInfo Properties
1070
           8
1000
Insert^JArc^JTanToTwoEntities@Arc TanToTwoEntities
1002
}
  0
LINE
  5
184
100
AcDbEntity
  8
Exterior View
370
           0
  6
Continuous
 62
           7
100
AcDbLine
 10
-5.569394499932
 20
3.347598486268
 30
0.0
 11
-5.600313278168
 21
3.343060574825
 31
0.0
  0
LINE
  5
185
100
AcDbEntity
  8
Exterior View
370
           0
  6
Continuous
 62
           7
100
AcDbLine
 10
-5.52740183012
 20
3.922287849167
 30
0.0
 11
-5.463871101232
 21
3.489425167271
 31
0.0
1001
TCAD
1000
TCW_CUSTOM_DATA
1002
{
1000
#$AUX@_ToolInfo Properties
1070
           8
1000
Insert^JLine^JSingle@Line Single
1002
}
  0
LINE
  5
186
100
AcDbEntity
  8
Exterior View
370
           0
  6
Continuous
 62
           7
100
AcDbLine
 10
-5.669228516834
 20
4.027811261121
 30
0.0
 11
-5.700147247782
 21
4.023273356618
 31
0.0
  0
LINE
  5
187
100
AcDbEntity
  8
Exterior View
370
           0
  6
Continuous
 62
           7
100
AcDbLine
 10
-5.106459678046
 20
3.63663636853
 30
0.0
 11
-5.477484829218
 21
3.58218145875
 31
0.0
1001
TCAD
1000
TCW_CUSTOM_DATA
1002
{
1000
#$AUX@_ToolInfo Properties
1070
           8
1000
Insert^JLine^JPerpendicular@Line Perpendicular
1002
}
  0
LINE
  5
188
100
AcDbEntity
  8
Exterior View
370
           0
  6
Continuous
 62
           7
100
AcDbLine
 10
-5.142762951233
 20
3.883986469311
 30
0.0
 11
-5.513788102405
 21
3.829531559531
 31
0.0
1001
TCAD
1000
TCW_CUSTOM_DATA
1002
{
1000
#$AUX@_ToolInfo Properties
1070
           8
1000
Insert^JLine^JPerpendicular@Line Perpendicular
1002
}
  0
ARC
  5
189
100
AcDbEntity
  8
Exterior View
370
           0
  6
Continuous
 62
           7
100
AcDbCircle
 10
-6.61589332888
 20
-0.460217978261
 30
0.0
 40
2.773646695531
100
AcDbArc
 50
23.281848080873
 51
53.115332946554
1001
TCAD
1000
TCW_CUSTOM_DATA
1002
{
1000
#$AUX@_ToolInfo Properties
1070
           8
1000
Insert^JArc^JTriplePoint132@Arc TriplePoint132
1002
}
  0
POINT
  5
18A
100
AcDbEntity
  8
Exterior View
  6
Continuous
 62
           7
100
AcDbPoint
 10
-3.292666794257
 20
2.638755245178
 30
0.0
1001
TCAD
1000
TCW_CUSTOM_DATA
1002
{
1000
#$AUX@_ToolInfo Properties
1070
           8
1000
Insert^JPoint^JCross@Point Cross
1002
}
1000
TC25ExternalObject
1002
{
1000
TCW30POINT
1000

1070
           0
1071
        0
1040
1.0
1040
0.0
1000
Continuous
1000
Exterior View
1070
          21
1071
        1
1071
      242
1010
-3.292666794257
1020
2.638755245178
1030
0.0
1070
           3
1071
-2147483645
1070
           1
1000
#$AUX@_ToolInfo Properties
1070
           8
1000
Insert^JPoint^JCross@Point Cross
1000
$POINTSIZE
1070
           5
1040
0.25
1000
$POINTTYPE
1070
          18
1070
           3
1000
ExplodeScale
1070
           5
1040
1.0
1002
}
  0
CIRCLE
  5
18B
100
AcDbEntity
  8
Exterior View
370
           0
  6
Continuous
 62
           7
100
AcDbCircle
 10
-3.292666794257
 20
2.638755245178
 30
0.0
 40
0.125
1001
TCAD
1000
TCW_CUSTOM_DATA
1002
{
1000
#$AUX@_ToolInfo Properties
1070
           8
1000
Insert^JCircle^JCenterAndPoint@Circle CenterAndPoint
1002
}
  0
LINE
  5
18C
100
AcDbEntity
  8
Exterior View
370
           0
  6
Continuous
 62
           7
100
AcDbLine
 10
-3.224185557921
 20
3.164979420574
 30
0.0
 11
-3.735668657342
 21
2.930904028856
 31
0.0
1001
TCAD
1000
TCW_CUSTOM_DATA
1002
{
1000
#$AUX@_ToolInfo Properties
1070
           8
1000
Insert^JLine^JSingle@Line Single
1002
}
  0
LINE
  5
18D
100
AcDbEntity
  8
Exterior View
370
           0
  6
Continuous
 62
           7
100
AcDbLine
 10
-3.036925244547
 20
2.755792941037
 30
0.0
 11
-3.224185557921
 21
3.164979420574
 31
0.0
1001
TCAD
1000
TCW_CUSTOM_DATA
1002
{
1000
#$AUX@_ToolInfo Properties
1070
           8
1000
Insert^JLine^JSingle@Line Single
1002
}
  0
CIRCLE
  5
18E
100
AcDbEntity
  8
Exterior View
370
           0
  6
Continuous
 62
           7
100
AcDbCircle
 10
-3.551729140102
 20
2.303685899236
 30
0.0
 40
0.05
1001
TCAD
1000
TCW_CUSTOM_DATA
1002
{
1000
#$AUX@_ToolInfo Properties
1070
           8
1000
Insert^JCircle^JCenterAndPoint@Circle CenterAndPoint
1002
}
  0
ARC
  5
18F
100
AcDbEntity
  8
Exterior View
370
           0
  6
Continuous
 62
           7
100
AcDbCircle
 10
-3.551729140102
 20
2.303685899236
 30
0.0
 40
0.084375
100
AcDbArc
 50
156.363146393592
 51
294.590752057266
1001
TCAD
1000
TCW_CUSTOM_DATA
1002
{
1000
#$AUX@_ToolInfo Properties
1070
           8
1000
Insert^JArc^JCenterAndPoint@Arc CenterAndPoint
1002
}
  0
LINE
  5
190
100
AcDbEntity
  8
Exterior View
370
           0
  6
Continuous
 62
           7
100
AcDbLine
 10
-3.516617831345
 20
2.226963434323
 30
0.0
 11
-3.175629098398
 21
2.383013695468
 31
0.0
1001
TCAD
1000
TCW_CUSTOM_DATA
1002
{
1000
#$AUX@_ToolInfo Properties
1070
           8
1000
Insert^JLine^JSingle@Line Single
1002
}
  0
ARC
  5
191
100
AcDbEntity
  8
Exterior View
370
           0
  6
Continuous
 62
           7
100
AcDbCircle
 10
-3.292666794257
 20
2.638755245178
 30
0.0
 40
0.28125
100
AcDbArc
 50
-155.409240164482
 51
24.590752057268
  0
LINE
  5
192
100
AcDbEntity
  8
Exterior View
370
           0
  6
Continuous
 62
           7
100
AcDbLine
 10
-3.735668657342
 20
2.930904028856
 30
0.0
 11
-3.548408328078
 21
2.521717514601
 31
0.0
1001
TCAD
1000
TCW_CUSTOM_DATA
1002
{
1000
#$AUX@_ToolInfo Properties
1070
           8
1000
Insert^JLine^JPerpendicular@Line Perpendicular
1002
}
  0
LINE
  5
193
100
AcDbEntity
  8
Exterior View
370
           0
  6
Continuous
 62
           7
100
AcDbLine
 10
-3.629025506583
 20
2.337515063488
 30
0.0
 11
-3.548408328078
 21
2.521717514601
 31
0.0
1001
TCAD
1000
TCW_CUSTOM_DATA
1002
{
1000
#$AUX@_ToolInfo Properties
1070
           8
1000
Insert^JLine^JTanFromArc@Line TanFromArc
1002
}
  0
ARC
  5
194
100
AcDbEntity
  8
Exterior View
370
           0
  6
Continuous
 62
           7
100
AcDbCircle
 10
-2.678261988089
 20
3.248702213098
 30
0.0
 40
0.34375
100
AcDbArc
 50
-65.409247942733
 51
114.590757389085
  0
ARC
  5
195
100
AcDbEntity
  8
Exterior View
370
           0
  6
Continuous
 62
           7
100
AcDbCircle
 10
-2.615648396833
 20
3.03678793045
 30
0.0
 40
0.125
100
AcDbArc
 50
-155.409247942731
 51
-65.409247942729
1001
TCAD
1000
TCW_CUSTOM_DATA
1002
{
1000
#$AUX@_ToolInfo Properties
1070
           8
1000
Insert^JArc^JTanToTwoEntities@Arc TanToTwoEntities
1002
}
  0
ARC
  5
196
100
AcDbEntity
  8
Exterior View
370
           0
  6
Continuous
 62
           7
100
AcDbCircle
 10
-2.797707034836
 20
3.434608118888
 30
0.0
 40
0.125
100
AcDbArc
 50
114.590752057271
 51
204.590752057273
1001
TCAD
1000
TCW_CUSTOM_DATA
1002
{
1000
#$AUX@_ToolInfo Properties
1070
           8
1000
Insert^JArc^JTanToTwoEntities@Arc TanToTwoEntities
1002
}
  0
LINE
  5
197
100
AcDbEntity
  8
Exterior View
370
           0
  6
Continuous
 62
           7
100
AcDbLine
 10
-2.563631657489
 20
2.923125012891
 30
0.0
 11
-2.535215915372
 21
2.936129207897
 31
0.0
  0
LINE
  5
198
100
AcDbEntity
  8
Exterior View
370
           0
  6
Continuous
 62
           7
100
AcDbLine
 10
-2.911369946593
 20
3.382591366867
 30
0.0
 11
-2.729311306265
 21
2.984771173348
 31
0.0
1001
TCAD
1000
TCW_CUSTOM_DATA
1002
{
1000
#$AUX@_ToolInfo Properties
1070
           8
1000
Insert^JLine^JSingle@Line Single
1002
}
  0
LINE
  5
199
100
AcDbEntity
  8
Exterior View
370
           0
  6
Continuous
 62
           7
100
AcDbLine
 10
-3.109312606048
 20
2.913968098827
 30
0.0
 11
-2.768323873101
 21
3.070018359972
 31
0.0
1001
TCAD
1000
TCW_CUSTOM_DATA
1002
{
1000
#$AUX@_ToolInfo Properties
1070
           8
1000
Insert^JLine^JPerpendicular@Line Perpendicular
1002
}
  0
LINE
  5
19A
100
AcDbEntity
  8
Exterior View
370
           0
  6
Continuous
 62
           7
100
AcDbLine
 10
-3.213346113478
 20
3.141293920791
 30
0.0
 11
-2.872357380532
 21
3.297344181937
 31
0.0
1001
TCAD
1000
TCW_CUSTOM_DATA
1002
{
1000
#$AUX@_ToolInfo Properties
1070
           8
1000
Insert^JLine^JPerpendicular@Line Perpendicular
1002
}
  0
POINT
  5
19B
100
AcDbEntity
  8
Exterior View
  6
Continuous
 62
           7
100
AcDbPoint
 10
-3.77969707531
 20
3.779543960674
 30
0.0
1001
TCAD
1000
TCW_CUSTOM_DATA
1002
{
1000
#$AUX@_ToolInfo Properties
1070
           8
1000
Insert^JPoint^JCross@Point Cross
1002
}
1000
TC25ExternalObject
1002
{
1000
TCW30POINT
1000

1070
           0
1071
        0
1040
1.0
1040
0.0
1000
Continuous
1000
Exterior View
1070
          21
1071
        1
1071
      242
1010
-3.77969707531
1020
3.779543960674
1030
0.0
1070
           3
1071
-2147483645
1070
           1
1000
#$AUX@_ToolInfo Properties
1070
           8
1000
Insert^JPoint^JCross@Point Cross
1000
$POINTSIZE
1070
           5
1040
0.25
1000
$POINTTYPE
1070
          18
1070
           3
1000
ExplodeScale
1070
           5
1040
1.0
1002
}
  0
CIRCLE
  5
19C
100
AcDbEntity
  8
Exterior View
370
           0
  6
Continuous
 62
           7
100
AcDbCircle
 10
-3.77969707531
 20
3.779543960674
 30
0.0
 40
0.125000000001
1001
TCAD
1000
TCW_CUSTOM_DATA
1002
{
1000
#$AUX@_ToolInfo Properties
1070
           8
1000
Insert^JCircle^JCenterAndPoint@Circle CenterAndPoint
1002
}
  0
LINE
  5
19D
100
AcDbEntity
  8
Exterior View
370
           0
  6
Continuous
 62
           7
100
AcDbLine
 10
-3.6843124678
 20
4.301562484438
 30
0.0
 11
-4.207129459672
 21
4.094032623905
 31
0.0
1001
TCAD
1000
TCW_CUSTOM_DATA
1002
{
1000
#$AUX@_ToolInfo Properties
1070
           8
1000
Insert^JLine^JSingle@Line Single
1002
}
  0
LINE
  5
19E
100
AcDbEntity
  8
Exterior View
370
           0
  6
Continuous
 62
           7
100
AcDbLine
 10
-3.518288579374
 20
3.883308890941
 30
0.0
 11
-3.6843124678
 21
4.301562484438
 31
0.0
1001
TCAD
1000
TCW_CUSTOM_DATA
1002
{
1000
#$AUX@_ToolInfo Properties
1070
           8
1000
Insert^JLine^JSingle@Line Single
1002
}
  0
CIRCLE
  5
19F
100
AcDbEntity
  8
Exterior View
370
           0
  6
Continuous
 62
           7
100
AcDbCircle
 10
-4.055606285371
 20
3.458204773164
 30
0.0
 40
0.05
1001
TCAD
1000
TCW_CUSTOM_DATA
1002
{
1000
#$AUX@_ToolInfo Properties
1070
           8
1000
Insert^JCircle^JCenterAndPoint@Circle CenterAndPoint
1002
}
  0
ARC
  5
1A0
100
AcDbEntity
  8
Exterior View
370
           0
  6
Continuous
 62
           7
100
AcDbCircle
 10
-4.055606285371
 20
3.458204773164
 30
0.0
 40
0.084375
100
AcDbArc
 50
153.42277522708
 51
291.650380890769
1001
TCAD
1000
TCW_CUSTOM_DATA
1002
{
1000
#$AUX@_ToolInfo Properties
1070
           8
1000
Insert^JArc^JCenterAndPoint@Arc CenterAndPoint
1002
}
  0
LINE
  5
1A1
100
AcDbEntity
  8
Exterior View
370
           0
  6
Continuous
 62
           7
100
AcDbLine
 10
-4.024476806291
 20
3.379782224383
 30
0.0
 11
-3.675932145043
 21
3.518135464739
 31
0.0
1001
TCAD
1000
TCW_CUSTOM_DATA
1002
{
1000
#$AUX@_ToolInfo Properties
1070
           8
1000
Insert^JLine^JSingle@Line Single
1002
}
  0
ARC
  5
1A2
100
AcDbEntity
  8
Exterior View
370
           0
  6
Continuous
 62
           7
100
AcDbCircle
 10
-3.77969707531
 20
3.779543960674
 30
0.0
 40
0.281250000001
100
AcDbArc
 50
-158.349611330988
 51
21.650380890761
  0
LINE
  5
1A3
100
AcDbEntity
  8
Exterior View
370
           0
  6
Continuous
 62
           7
100
AcDbLine
 10
-4.207129459672
 20
4.094032623905
 30
0.0
 11
-4.041105557159
 21
3.67577899492
 31
0.0
1001
TCAD
1000
TCW_CUSTOM_DATA
1002
{
1000
#$AUX@_ToolInfo Properties
1070
           8
1000
Insert^JLine^JPerpendicular@Line Perpendicular
1002
}
  0
LINE
  5
1A4
100
AcDbEntity
  8
Exterior View
370
           0
  6
Continuous
 62
           7
100
AcDbLine
 10
-4.131065565882
 20
3.49595444349
 30
0.0
 11
-4.041105557159
 21
3.67577899492
 31
0.0
1001
TCAD
1000
TCW_CUSTOM_DATA
1002
{
1000
#$AUX@_ToolInfo Properties
1070
           8
1000
Insert^JLine^JTanFromArc@Line TanFromArc
1002
}
  0
ARC
  5
1A5
100
AcDbEntity
  8
Exterior View
370
           0
  6
Continuous
 62
           7
100
AcDbCircle
 10
-3.134812930124
 20
4.357171010604
 30
0.0
 40
0.343750000001
100
AcDbArc
 50
-68.349619109236
 51
111.650386222573
  0
ARC
  5
1A6
100
AcDbEntity
  8
Exterior View
370
           0
  6
Continuous
 62
           7
100
AcDbCircle
 10
-3.083152261687
 20
4.142323854846
 30
0.0
 40
0.125000000001
100
AcDbArc
 50
-158.349619109235
 51
-68.349619109234
1001
TCAD
1000
TCW_CUSTOM_DATA
1002
{
1000
#$AUX@_ToolInfo Properties
1070
           8
1000
Insert^JArc^JTanToTwoEntities@Arc TanToTwoEntities
1002
}
  0
ARC
  5
1A7
100
AcDbEntity
  8
Exterior View
370
           0
  6
Continuous
 62
           7
100
AcDbCircle
 10
-3.244564375435
 20
4.548959292969
 30
0.0
 40
0.125000000001
100
AcDbArc
 50
111.650380890766
 51
201.650380890765
1001
TCAD
1000
TCW_CUSTOM_DATA
1002
{
1000
#$AUX@_ToolInfo Properties
1070
           8
1000
Insert^JArc^JTanToTwoEntities@Arc TanToTwoEntities
1002
}
  0
LINE
  5
1A8
100
AcDbEntity
  8
Exterior View
370
           0
  6
Continuous
 62
           7
100
AcDbLine
 10
-3.037034529592
 20
4.026142295266
 30
0.0
 11
-3.007989126465
 21
4.037671737793
 31
0.0
  0
LINE
  5
1A9
100
AcDbEntity
  8
Exterior View
370
           0
  6
Continuous
 62
           7
100
AcDbLine
 10
-3.360745929872
 20
4.502841547915
 30
0.0
 11
-3.199333814062
 21
4.096206104599
 31
0.0
1001
TCAD
1000
TCW_CUSTOM_DATA
1002
{
1000
#$AUX@_ToolInfo Properties
1070
           8
1000
Insert^JLine^JSingle@Line Single
1002
}
  0
LINE
  5
1AA
100
AcDbEntity
  8
Exterior View
370
           0
  6
Continuous
 62
           7
100
AcDbLine
 10
-3.29068212222
 20
4.665140846718
 30
0.0
 11
-3.261636763515
 21
4.676670271612
 31
0.0
  0
LINE
  5
1AB
100
AcDbEntity
  8
Exterior View
370
           0
  6
Continuous
 62
           7
100
AcDbLine
 10
-3.582466786773
 20
4.044989033018
 30
0.0
 11
-3.233922125525
 21
4.183342273373
 31
0.0
1001
TCAD
1000
TCW_CUSTOM_DATA
1002
{
1000
#$AUX@_ToolInfo Properties
1070
           8
1000
Insert^JLine^JPerpendicular@Line Perpendicular
1002
}
  0
LINE
  5
1AC
100
AcDbEntity
  8
Exterior View
370
           0
  6
Continuous
 62
           7
100
AcDbLine
 10
-3.674702280343
 20
4.277352140516
 30
0.0
 11
-3.326157619096
 21
4.415705380872
 31
0.0
1001
TCAD
1000
TCW_CUSTOM_DATA
1002
{
1000
#$AUX@_ToolInfo Properties
1070
           8
1000
Insert^JLine^JPerpendicular@Line Perpendicular
1002
}
  0
ARC
  5
1AD
100
AcDbEntity
  8
Exterior View
370
           0
  6
Continuous
 62
           7
100
AcDbCircle
 10
-24.705190612821
 20
0.680115142584
 30
0.0
 40
19.783457622677
100
AcDbArc
 50
3.124042394103
 51
10.989013984635
1001
TCAD
1000
TCW_CUSTOM_DATA
1002
{
1000
#$AUX@_ToolInfo Properties
1070
           8
1000
Insert^JArc^JTriplePoint132@Arc TriplePoint132
1002
}
  0
ARC
  5
1AE
100
AcDbEntity
  8
Exterior View
370
           0
  6
Continuous
 62
           7
100
AcDbCircle
 10
-0.226831726428
 20
1.251725918509
 30
0.0
 40
2.773646695531
100
AcDbArc
 50
156.884667053446
 51
186.718151919127
1001
TCAD
1000
TCW_CUSTOM_DATA
1002
{
1000
#$AUX@_ToolInfo Properties
1070
           8
1000
Insert^JArc^JTriplePoint132@Arc TriplePoint132
1002
}
  0
ARC
  5
1AF
100
AcDbEntity
  8
Exterior View
370
           0
  6
Continuous
 62
           7
100
AcDbCircle
 10
14.868792697651
 20
11.283932011907
 30
0.0
 40
19.783457622677
100
AcDbArc
 50
-160.989013984635
 51
-153.124042394103
1001
TCAD
1000
TCW_CUSTOM_DATA
1002
{
1000
#$AUX@_ToolInfo Properties
1070
           8
1000
Insert^JArc^JTriplePoint132@Arc TriplePoint132
1002
}
  0
ARC
  5
1B0
100
AcDbEntity
  8
Exterior View
370
           0
  6
Continuous
 62
           7
100
AcDbCircle
 10
-5.514438243853
 20
8.207218887068
 30
0.0
 40
3.762998305879
100
AcDbArc
 50
-86.496563017582
 51
-63.503436982427
1001
TCAD
1000
TCW_CUSTOM_DATA
1002
{
1000
#$AUX@_ToolInfo Properties
1070
           8
1000
Insert^JArc^JTriplePoint132@Arc TriplePoint132
1002
}
  0
LINE
  5
1B1
100
AcDbEntity
  8
Exterior View
370
           0
  6
Continuous
 62
           7
100
AcDbLine
 10
-3.524766834626
 20
0.781664097465
 30
0.0
 11
-4.540502615603
 21
4.572441639138
 31
0.0
1001
TCAD
1000
TCW_CUSTOM_DATA
1002
{
1000
#$AUX@_ToolInfo Properties
1070
           8
1000
Insert^JLine^JPerpendicular@Line Perpendicular
1002
}
  0
ELLIPSE
  5
1B2
100
AcDbEntity
  8
Exterior View
370
           0
  6
Continuous
 62
           7
100
AcDbEllipse
 10
9.687492393778
 20
-31.062502969858
 30
0.0
 11
0.0
 21
-0.6253459849806053
 31
0.0
210
0.0
220
0.0
230
1.0
 40
0.599680751519
 41
1.5721508322401956
 42
4.7110344749479971
1001
TCAD
1000
TCW_CUSTOM_DATA
1002
{
1000
#$AUX@_ToolInfo Properties
1070
           8
1000
Insert^JArc^JTriplePoint132@Arc TriplePoint132
1002
}
  0
ELLIPSE
  5
1B3
100
AcDbEntity
  8
Exterior View
370
           0
  6
Continuous
 62
           7
100
AcDbEllipse
 10
9.687492393778
 20
-31.062502969858
 30
0.0
 11
0.0
 21
-0.6253459849806053
 31
0.0
210
0.0
220
0.0
230
1.0
 40
0.599680751519
 41
1.5721508322401956
 42
4.7110344749479971
1001
TCAD
1000
TCW_CUSTOM_DATA
1002
{
1000
#$AUX@_ToolInfo Properties
1070
           8
1000
Insert^JArc^JTriplePoint132@Arc TriplePoint132
1002
}
  0
ARC
  5
1B4
100
AcDbEntity
  8
Exterior View
370
           0
  6
Continuous
 62
           7
100
AcDbCircle
 10
17.81327947244
 20
-43.443251775925
 30
0.0
 40
12.849900396559
100
AcDbArc
 50
154.750623041561
 51
156.777162132943
  0
ARC
  5
1B5
100
AcDbEntity
  8
Exterior View
370
           0
  6
Continuous
 62
           7
100
AcDbCircle
 10
9.129026616535
 20
-39.717078156837
 30
0.0
 40
3.4
100
AcDbArc
 50
156.777162084909
 51
246.422233002763
  0
ARC
  5
1B6
100
AcDbEntity
  8
Exterior View
370
           0
  6
Continuous
 62
           7
100
AcDbCircle
 10
9.69140625
 20
-38.144733749327
 30
0.0
 40
5.06727671409
100
AcDbArc
 50
-112.319195955455
 51
-90.0
  0
ARC
  5
1B7
100
AcDbEntity
  8
Exterior View
370
           0
  6
Continuous
 62
           7
100
AcDbCircle
 10
9.683489524992
 20
-38.144733911133
 30
0.0
 40
5.06727671409
100
AcDbArc
 50
-89.997657916765
 51
-67.67846196131
  0
ARC
  5
1B8
100
AcDbEntity
  8
Exterior View
370
           0
  6
Continuous
 62
           7
100
AcDbCircle
 10
10.245840515572
 20
-39.717086151848
 30
0.0
 40
3.4
100
AcDbArc
 50
-66.423053337056
 51
23.222017580798
  0
ARC
  5
1B9
100
AcDbEntity
  8
Exterior View
370
           0
  6
Continuous
 62
           7
100
AcDbCircle
 10
1.561534310937
 20
-43.443135433465
 30
0.0
 40
12.849900396559
100
AcDbArc
 50
23.222017532764
 51
25.355463858774
  0
ARC
  5
1BA
100
AcDbEntity
  8
Exterior View
370
           0
  6
Continuous
 62
           7
100
AcDbCircle
 10
17.813279472441
 20
-43.443251775925
 30
0.0
 40
12.631150396559
100
AcDbArc
 50
154.750614970281
 51
156.777162132943
  0
ARC
  5
1BB
100
AcDbEntity
  8
Exterior View
370
           0
  6
Continuous
 62
           7
100
AcDbCircle
 10
9.129026616535
 20
-39.717078156837
 30
0.0
 40
3.18125
100
AcDbArc
 50
156.777162084909
 51
246.422233002764
  0
ARC
  5
1BC
100
AcDbEntity
  8
Exterior View
370
           0
  6
Continuous
 62
           7
100
AcDbCircle
 10
9.69140625
 20
-38.144733749327
 30
0.0
 40
4.84852671409
100
AcDbArc
 50
-112.319195955455
 51
-105.031496409483
  0
ARC
  5
1BD
100
AcDbEntity
  8
Exterior View
370
           0
  6
Continuous
 62
           7
100
AcDbCircle
 10
10.245840515572
 20
-39.717086151848
 30
0.0
 40
3.18125
100
AcDbArc
 50
-66.423053337056
 51
23.222017580798
  0
ARC
  5
1BE
100
AcDbEntity
  8
Exterior View
370
           0
  6
Continuous
 62
           7
100
AcDbCircle
 10
9.683489524992
 20
-38.144733911133
 30
0.0
 40
4.84852671409
100
AcDbArc
 50
-74.966376992826
 51
-67.67846196131
  0
ARC
  5
1BF
100
AcDbEntity
  8
Exterior View
370
           0
  6
Continuous
 62
           7
100
AcDbCircle
 10
1.561534310937
 20
-43.443135433465
 30
0.0
 40
12.631150396558
100
AcDbArc
 50
23.222017532764
 51
25.350474828674
  0
ARC
  5
1C0
100
AcDbEntity
  8
Exterior View
370
           0
  6
Continuous
 62
           7
100
AcDbCircle
 10
23.738327894416
 20
-48.631223239352
 30
0.0
 40
20.648980718591
100
AcDbArc
 50
141.028956363475
 51
148.028878907885
  0
ARC
  5
1C1
100
AcDbEntity
  8
Exterior View
370
           0
  6
Continuous
 62
           7
100
AcDbCircle
 10
8.04777673964
 20
-38.837671729511
 30
0.0
 40
2.152844724375
100
AcDbArc
 50
148.028878803493
 51
154.750626709727
  0
ARC
  5
1C2
100
AcDbEntity
  8
Exterior View
370
           0
  6
Continuous
 62
           7
100
AcDbCircle
 10
11.327215871827
 20
-38.837658338986
 30
0.0
 40
2.152844724375
100
AcDbArc
 50
25.249841187693
 51
31.971589093927
  0
ARC
  5
1C3
100
AcDbEntity
  8
Exterior View
370
           0
  6
Continuous
 62
           7
100
AcDbCircle
 10
1.996703971136
 20
-31.043416424319
 30
0.0
 40
7.315803553517
100
AcDbArc
 50
-38.97087697027
 51
-0.14284801962
  0
ARC
  5
1C4
100
AcDbEntity
  8
Exterior View
370
           0
  6
Continuous
 62
           7
100
AcDbCircle
 10
-4.363473363199
 20
-48.6311226448
 30
0.0
 40
20.648980718591
100
AcDbArc
 50
31.970710894689
 51
38.970633439099
  0
ARC
  5
1C5
100
AcDbEntity
  8
Exterior View
370
           0
  6
Continuous
 62
           7
100
AcDbCircle
 10
17.378276475833
 20
-31.043471484932
 30
0.0
 40
7.315803553517
100
AcDbArc
 50
-179.857562177806
 51
-141.029533227156
  0
ARC
  5
1C6
100
AcDbEntity
  8
Exterior View
370
           0
  6
Continuous
 62
           7
100
AcDbCircle
 10
23.738327894415
 20
-48.631223239351
 30
0.0
 40
20.54898071859
100
AcDbArc
 50
141.028956363475
 51
148.028878907885
  0
ARC
  5
1C7
100
AcDbEntity
  8
Exterior View
370
           0
  6
Continuous
 62
           7
100
AcDbCircle
 10
23.738327894415
 20
-48.631223239351
 30
0.0
 40
20.54898071859
100
AcDbArc
 50
141.028956363475
 51
148.028878907885
  0
ARC
  5
1C8
100
AcDbEntity
  8
Exterior View
370
           0
  6
Continuous
 62
           7
100
AcDbCircle
 10
8.047776739639
 20
-38.837671729511
 30
0.0
 40
2.052844724374
100
AcDbArc
 50
148.028878803491
 51
154.750626709729
  0
ARC
  5
1C9
100
AcDbEntity
  8
Exterior View
370
           0
  6
Continuous
 62
           7
100
AcDbCircle
 10
1.996703971136
 20
-31.043416424319
 30
0.0
 40
7.415803553517
100
AcDbArc
 50
-38.97087697027
 51
-0.14284801962
  0
ARC
  5
1CA
100
AcDbEntity
  8
Exterior View
370
           0
  6
Continuous
 62
           7
100
AcDbCircle
 10
17.378276475833
 20
-31.043471484932
 30
0.0
 40
7.415803553517
100
AcDbArc
 50
-179.857562177806
 51
-141.029533227156
  0
ARC
  5
1CB
100
AcDbEntity
  8
Exterior View
370
           0
  6
Continuous
 62
           7
100
AcDbCircle
 10
-4.363473363202
 20
-48.631122644802
 30
0.0
 40
20.548980718593
100
AcDbArc
 50
31.97071089469
 51
38.970633439099
  0
ARC
  5
1CC
100
AcDbEntity
  8
Exterior View
370
           0
  6
Continuous
 62
           7
100
AcDbCircle
 10
-4.363473363202
 20
-48.631122644802
 30
0.0
 40
20.548980718593
100
AcDbArc
 50
31.97071089469
 51
38.970633439099
  0
ARC
  5
1CD
100
AcDbEntity
  8
Exterior View
370
           0
  6
Continuous
 62
           7
100
AcDbCircle
 10
11.327215871826
 20
-38.837658338987
 30
0.0
 40
2.052844724376
100
AcDbArc
 50
25.918182819228
 51
31.971589093925
  0
ARC
  5
1CE
100
AcDbEntity
  8
Exterior View
370
           0
  6
Continuous
 62
           7
100
AcDbCircle
 10
23.738327894413
 20
-48.63122323935
 30
0.0
 40
20.330230718589
100
AcDbArc
 50
141.028956363474
 51
148.028878907886
  0
ARC
  5
1CF
100
AcDbEntity
  8
Exterior View
370
           0
  6
Continuous
 62
           7
100
AcDbCircle
 10
23.738327894413
 20
-48.63122323935
 30
0.0
 40
20.330230718589
100
AcDbArc
 50
141.028956363474
 51
148.028878907886
  0
ARC
  5
1D0
100
AcDbEntity
  8
Exterior View
370
           0
  6
Continuous
 62
           7
100
AcDbCircle
 10
8.04777673964
 20
-38.837671729511
 30
0.0
 40
1.834094724374
100
AcDbArc
 50
148.028878803493
 51
154.750626709729
  0
ARC
  5
1D1
100
AcDbEntity
  8
Exterior View
370
           0
  6
Continuous
 62
           7
100
AcDbCircle
 10
1.996703971136
 20
-31.043416424319
 30
0.0
 40
7.634553553517
100
AcDbArc
 50
-38.97087697027
 51
-31.760451606864
  0
ARC
  5
1D2
100
AcDbEntity
  8
Exterior View
370
           0
  6
Continuous
 62
           7
100
AcDbCircle
 10
17.378276475833
 20
-31.043471484932
 30
0.0
 40
7.634553553517
100
AcDbArc
 50
-148.240034385076
 51
-141.029533227156
  0
ARC
  5
1D3
100
AcDbEntity
  8
Exterior View
370
           0
  6
Continuous
 62
           7
100
AcDbCircle
 10
-4.363473363204
 20
-48.631122644803
 30
0.0
 40
20.330230718595
100
AcDbArc
 50
31.970710894691
 51
38.970633439098
  0
ARC
  5
1D4
100
AcDbEntity
  8
Exterior View
370
           0
  6
Continuous
 62
           7
100
AcDbCircle
 10
-4.363473363204
 20
-48.631122644803
 30
0.0
 40
20.330230718595
100
AcDbArc
 50
31.970710894691
 51
38.970633439098
  0
ARC
  5
1D5
100
AcDbEntity
  8
Exterior View
370
           0
  6
Continuous
 62
           7
100
AcDbCircle
 10
11.327215871825
 20
-38.837658338987
 30
0.0
 40
1.834094724377
100
AcDbArc
 50
25.918182819228
 51
31.971589093923
  0
LINE
  5
1D6
100
AcDbEntity
  8
Exterior View
370
           0
  6
Continuous
 62
           7
100
AcDbLine
 10
9.687551455142
 20
-42.58701062099
 30
0.0
 11
10.753628684279
 21
-42.58701062099
 31
0.0
1001
TCAD
1000
TCW_CUSTOM_DATA
1002
{
1000
#$AUX@_ToolInfo Properties
1070
           8
1000
Insert^JLine^JPerpendicular@Line Perpendicular
1002
}
  0
ARC
  5
1D7
100
AcDbEntity
  8
Exterior View
370
           0
  6
Continuous
 62
           7
100
AcDbCircle
 10
10.753628684279
 20
-42.77451062099
 30
0.0
 40
0.1875
100
AcDbArc
 50
-0.000006613302
 51
90.0
  0
LINE
  5
1D8
100
AcDbEntity
  8
Exterior View
370
           0
  6
Continuous
 62
           7
100
AcDbLine
 10
8.433772338349
 20
-42.774524812947
 30
0.0
 11
8.433775493331
 21
-43.053478785896
 31
0.0
1001
TCAD
1000
TCW_CUSTOM_DATA
1002
{
1000
#$AUX@_ToolInfo Properties
1070
           8
1000
Insert^JLine^JPerpendicular@Line Perpendicular
1002
}
  0
LINE
  5
1D9
100
AcDbEntity
  8
Exterior View
370
           0
  6
Continuous
 62
           7
100
AcDbLine
 10
9.687347446773
 20
-42.587010622144
 30
0.0
 11
8.621270217704
 21
-42.587022679523
 31
0.0
1001
TCAD
1000
TCW_CUSTOM_DATA
1002
{
1000
#$AUX@_ToolInfo Properties
1070
           8
1000
Insert^JLine^JPerpendicular@Line Perpendicular
1002
}
  0
ARC
  5
1DA
100
AcDbEntity
  8
Exterior View
370
           0
  6
Continuous
 62
           7
100
AcDbCircle
 10
8.621272338337
 20
-42.774522679511
 30
0.0
 40
0.1875
100
AcDbArc
 50
90.000648017704
 51
180.000654631004
  0
ELLIPSE
  5
1DB
100
AcDbEntity
  8
Exterior View
370
           0
  6
Continuous
 62
           7
100
AcDbEllipse
 10
9.687492393778
 20
-6.944053688704
 30
0.0
 11
0.0
 21
-0.6253459849806053
 31
0.0
210
0.0
220
0.0
230
1.0
 40
0.599680751519
 41
1.5721508322401956
 42
4.7110344749479971
1001
TCAD
1000
TCW_CUSTOM_DATA
1002
{
1000
#$AUX@_ToolInfo Properties
1070
           8
1000
Insert^JArc^JTriplePoint132@Arc TriplePoint132
1002
}
  0
LINE
  5
1DC
100
AcDbEntity
  8
Exterior View
370
           0
  6
Continuous
 62
           7
100
AcDbLine
 10
1.847426919786
 20
-42.774510633793
 30
0.0
 11
1.847426919786
 21
-43.053464606759
 31
0.0
1001
TCAD
1000
TCW_CUSTOM_DATA
1002
{
1000
#$AUX@_ToolInfo Properties
1070
           8
1000
Insert^JLine^JPerpendicular@Line Perpendicular
1002
}
  0
LINE
  5
1DD
100
AcDbEntity
  8
Exterior View
370
           0
  6
Continuous
 62
           7
100
AcDbLine
 10
0.593849690649
 20
-42.587010620989
 30
0.0
 11
1.659926919786
 21
-42.587010620989
 31
0.0
1001
TCAD
1000
TCW_CUSTOM_DATA
1002
{
1000
#$AUX@_ToolInfo Properties
1070
           8
1000
Insert^JLine^JPerpendicular@Line Perpendicular
1002
}
  0
ARC
  5
1DE
100
AcDbEntity
  8
Exterior View
370
           0
  6
Continuous
 62
           7
100
AcDbCircle
 10
1.659926919786
 20
-42.774510620989
 30
0.0
 40
0.1875
100
AcDbArc
 50
-0.000006613302
 51
90.0
  0
LINE
  5
1DF
100
AcDbEntity
  8
Exterior View
370
           0
  6
Continuous
 62
           7
100
AcDbLine
 10
-0.659929426144
 20
-42.774524812946
 30
0.0
 11
-0.659926271162
 21
-43.053478785895
 31
0.0
1001
TCAD
1000
TCW_CUSTOM_DATA
1002
{
1000
#$AUX@_ToolInfo Properties
1070
           8
1000
Insert^JLine^JPerpendicular@Line Perpendicular
1002
}
  0
LINE
  5
1E0
100
AcDbEntity
  8
Exterior View
370
           0
  6
Continuous
 62
           7
100
AcDbLine
 10
0.59364568228
 20
-42.587010622143
 30
0.0
 11
-0.472431546789
 21
-42.587022679522
 31
0.0
1001
TCAD
1000
TCW_CUSTOM_DATA
1002
{
1000
#$AUX@_ToolInfo Properties
1070
           8
1000
Insert^JLine^JPerpendicular@Line Perpendicular
1002
}
  0
ARC
  5
1E1
100
AcDbEntity
  8
Exterior View
370
           0
  6
Continuous
 62
           7
100
AcDbCircle
 10
-0.472429426156
 20
-42.77452267951
 30
0.0
 40
0.1875
100
AcDbArc
 50
90.000648017704
 51
180.000654631004
  0
ARC
  5
1E2
100
AcDbEntity
  8
Exterior View
370
           0
  6
Continuous
 62
           7
100
AcDbCircle
 10
0.035324852043
 20
-39.717078156667
 30
0.0
 40
3.4
100
AcDbArc
 50
156.777162084909
 51
246.422233002764
  0
ARC
  5
1E3
100
AcDbEntity
  8
Exterior View
370
           0
  6
Continuous
 62
           7
100
AcDbCircle
 10
0.597682233292
 20
-38.144733749507
 30
0.0
 40
5.167276714091
100
AcDbArc
 50
-112.319195955455
 51
-90.0
  0
ARC
  5
1E4
100
AcDbEntity
  8
Exterior View
370
           0
  6
Continuous
 62
           7
100
AcDbCircle
 10
9.781455187907
 20
-30.853786086261
 30
0.0
 40
8.456867859856
100
AcDbArc
 50
-178.589134966787
 51
-143.977225179991
  0
ARC
  5
1E5
100
AcDbEntity
  8
Exterior View
370
           0
  6
Continuous
 62
           7
100
AcDbCircle
 10
-7.531981236933
 20
-43.443251775754
 30
0.0
 40
12.949900396559
100
AcDbArc
 50
23.222837867055
 51
36.02277482001
  0
ARC
  5
1E6
100
AcDbEntity
  8
Exterior View
370
           0
  6
Continuous
 62
           7
100
AcDbCircle
 10
1.152271618973
 20
-39.717078156667
 30
0.0
 40
3.5
100
AcDbArc
 50
-66.422233002766
 51
23.222837915088
  0
ARC
  5
1E7
100
AcDbEntity
  8
Exterior View
370
           0
  6
Continuous
 62
           7
100
AcDbCircle
 10
0.589914237724
 20
-38.144733749507
 30
0.0
 40
5.167276714091
100
AcDbArc
 50
-90.000000000002
 51
-67.680804044548
  0
ARC
  5
1E8
100
AcDbEntity
  8
Exterior View
370
           0
  6
Continuous
 62
           7
100
AcDbCircle
 10
0.597682233292
 20
-38.144733749507
 30
0.0
 40
5.06727671409
100
AcDbArc
 50
-112.319195955455
 51
-90.043916430038
  0
ARC
  5
1E9
100
AcDbEntity
  8
Exterior View
370
           0
  6
Continuous
 62
           7
100
AcDbCircle
 10
0.589914237724
 20
-38.144733749508
 30
0.0
 40
5.06727671409
100
AcDbArc
 50
-89.95608357029
 51
-67.680804044547
  0
ARC
  5
1EA
100
AcDbEntity
  8
Exterior View
370
           0
  6
Continuous
 62
           7
100
AcDbCircle
 10
1.152271618973
 20
-39.717078156667
 30
0.0
 40
3.4
100
AcDbArc
 50
-66.422233002766
 51
23.222837915088
  0
ARC
  5
1EB
100
AcDbEntity
  8
Exterior View
370
           0
  6
Continuous
 62
           7
100
AcDbCircle
 10
-7.531981236933
 20
-43.443251775754
 30
0.0
 40
12.849900396559
100
AcDbArc
 50
23.222837867055
 51
36.022774820009
  0
ARC
  5
1EC
100
AcDbEntity
  8
Exterior View
370
           0
  6
Continuous
 62
           7
100
AcDbCircle
 10
8.719577707948
 20
-43.443251775754
 30
0.0
 40
12.849900396559
100
AcDbArc
 50
143.977225179988
 51
156.777162132943
  0
ARC
  5
1ED
100
AcDbEntity
  8
Exterior View
370
           0
  6
Continuous
 62
           7
100
AcDbCircle
 10
-8.59385871689
 20
-30.853786086261
 30
0.0
 40
8.556867859856
100
AcDbArc
 50
-36.022774820012
 51
-1.410865033215
  0
ARC
  5
1EE
100
AcDbEntity
  8
Exterior View
370
           0
  6
Continuous
 62
           7
100
AcDbCircle
 10
9.781455187907
 20
-30.853786086261
 30
0.0
 40
8.556867859856
100
AcDbArc
 50
-178.589134966787
 51
-143.97722517999
  0
ARC
  5
1EF
100
AcDbEntity
  8
Exterior View
370
           0
  6
Continuous
 62
           7
100
AcDbCircle
 10
-8.59385871689
 20
-30.853786086261
 30
0.0
 40
8.775617859856
100
AcDbArc
 50
-36.022774820012
 51
-28.655088545885
  0
ARC
  5
1F0
100
AcDbEntity
  8
Exterior View
370
           0
  6
Continuous
 62
           7
100
AcDbCircle
 10
8.719577707948
 20
-43.443251775754
 30
0.0
 40
12.631150396559
100
AcDbArc
 50
143.977225179988
 51
156.777162132943
  0
ARC
  5
1F1
100
AcDbEntity
  8
Exterior View
370
           0
  6
Continuous
 62
           7
100
AcDbCircle
 10
0.035324852043
 20
-39.717078156667
 30
0.0
 40
3.18125
100
AcDbArc
 50
156.777162084909
 51
246.422233002764
  0
ARC
  5
1F2
100
AcDbEntity
  8
Exterior View
370
           0
  6
Continuous
 62
           7
100
AcDbCircle
 10
0.597682233292
 20
-38.144733749507
 30
0.0
 40
4.84852671409
100
AcDbArc
 50
-112.319195955455
 51
-105.033279214404
  0
ARC
  5
1F3
100
AcDbEntity
  8
Exterior View
370
           0
  6
Continuous
 62
           7
100
AcDbCircle
 10
0.589914237724
 20
-38.144733749507
 30
0.0
 40
4.84852671409
100
AcDbArc
 50
-74.96792455527
 51
-67.680804044548
  0
ARC
  5
1F4
100
AcDbEntity
  8
Exterior View
370
           0
  6
Continuous
 62
           7
100
AcDbCircle
 10
1.152271618973
 20
-39.717078156667
 30
0.0
 40
3.18125
100
AcDbArc
 50
-66.422233002766
 51
23.222837915088
  0
ARC
  5
1F5
100
AcDbEntity
  8
Exterior View
370
           0
  6
Continuous
 62
           7
100
AcDbCircle
 10
-7.531981236933
 20
-43.443251775754
 30
0.0
 40
12.631150396559
100
AcDbArc
 50
23.222837867055
 51
36.022774820009
  0
ARC
  5
1F6
100
AcDbEntity
  8
Exterior View
370
           0
  6
Continuous
 62
           7
100
AcDbCircle
 10
9.781455187907
 20
-30.853786086261
 30
0.0
 40
8.775617859856
100
AcDbArc
 50
-151.344911454117
 51
-143.97722517999
  0
ARC
  5
1F7
100
AcDbEntity
  8
Exterior View
370
           0
  6
Continuous
 62
           7
100
AcDbCircle
 10
-8.59385871689
 20
-6.735336805108
 30
0.0
 40
8.456867859856
100
AcDbArc
 50
-36.022774820012
 51
-1.410865033215
  0
ARC
  5
1F8
100
AcDbEntity
  8
Exterior View
370
           0
  6
Continuous
 62
           7
100
AcDbCircle
 10
8.719577707949
 20
-19.324802494602
 30
0.0
 40
12.949900396559
100
AcDbArc
 50
143.977225179988
 51
156.777162132943
  0
ARC
  5
1F9
100
AcDbEntity
  8
Exterior View
370
           0
  6
Continuous
 62
           7
100
AcDbCircle
 10
0.035324852043
 20
-15.598628875514
 30
0.0
 40
3.5
100
AcDbArc
 50
156.777162084909
 51
246.422233002764
  0
ARC
  5
1FA
100
AcDbEntity
  8
Exterior View
370
           0
  6
Continuous
 62
           7
100
AcDbCircle
 10
9.781455187907
 20
-6.735336805108
 30
0.0
 40
8.456867859856
100
AcDbArc
 50
-178.589134966787
 51
-143.977225179991
  0
ARC
  5
1FB
100
AcDbEntity
  8
Exterior View
370
           0
  6
Continuous
 62
           7
100
AcDbCircle
 10
-7.531981236932
 20
-19.324802494601
 30
0.0
 40
12.949900396559
100
AcDbArc
 50
23.222837867055
 51
36.02277482001
  0
ARC
  5
1FC
100
AcDbEntity
  8
Exterior View
370
           0
  6
Continuous
 62
           7
100
AcDbCircle
 10
1.152271618974
 20
-15.598628875514
 30
0.0
 40
3.5
100
AcDbArc
 50
-66.422233002766
 51
23.222837915088
  0
ARC
  5
1FD
100
AcDbEntity
  8
Exterior View
370
           0
  6
Continuous
 62
           7
100
AcDbCircle
 10
0.499843047602
 20
-6.735336805277
 30
0.0
 40
8.456867859856
100
AcDbArc
 50
-36.022774820012
 51
-1.410865033215
  0
ARC
  5
1FE
100
AcDbEntity
  8
Exterior View
370
           0
  6
Continuous
 62
           7
100
AcDbCircle
 10
17.81327947244
 20
-19.324802494771
 30
0.0
 40
12.949900396559
100
AcDbArc
 50
143.977225179988
 51
156.777162132943
  0
ARC
  5
1FF
100
AcDbEntity
  8
Exterior View
370
           0
  6
Continuous
 62
           7
100
AcDbCircle
 10
9.129026616535
 20
-15.598628875683
 30
0.0
 40
3.5
100
AcDbArc
 50
156.777162084909
 51
246.422233002764
  0
ARC
  5
200
100
AcDbEntity
  8
Exterior View
370
           0
  6
Continuous
 62
           7
100
AcDbCircle
 10
18.875150984109
 20
-6.735468349829
 30
0.0
 40
8.456867859856
100
AcDbArc
 50
-178.589955301078
 51
-143.978045514281
  0
ARC
  5
201
100
AcDbEntity
  8
Exterior View
370
           0
  6
Continuous
 62
           7
100
AcDbCircle
 10
1.561534310937
 20
-19.324686152311
 30
0.0
 40
12.949900396559
100
AcDbArc
 50
23.222017532764
 51
36.021954485719
  0
ARC
  5
202
100
AcDbEntity
  8
Exterior View
370
           0
  6
Continuous
 62
           7
100
AcDbCircle
 10
10.245840515572
 20
-15.598636870694
 30
0.0
 40
3.5
100
AcDbArc
 50
-66.423053337056
 51
23.222017580798
  0
ARC
  5
203
100
AcDbEntity
  8
Exterior View
370
           0
  6
Continuous
 62
           7
100
AcDbCircle
 10
23.738327894416
 20
-24.512773958198
 30
0.0
 40
20.648980718591
100
AcDbArc
 50
141.028956363475
 51
148.028878907885
  0
ARC
  5
204
100
AcDbEntity
  8
Exterior View
370
           0
  6
Continuous
 62
           7
100
AcDbCircle
 10
8.04777673964
 20
-14.719222448357
 30
0.0
 40
2.152844724375
100
AcDbArc
 50
148.028878803493
 51
154.750626709727
  0
ARC
  5
205
100
AcDbEntity
  8
Exterior View
370
           0
  6
Continuous
 62
           7
100
AcDbCircle
 10
11.327215871827
 20
-14.719209057833
 30
0.0
 40
2.152844724375
100
AcDbArc
 50
25.249841187693
 51
31.971589093927
  0
ARC
  5
206
100
AcDbEntity
  8
Exterior View
370
           0
  6
Continuous
 62
           7
100
AcDbCircle
 10
1.996703971136
 20
-6.924967143165
 30
0.0
 40
7.315803553517
100
AcDbArc
 50
-38.97087697027
 51
-0.14284801962
  0
ARC
  5
207
100
AcDbEntity
  8
Exterior View
370
           0
  6
Continuous
 62
           7
100
AcDbCircle
 10
-4.3634733632
 20
-24.512673363646
 30
0.0
 40
20.648980718591
100
AcDbArc
 50
31.970710894689
 51
38.970633439099
  0
ARC
  5
208
100
AcDbEntity
  8
Exterior View
370
           0
  6
Continuous
 62
           7
100
AcDbCircle
 10
17.378276475833
 20
-6.925022203778
 30
0.0
 40
7.315803553517
100
AcDbArc
 50
-179.857562177806
 51
-141.029533227156
  0
LINE
  5
209
100
AcDbEntity
  8
Exterior View
370
           0
  6
Continuous
 62
           7
100
AcDbLine
 10
8.22928418803
 20
-35.062008986939
 30
0.0
 11
11.145660757748
 21
-35.062008986939
 31
0.0
  0
LINE
  5
20A
100
AcDbEntity
  8
Exterior View
370
           0
  6
Continuous
 62
           7
100
AcDbLine
 10
-1.143298497064
 20
-35.062008986938
 30
0.0
 11
2.33089496808
 21
-35.062008986938
 31
0.0
  0
LINE
  5
20B
100
AcDbEntity
  8
Exterior View
370
           0
  6
Continuous
 62
           7
100
AcDbLine
 10
0.593798235494
 20
-43.212008975082
 30
0.0
 11
0.593798235508
 21
-43.312009003889
 31
0.0
1001
TCAD
1000
TCW_CUSTOM_DATA
1002
{
1000
#$AUX@_ToolInfo Properties
1070
           8
1000
Insert^JLine^JSingle@Line Single
1002
}
  0
LINE
  5
20C
100
AcDbEntity
  8
Exterior View
370
           0
  6
Continuous
 62
           7
100
AcDbLine
 10
9.687551455142
 20
-43.212008997201
 30
0.0
 11
9.68755349901
 21
-43.312009027101
 31
0.0
1001
TCAD
1000
TCW_CUSTOM_DATA
1002
{
1000
#$AUX@_ToolInfo Properties
1070
           8
1000
Insert^JLine^JSingle@Line Single
1002
}
  0
LINE
  5
20D
100
AcDbEntity
  8
Exterior View
370
           0
  6
Continuous
 62
           7
100
AcDbLine
 10
2.365425730856
 20
-35.545691447027
 30
0.0
 11
0.593798235508
 21
-38.427796258076
 31
0.0
  0
LINE
  5
20E
100
AcDbEntity
  8
Exterior View
370
           0
  6
Continuous
 62
           7
100
AcDbLine
 10
0.44707064484
 20
-38.66649445851
 30
0.0
 11
-1.797200519371
 21
-42.317501646336
 31
0.0
  0
LINE
  5
20F
100
AcDbEntity
  8
Exterior View
370
           0
  6
Continuous
 62
           7
100
AcDbLine
 10
2.516803641888
 20
-35.776824450642
 30
0.0
 11
0.740525826176
 21
-38.66649445851
 31
0.0
  0
LINE
  5
210
100
AcDbEntity
  8
Exterior View
370
           0
  6
Continuous
 62
           7
100
AcDbLine
 10
0.593798235508
 20
-38.905192658943
 30
0.0
 11
-1.587285363117
 21
-42.45340555889
 31
0.0
  0
LINE
  5
211
100
AcDbEntity
  8
Exterior View
370
           0
  6
Continuous
 62
           7
100
AcDbLine
 10
-1.17782925984
 20
-35.545691447028
 30
0.0
 11
2.984796990387
 21
-42.317501646336
 31
0.0
1001
TCAD
1000
TCW_CUSTOM_DATA
1002
{
1000
#$AUX@_ToolInfo Properties
1070
           8
1000
Insert^JLine^JSingle@Line Single
1002
}
  0
LINE
  5
212
100
AcDbEntity
  8
Exterior View
370
           0
  6
Continuous
 62
           7
100
AcDbLine
 10
-1.329207170873
 20
-35.776824450642
 30
0.0
 11
2.774881834133
 21
-42.45340555889
 31
0.0
1001
TCAD
1000
TCW_CUSTOM_DATA
1002
{
1000
#$AUX@_ToolInfo Properties
1070
           8
1000
Insert^JLine^JPerpendicular@Line Perpendicular
1002
}
  0
LINE
  5
213
100
AcDbEntity
  8
Exterior View
370
           0
  6
Continuous
 62
           7
100
AcDbLine
 10
-5.8125
 20
-13.878400257476
 30
0.0
 11
-5.649223105955
 21
-13.878400257476
 31
0.0
1001
TCAD
1000
TCW_CUSTOM_DATA
1002
{
1000
#$AUX@_ToolInfo Properties
1070
           8
1000
Insert^JLine^JPerpendicular@Line Perpendicular
1002
}
  0
LINE
  5
214
100
AcDbEntity
  8
Exterior View
370
           0
  6
Continuous
 62
           7
100
AcDbLine
 10
-5.734327942142
 20
0.056323967305
 30
0.0
 11
-5.649223105955
 21
-13.806922086807
 31
0.0
1001
TCAD
1000
TCW_CUSTOM_DATA
1002
{
1000
#$AUX@_ToolInfo Properties
1070
           8
1000
Insert^JLine^JTanFromArc@Line TanFromArc
1002
}
  0
LINE
  5
215
100
AcDbEntity
  8
Exterior View
370
           0
  6
Continuous
 62
           7
100
AcDbLine
 10
-5.999951764492
 20
-13.806922086807
 30
0.0
 11
-5.649223105955
 21
-13.806922086807
 31
0.0
1001
TCAD
1000
TCW_CUSTOM_DATA
1002
{
1000
#$AUX@_ToolInfo Properties
1070
           8
1000
Insert^JLine^JPerpendicular@Line Perpendicular
1002
}
  0
LINE
  5
216
100
AcDbEntity
  8
Exterior View
370
           0
  6
Continuous
 62
           7
100
AcDbLine
 10
-5.999951764492
 20
-14.056922086807
 30
0.0
 11
-5.649223105955
 21
-14.056922086807
 31
0.0
1001
TCAD
1000
TCW_CUSTOM_DATA
1002
{
1000
#$AUX@_ToolInfo Properties
1070
           8
1000
Insert^JLine^JPerpendicular@Line Perpendicular
1002
}
  0
LINE
  5
217
100
AcDbEntity
  8
Exterior View
370
           0
  6
Continuous
 62
           7
100
AcDbLine
 10
9.49995453775
 20
-42.587012741566
 30
0.0
 11
9.499869429638
 21
-35.062008986939
 31
0.0
  0
LINE
  5
218
100
AcDbEntity
  8
Exterior View
370
           0
  6
Continuous
 62
           7
100
AcDbLine
 10
9.874946484856
 20
-42.58701062099
 30
0.0
 11
9.874946484856
 21
-35.062008986939
 31
0.0
  0
LINE
  5
219
100
AcDbEntity
  8
Exterior View
370
           0
  6
Continuous
 62
           7
100
AcDbLine
 10
-0.148389264492
 20
-13.900284468003
 30
0.0
 11
-0.148389264492
 21
-13.83755970561
 31
0.0
1001
TCAD
1000
TCW_CUSTOM_DATA
1002
{
1000
#$AUX@_ToolInfo Properties
1070
           8
1000
Insert^JLine^JPerpendicular@Line Perpendicular
1002
}
  0
LINE
  5
21A
100
AcDbEntity
  8
Exterior View
370
           0
  6
Continuous
 62
           7
100
AcDbLine
 10
1.335985735508
 20
-14.026284468003
 30
0.0
 11
1.335985735508
 21
-13.96355970561
 31
0.0
1001
TCAD
1000
TCW_CUSTOM_DATA
1002
{
1000
#$AUX@_ToolInfo Properties
1070
           8
1000
Insert^JLine^JPerpendicular@Line Perpendicular
1002
}
  0
LINE
  5
21B
100
AcDbEntity
  8
Exterior View
370
           0
  6
Continuous
 62
           7
100
AcDbLine
 10
0.335985735508
 20
-13.878675495084
 30
0.0
 11
0.335985735508
 21
-13.941400257476
 31
0.0
1001
TCAD
1000
TCW_CUSTOM_DATA
1002
{
1000
#$AUX@_ToolInfo Properties
1070
           8
1000
Insert^JLine^JSingle@Line Single
1002
}
  0
LINE
  5
21C
100
AcDbEntity
  8
Exterior View
370
           0
  6
Continuous
 62
           7
100
AcDbLine
 10
0.835985735508
 20
-13.921117600347
 30
0.0
 11
0.835985735508
 21
-13.98384236274
 31
0.0
1001
TCAD
1000
TCW_CUSTOM_DATA
1002
{
1000
#$AUX@_ToolInfo Properties
1070
           8
1000
Insert^JLine^JSingle@Line Single
1002
}
  0
LINE
  5
21D
100
AcDbEntity
  8
Exterior View
370
           0
  6
Continuous
 62
           7
100
AcDbLine
 10
0.203173235508
 20
-0.00655970561
 30
0.0
 11
-0.148389264492
 21
-13.83755970561
 31
0.0
1001
TCAD
1000
TCW_CUSTOM_DATA
1002
{
1000
#$AUX@_ToolInfo Properties
1070
           8
1000
Insert^JLine^JSingle@Line Single
1002
}
  0
LINE
  5
21E
100
AcDbEntity
  8
Exterior View
370
           0
  6
Continuous
 62
           7
100
AcDbLine
 10
0.335985735508
 20
-13.878675495084
 30
0.0
 11
0.458448235508
 21
-0.00655970561
 31
0.0
1001
TCAD
1000
TCW_CUSTOM_DATA
1002
{
1000
#$AUX@_ToolInfo Properties
1070
           8
1000
Insert^JLine^JSingle@Line Single
1002
}
  0
LINE
  5
21F
100
AcDbEntity
  8
Exterior View
370
           0
  6
Continuous
 62
           7
100
AcDbLine
 10
0.729248235508
 20
-0.00655970561
 30
0.0
 11
0.835985735508
 21
-13.921117600347
 31
0.0
1001
TCAD
1000
TCW_CUSTOM_DATA
1002
{
1000
#$AUX@_ToolInfo Properties
1070
           8
1000
Insert^JLine^JSingle@Line Single
1002
}
  0
LINE
  5
220
100
AcDbEntity
  8
Exterior View
370
           0
  6
Continuous
 62
           7
100
AcDbLine
 10
1.335985735508
 20
-13.96355970561
 30
0.0
 11
1.000048235508
 21
-0.00655970561
 31
0.0
1001
TCAD
1000
TCW_CUSTOM_DATA
1002
{
1000
#$AUX@_ToolInfo Properties
1070
           8
1000
Insert^JLine^JSingle@Line Single
1002
}
  0
ARC
  5
221
100
AcDbEntity
  8
Exterior View
370
           0
  6
Continuous
 62
           7
100
AcDbCircle
 10
0.594344570447
 20
-14.024915663309
 30
0.0
 40
5.167276714091
100
AcDbArc
 50
-112.278967704521
 51
-67.720758210885
  0
ARC
  5
222
100
AcDbEntity
  8
Exterior View
370
           0
  6
Continuous
 62
           7
100
AcDbCircle
 10
9.688046334938
 20
-14.024915663309
 30
0.0
 40
5.167276714091
100
AcDbArc
 50
-112.278967704521
 51
-67.720758210885
  0
POINT
  5
223
100
AcDbEntity
  8
Exterior View
  6
Continuous
 62
           7
100
AcDbPoint
 10
0.093798235508
 20
-18.979472100447
 30
0.0
1001
TCAD
1000
TCW_CUSTOM_DATA
1002
{
1000
#$AUX@_ToolInfo Properties
1070
           8
1000
Insert^JPoint^JCross@Point Cross
1002
}
1000
TC25ExternalObject
1002
{
1000
TCW30POINT
1000

1070
           0
1071
        0
1040
1.0
1040
0.0
1000
Continuous
1000
Exterior View
1070
          21
1071
        1
1071
      242
1010
0.093798235508
1020
-18.979472100447
1030
0.0
1070
           3
1071
-2147483645
1070
           1
1000
#$AUX@_ToolInfo Properties
1070
           8
1000
Insert^JPoint^JCross@Point Cross
1000
$POINTSIZE
1070
           5
1040
0.25
1000
$POINTTYPE
1070
          18
1070
           3
1000
ExplodeScale
1070
           5
1040
1.0
1002
}
  0
POINT
  5
224
100
AcDbEntity
  8
Exterior View
  6
Continuous
 62
           7
100
AcDbPoint
 10
0.427148235508
 20
-19.001884771891
 30
0.0
1001
TCAD
1000
TCW_CUSTOM_DATA
1002
{
1000
#$AUX@_ToolInfo Properties
1070
           8
1000
Insert^JPoint^JCross@Point Cross
1002
}
1000
TC25ExternalObject
1002
{
1000
TCW30POINT
1000

1070
           0
1071
        0
1040
1.0
1040
0.0
1000
Continuous
1000
Exterior View
1070
          21
1071
        1
1071
      242
1010
0.427148235508
1020
-19.001884771891
1030
0.0
1070
           3
1071
-2147483645
1070
           1
1000
#$AUX@_ToolInfo Properties
1070
           8
1000
Insert^JPoint^JCross@Point Cross
1000
$POINTSIZE
1070
           5
1040
0.25
1000
$POINTTYPE
1070
          18
1070
           3
1000
ExplodeScale
1070
           5
1040
1.0
1002
}
  0
POINT
  5
225
100
AcDbEntity
  8
Exterior View
  6
Continuous
 62
           7
100
AcDbPoint
 10
0.760448235508
 20
-19.001921358971
 30
0.0
1001
TCAD
1000
TCW_CUSTOM_DATA
1002
{
1000
#$AUX@_ToolInfo Properties
1070
           8
1000
Insert^JPoint^JCross@Point Cross
1002
}
1000
TC25ExternalObject
1002
{
1000
TCW30POINT
1000

1070
           0
1071
        0
1040
1.0
1040
0.0
1000
Continuous
1000
Exterior View
1070
          21
1071
        1
1071
      242
1010
0.760448235508
1020
-19.001921358971
1030
0.0
1070
           3
1071
-2147483645
1070
           1
1000
#$AUX@_ToolInfo Properties
1070
           8
1000
Insert^JPoint^JCross@Point Cross
1000
$POINTSIZE
1070
           5
1040
0.25
1000
$POINTTYPE
1070
          18
1070
           3
1000
ExplodeScale
1070
           5
1040
1.0
1002
}
  0
POINT
  5
226
100
AcDbEntity
  8
Exterior View
  6
Continuous
 62
           7
100
AcDbPoint
 10
1.093798235508
 20
-18.979582368412
 30
0.0
1001
TCAD
1000
TCW_CUSTOM_DATA
1002
{
1000
#$AUX@_ToolInfo Properties
1070
           8
1000
Insert^JPoint^JCross@Point Cross
1002
}
1000
TC25ExternalObject
1002
{
1000
TCW30POINT
1000

1070
           0
1071
        0
1040
1.0
1040
0.0
1000
Continuous
1000
Exterior View
1070
          21
1071
        1
1071
      242
1010
1.093798235508
1020
-18.979582368412
1030
0.0
1070
           3
1071
-2147483645
1070
           1
1000
#$AUX@_ToolInfo Properties
1070
           8
1000
Insert^JPoint^JCross@Point Cross
1000
$POINTSIZE
1070
           5
1040
0.25
1000
$POINTTYPE
1070
          18
1070
           3
1000
ExplodeScale
1070
           5
1040
1.0
1002
}
  0
LINE
  5
227
100
AcDbEntity
  8
Exterior View
370
           0
  6
Continuous
 62
           7
100
AcDbLine
 10
0.093798235508
 20
-18.979472100447
 30
0.0
 11
-0.148389264492
 21
-13.900284468003
 31
0.0
1001
TCAD
1000
TCW_CUSTOM_DATA
1002
{
1000
#$AUX@_ToolInfo Properties
1070
           8
1000
Insert^JLine^JSingle@Line Single
1002
}
  0
LINE
  5
228
100
AcDbEntity
  8
Exterior View
370
           0
  6
Continuous
 62
           7
100
AcDbLine
 10
0.335985735508
 20
-13.941400257476
 30
0.0
 11
0.427148235508
 21
-19.001884771891
 31
0.0
1001
TCAD
1000
TCW_CUSTOM_DATA
1002
{
1000
#$AUX@_ToolInfo Properties
1070
           8
1000
Insert^JLine^JSingle@Line Single
1002
}
  0
LINE
  5
229
100
AcDbEntity
  8
Exterior View
370
           0
  6
Continuous
 62
           7
100
AcDbLine
 10
0.835985735508
 20
-13.98384236274
 30
0.0
 11
0.760448235508
 21
-19.001921358971
 31
0.0
1001
TCAD
1000
TCW_CUSTOM_DATA
1002
{
1000
#$AUX@_ToolInfo Properties
1070
           8
1000
Insert^JLine^JSingle@Line Single
1002
}
  0
LINE
  5
22A
100
AcDbEntity
  8
Exterior View
370
           0
  6
Continuous
 62
           7
100
AcDbLine
 10
1.093798235508
 20
-18.979582368412
 30
0.0
 11
1.335985735508
 21
-14.026284468003
 31
0.0
1001
TCAD
1000
TCW_CUSTOM_DATA
1002
{
1000
#$AUX@_ToolInfo Properties
1070
           8
1000
Insert^JLine^JSingle@Line Single
1002
}
  0
CIRCLE
  5
22B
100
AcDbEntity
  8
Exterior View
370
           0
  6
Continuous
 62
           7
100
AcDbCircle
 10
0.093798235508
 20
-18.979472100447
 30
0.0
 40
0.0625
1001
TCAD
1000
TCW_CUSTOM_DATA
1002
{
1000
#$AUX@_ToolInfo Properties
1070
           8
1000
Insert^JCircle^JCenterAndPoint@Circle CenterAndPoint
1002
}
  0
CIRCLE
  5
22C
100
AcDbEntity
  8
Exterior View
370
           0
  6
Continuous
 62
           7
100
AcDbCircle
 10
0.427148235508
 20
-19.001884771891
 30
0.0
 40
0.0625
1001
TCAD
1000
TCW_CUSTOM_DATA
1002
{
1000
#$AUX@_ToolInfo Properties
1070
           8
1000
Insert^JCircle^JCenterAndPoint@Circle CenterAndPoint
1002
}
  0
CIRCLE
  5
22D
100
AcDbEntity
  8
Exterior View
370
           0
  6
Continuous
 62
           7
100
AcDbCircle
 10
0.760448235508
 20
-19.001921358971
 30
0.0
 40
0.0625
1001
TCAD
1000
TCW_CUSTOM_DATA
1002
{
1000
#$AUX@_ToolInfo Properties
1070
           8
1000
Insert^JCircle^JCenterAndPoint@Circle CenterAndPoint
1002
}
  0
CIRCLE
  5
22E
100
AcDbEntity
  8
Exterior View
370
           0
  6
Continuous
 62
           7
100
AcDbCircle
 10
1.093798235508
 20
-18.979582368412
 30
0.0
 40
0.0625
1001
TCAD
1000
TCW_CUSTOM_DATA
1002
{
1000
#$AUX@_ToolInfo Properties
1070
           8
1000
Insert^JCircle^JCenterAndPoint@Circle CenterAndPoint
1002
}
  0
LINE
  5
22F
100
AcDbEntity
  8
Exterior View
370
           0
  6
Continuous
 62
           7
100
AcDbLine
 10
-5.875
 20
-19.064384771891
 30
0.0
 11
-5.875
 21
-18.916972100447
 31
0.0
1001
TCAD
1000
TCW_CUSTOM_DATA
1002
{
1000
#$AUX@_ToolInfo Properties
1070
           8
1000
Insert^JLine^JPerpendicular@Line Perpendicular
1002
}
  0
LINE
  5
230
100
AcDbEntity
  8
Exterior View
370
           0
  6
Continuous
 62
           7
100
AcDbLine
 10
-5.875
 20
-18.916972100447
 30
0.0
 11
-5.999951764492
 21
-18.916972100447
 31
0.0
  0
LINE
  5
231
100
AcDbEntity
  8
Hidden
370
           0
  6
HIDDEN
 62
           7
 48
0.20000000298
100
AcDbLine
 10
-5.999951764492
 20
-18.916972100447
 30
0.0
 11
-7.125
 21
-18.916972100447
 31
0.0
  0
LINE
  5
232
100
AcDbEntity
  8
Exterior View
370
           0
  6
Continuous
 62
           7
 48
0.20000000298
100
AcDbLine
 10
-5.875
 20
-19.064384771891
 30
0.0
 11
-5.999951764492
 21
-19.064384771891
 31
0.0
  0
LINE
  5
233
100
AcDbEntity
  8
Hidden
370
           0
  6
HIDDEN
 62
           7
 48
0.20000000298
100
AcDbLine
 10
-5.999951764492
 20
-19.064384771891
 30
0.0
 11
-7.125
 21
-19.064384771891
 31
0.0
  0
LINE
  5
234
100
AcDbEntity
  8
Hidden
370
           0
  6
HIDDEN
 62
           7
 48
0.20000000298
100
AcDbLine
 10
-5.875
 20
-18.939384771891
 30
0.0
 11
-7.125
 21
-18.939384771891
 31
0.0
1001
TCAD
1000
TCW_CUSTOM_DATA
1002
{
1000
#$AUX@_ToolInfo Properties
1070
           8
1000
Insert^JLine^JPerpendicular@Line Perpendicular
1002
}
  0
LINE
  5
235
100
AcDbEntity
  8
Exterior View
370
           0
  6
Continuous
 62
           7
 48
0.20000000298
100
AcDbLine
 10
-5.875
 20
-19.041972100447
 30
0.0
 11
-5.999951764492
 21
-19.041972100447
 31
0.0
  0
LINE
  5
236
100
AcDbEntity
  8
Hidden
370
           0
  6
HIDDEN
 62
           7
 48
0.20000000298
100
AcDbLine
 10
-5.999951764492
 20
-19.041972100447
 30
0.0
 11
-7.125
 21
-19.041972100447
 31
0.0
  0
LINE
  5
237
100
AcDbEntity
  8
Hidden
370
           0
  6
HIDDEN
 62
           7
 48
0.20000000298
100
AcDbLine
 10
-7.125
 20
-18.916972100447
 30
0.0
 11
-7.125
 21
-19.064384771891
 31
0.0
1001
TCAD
1000
TCW_CUSTOM_DATA
1002
{
1000
#$AUX@_ToolInfo Properties
1070
           8
1000
Insert^JLine^JPerpendicular@Line Perpendicular
1002
}
  0
LINE
  5
238
100
AcDbEntity
  8
Exterior View
370
           0
  6
Continuous
 62
           7
100
AcDbLine
 10
-5.649223105955
 20
-14.056922086807
 30
0.0
 11
-5.999951764492
 21
-19.064384771891
 31
0.0
1001
TCAD
1000
TCW_CUSTOM_DATA
1002
{
1000
#$AUX@_ToolInfo Properties
1070
           8
1000
Insert^JLine^JSingle@Line Single
1002
}
  0
LINE
  5
239
100
AcDbEntity
  8
Exterior View
370
           0
  6
Continuous
 62
           7
100
AcDbLine
 10
-1.218701764492
 20
-14.056922086807
 30
0.0
 11
2.406298235508
 21
-14.056922086807
 31
0.0
1001
TCAD
1000
TCW_CUSTOM_DATA
1002
{
1000
#$AUX@_ToolInfo Properties
1070
           8
1000
Insert^JLine^JPerpendicular@Line Perpendicular
1002
}
  0
LINE
  5
23A
100
AcDbEntity
  8
Exterior View
370
           0
  6
Continuous
 62
           7
100
AcDbLine
 10
-0.406201764492
 20
-14.056922086807
 30
0.0
 11
-0.406201764492
 21
-13.806922086807
 31
0.0
1001
TCAD
1000
TCW_CUSTOM_DATA
1002
{
1000
#$AUX@_ToolInfo Properties
1070
           8
1000
Insert^JLine^JSingle@Line Single
1002
}
  0
LINE
  5
23B
100
AcDbEntity
  8
Exterior View
370
           0
  6
Continuous
 62
           7
100
AcDbLine
 10
1.593798235508
 20
-13.806922086807
 30
0.0
 11
1.593798235508
 21
-14.056922086807
 31
0.0
1001
TCAD
1000
TCW_CUSTOM_DATA
1002
{
1000
#$AUX@_ToolInfo Properties
1070
           8
1000
Insert^JLine^JSingle@Line Single
1002
}
  0
LINE
  5
23C
100
AcDbEntity
  8
Exterior View
370
           0
  6
Continuous
 62
           7
100
AcDbLine
 10
-1.218701764492
 20
-13.806922086807
 30
0.0
 11
2.406298235508
 21
-13.806922086807
 31
0.0
1001
TCAD
1000
TCW_CUSTOM_DATA
1002
{
1000
#$AUX@_ToolInfo Properties
1070
           8
1000
Insert^JLine^JSingle@Line Single
1002
}
  0
LINE
  5
23D
100
AcDbEntity
  8
Exterior View
370
           0
  6
Continuous
 62
           7
100
AcDbLine
 10
1.468798235508
 20
-14.037558152213
 30
0.0
 11
-0.281201764492
 21
-13.889010783792
 31
0.0
1001
TCAD
1000
TCW_CUSTOM_DATA
1002
{
1000
#$AUX@_ToolInfo Properties
1070
           8
1000
Insert^JLine^JSingle@Line Single
1002
}
  0
LINE
  5
23E
100
AcDbEntity
  8
Exterior View
370
           0
  6
Continuous
 62
           7
100
AcDbLine
 10
-0.281201764492
 20
-13.8262860214
 30
0.0
 11
1.468798235508
 21
-13.974833389821
 31
0.0
1001
TCAD
1000
TCW_CUSTOM_DATA
1002
{
1000
#$AUX@_ToolInfo Properties
1070
           8
1000
Insert^JLine^JSingle@Line Single
1002
}
  0
LINE
  5
23F
100
AcDbEntity
  8
Exterior View
370
           0
  6
Continuous
 62
           7
100
AcDbLine
 10
-0.281201764492
 20
-14.056922086807
 30
0.0
 11
-0.281201764492
 21
-13.806922086807
 31
0.0
1001
TCAD
1000
TCW_CUSTOM_DATA
1002
{
1000
#$AUX@_ToolInfo Properties
1070
           8
1000
Insert^JLine^JPerpendicular@Line Perpendicular
1002
}
  0
LINE
  5
240
100
AcDbEntity
  8
Exterior View
370
           0
  6
Continuous
 62
           7
100
AcDbLine
 10
1.468798235508
 20
-14.056922086807
 30
0.0
 11
1.468798235508
 21
-13.806922086807
 31
0.0
1001
TCAD
1000
TCW_CUSTOM_DATA
1002
{
1000
#$AUX@_ToolInfo Properties
1070
           8
1000
Insert^JLine^JPerpendicular@Line Perpendicular
1002
}
  0
LINE
  5
241
100
AcDbEntity
  8
Exterior View
370
           0
  6
Continuous
 62
           7
100
AcDbLine
 10
-1.218701764492
 20
-14.056922086807
 30
0.0
 11
-1.218701764492
 21
-13.806922086807
 31
0.0
1001
TCAD
1000
TCW_CUSTOM_DATA
1002
{
1000
#$AUX@_ToolInfo Properties
1070
           8
1000
Insert^JLine^JSingle@Line Single
1002
}
  0
LINE
  5
242
100
AcDbEntity
  8
Exterior View
370
           0
  6
Continuous
 62
           7
100
AcDbLine
 10
2.406298235508
 20
-13.806922086807
 30
0.0
 11
2.406298235508
 21
-14.056922086807
 31
0.0
1001
TCAD
1000
TCW_CUSTOM_DATA
1002
{
1000
#$AUX@_ToolInfo Properties
1070
           8
1000
Insert^JLine^JSingle@Line Single
1002
}
  0
LINE
  5
243
100
AcDbEntity
  8
Exterior View
370
           0
  6
Continuous
 62
           7
100
AcDbLine
 10
-1.218701764492
 20
-38.17537136796
 30
0.0
 11
2.406298235508
 21
-38.17537136796
 31
0.0
1001
TCAD
1000
TCW_CUSTOM_DATA
1002
{
1000
#$AUX@_ToolInfo Properties
1070
           8
1000
Insert^JLine^JPerpendicular@Line Perpendicular
1002
}
  0
LINE
  5
244
100
AcDbEntity
  8
Exterior View
370
           0
  6
Continuous
 62
           7
100
AcDbLine
 10
-0.406201764492
 20
-38.17537136796
 30
0.0
 11
-0.406201764492
 21
-37.92537136796
 31
0.0
1001
TCAD
1000
TCW_CUSTOM_DATA
1002
{
1000
#$AUX@_ToolInfo Properties
1070
           8
1000
Insert^JLine^JSingle@Line Single
1002
}
  0
LINE
  5
245
100
AcDbEntity
  8
Exterior View
370
           0
  6
Continuous
 62
           7
100
AcDbLine
 10
1.593798235508
 20
-37.92537136796
 30
0.0
 11
1.593798235508
 21
-38.17537136796
 31
0.0
1001
TCAD
1000
TCW_CUSTOM_DATA
1002
{
1000
#$AUX@_ToolInfo Properties
1070
           8
1000
Insert^JLine^JSingle@Line Single
1002
}
  0
LINE
  5
246
100
AcDbEntity
  8
Exterior View
370
           0
  6
Continuous
 62
           7
100
AcDbLine
 10
-1.218701764492
 20
-37.92537136796
 30
0.0
 11
2.406298235508
 21
-37.92537136796
 31
0.0
1001
TCAD
1000
TCW_CUSTOM_DATA
1002
{
1000
#$AUX@_ToolInfo Properties
1070
           8
1000
Insert^JLine^JSingle@Line Single
1002
}
  0
LINE
  5
247
100
AcDbEntity
  8
Exterior View
370
           0
  6
Continuous
 62
           7
100
AcDbLine
 10
1.468798235508
 20
-38.156007433366
 30
0.0
 11
-0.281201764492
 21
-38.007460064945
 31
0.0
1001
TCAD
1000
TCW_CUSTOM_DATA
1002
{
1000
#$AUX@_ToolInfo Properties
1070
           8
1000
Insert^JLine^JSingle@Line Single
1002
}
  0
LINE
  5
248
100
AcDbEntity
  8
Exterior View
370
           0
  6
Continuous
 62
           7
100
AcDbLine
 10
-0.281201764492
 20
-37.944735302553
 30
0.0
 11
1.468798235508
 21
-38.093282670974
 31
0.0
1001
TCAD
1000
TCW_CUSTOM_DATA
1002
{
1000
#$AUX@_ToolInfo Properties
1070
           8
1000
Insert^JLine^JSingle@Line Single
1002
}
  0
LINE
  5
249
100
AcDbEntity
  8
Exterior View
370
           0
  6
Continuous
 62
           7
100
AcDbLine
 10
-0.281201764492
 20
-38.17537136796
 30
0.0
 11
-0.281201764492
 21
-37.92537136796
 31
0.0
1001
TCAD
1000
TCW_CUSTOM_DATA
1002
{
1000
#$AUX@_ToolInfo Properties
1070
           8
1000
Insert^JLine^JPerpendicular@Line Perpendicular
1002
}
  0
LINE
  5
24A
100
AcDbEntity
  8
Exterior View
370
           0
  6
Continuous
 62
           7
100
AcDbLine
 10
1.468798235508
 20
-38.17537136796
 30
0.0
 11
1.468798235508
 21
-37.92537136796
 31
0.0
1001
TCAD
1000
TCW_CUSTOM_DATA
1002
{
1000
#$AUX@_ToolInfo Properties
1070
           8
1000
Insert^JLine^JPerpendicular@Line Perpendicular
1002
}
  0
LINE
  5
24B
100
AcDbEntity
  8
Exterior View
370
           0
  6
Continuous
 62
           7
100
AcDbLine
 10
2.406298235508
 20
-37.92537136796
 30
0.0
 11
2.406298235508
 21
-38.17537136796
 31
0.0
1001
TCAD
1000
TCW_CUSTOM_DATA
1002
{
1000
#$AUX@_ToolInfo Properties
1070
           8
1000
Insert^JLine^JSingle@Line Single
1002
}
  0
LINE
  5
24C
100
AcDbEntity
  8
Exterior View
370
           0
  6
Continuous
 62
           7
100
AcDbLine
 10
-1.218701764492
 20
-37.92537136796
 30
0.0
 11
-1.218701764492
 21
-38.17537136796
 31
0.0
1001
TCAD
1000
TCW_CUSTOM_DATA
1002
{
1000
#$AUX@_ToolInfo Properties
1070
           8
1000
Insert^JLine^JSingle@Line Single
1002
}
  0
ENDSEC
  0
SECTION
  2
OBJECTS
  0
DICTIONARY
  5
19
100
AcDbDictionary
280
           0
281
           1
  3
ACAD_GROUP
350
1A
  3
ACAD_MLINESTYLE
350
1B
  3
ACAD_LAYOUT
350
1E
  3
ACAD_PLOTSETTINGS
350
22
  3
ACAD_PLOTSTYLENAME
350
1F
  0
DICTIONARY
  5
1A
102
{ACAD_REACTORS
330
19
102
}
100
AcDbDictionary
280
           0
281
           1
  0
DICTIONARY
  5
1B
102
{ACAD_REACTORS
330
19
102
}
100
AcDbDictionary
280
           0
281
           1
  3
Standard
350
1C
  0
MLINESTYLE
  5
1C
100
AcDbMlineStyle
  2
STANDARD
 70
           0
  3

 62
         256
 51
90.0
 52
90.0
 71
           3
 49
0.25
 62
           7
  6
ByLayer
 49
0.0
 62
           7
  6
ByLayer
 49
-0.25
 62
           7
  6
ByLayer
  0
ACDBDICTIONARYWDFLT
  5
1F
102
{ACAD_REACTORS
330
19
102
}
100
AcDbDictionary
281
           1
  3
Normal
350
1D
100
AcDbDictionaryWithDefault
340
1D
  0
ACDBPLACEHOLDER
  5
1D
102
{ACAD_REACTORS
330
1F
102
}
  0
LAYOUT
  5
21
102
{ACAD_REACTORS
330
1E
102
}
100
AcDbPlotSettings
  1

  2

  4

  6

 40
0.0
 41
0.0
 42
0.0
 43
0.0
 44
0.0
 45
0.0
 46
0.0
 47
0.0
 48
0.0
 49
0.0
140
0.0
141
0.0
142
1.0
143
1.0
 70
           0
 72
           0
 73
           0
 74
           0
  7

 75
           0
147
1.0
148
0.0
149
0.0
100
AcDbLayout
  1
Layout1
 70
           0
 71
           0
 10
0.0
 20
0.0
 11
0.0
 21
0.0
 12
0.0
 22
0.0
 32
0.0
 14
0.0
 24
0.0
 34
0.0
 15
0.0
 25
0.0
 35
0.0
146
0.0
 13
0.0
 23
0.0
 33
0.0
 16
0.0
 26
0.0
 36
0.0
 17
0.0
 27
0.0
 37
0.0
 76
           0
330
B
331
0
345
0
346
0
  0
DICTIONARY
  5
1E
102
{ACAD_REACTORS
330
19
102
}
100
AcDbDictionary
280
           0
281
           1
  3
Model
350
24D
  3
Paper 1
350
24E
  0
DICTIONARY
  5
22
102
{ACAD_REACTORS
330
19
102
}
100
AcDbDictionary
280
           0
281
           1
  0
LAYOUT
  5
24D
100
AcDbPlotSettings
  1

  2

  4

  6

 40
0.0
 41
0.0
 42
0.0
 43
0.0
 44
0.0
 45
0.0
 46
0.0
 47
0.0
 48
0.0
 49
0.0
140
0.0
141
0.0
142
1.0
143
1.0
 70
           0
 72
           0
 73
           0
 74
           0
  7

 75
           0
147
1.0
148
0.0
149
0.0
100
AcDbLayout
  1
Model
 70
           0
 71
           0
 10
0.0
 20
0.0
 11
0.0
 21
0.0
 12
0.0
 22
0.0
 32
0.0
 14
0.0
 24
0.0
 34
0.0
 15
0.0
 25
0.0
 35
0.0
146
0.0
 13
0.0
 23
0.0
 33
0.0
 16
0.0
 26
0.0
 36
0.0
 17
0.0
 27
0.0
 37
0.0
 76
           0
330
A
331
0
345
0
346
0
  0
LAYOUT
  5
24E
100
AcDbPlotSettings
  1

  2
none_device
  4

  6

 40
6.35
 41
12.7
 42
6.35
 43
1.69418
 44
279.4
 45
215.9
 46
-6.35
 47
-12.7
 48
0.0
 49
0.0
140
0.0
141
0.0
142
1.0
143
1.0
 70
           0
 72
           0
 73
           0
 74
           0
  7

 75
           0
147
1.0
148
0.0
149
0.0
100
AcDbLayout
  1
Paper 1
 70
           1
 71
           1
 10
0.0
 20
0.0
 11
279.4
 21
215.9
 12
0.0
 22
0.0
 32
0.0
 14
0.0
 24
0.0
 34
0.0
 15
0.0
 25
0.0
 35
0.0
146
0.0
 13
0.0
 23
0.0
 33
0.0
 16
0.0
 26
0.0
 36
0.0
 17
0.0
 27
0.0
 37
0.0
 76
           0
330
B
331
0
345
0
346
0
  0
ENDSEC
  0
EOF
